<mxfile host="app.diagrams.net" modified="2023-04-04T08:43:41.340Z" agent="Mozilla/5.0 (Windows NT 10.0; Win64; x64) AppleWebKit/537.36 (KHTML, like Gecko) Chrome/111.0.0.0 Safari/537.36" etag="WSnk_oBOv3jTK4k-1tAE" version="21.1.4" type="google">
  <diagram name="Page-1" id="2YBvvXClWsGukQMizWep">
    <mxGraphModel grid="1" page="1" gridSize="10" guides="1" tooltips="1" connect="1" arrows="1" fold="1" pageScale="1" pageWidth="850" pageHeight="1100" math="0" shadow="0">
      <root>
        <mxCell id="0" />
        <mxCell id="1" parent="0" />
        <mxCell id="FHkZ6KigjI90xfpJ3WTl-4" value=": Staff Login Page" style="shape=umlLifeline;perimeter=lifelinePerimeter;whiteSpace=wrap;html=1;container=0;dropTarget=0;collapsible=0;recursiveResize=0;outlineConnect=0;portConstraint=eastwest;newEdgeStyle={&quot;edgeStyle&quot;:&quot;elbowEdgeStyle&quot;,&quot;elbow&quot;:&quot;vertical&quot;,&quot;curved&quot;:0,&quot;rounded&quot;:0};" vertex="1" parent="1">
          <mxGeometry x="450" y="340" width="100" height="300" as="geometry" />
        </mxCell>
        <mxCell id="FHkZ6KigjI90xfpJ3WTl-10" style="edgeStyle=orthogonalEdgeStyle;rounded=0;orthogonalLoop=1;jettySize=auto;html=1;endArrow=none;endFill=0;dashed=1;" edge="1" parent="1" source="FHkZ6KigjI90xfpJ3WTl-8">
          <mxGeometry relative="1" as="geometry">
            <mxPoint x="285" y="640" as="targetPoint" />
          </mxGeometry>
        </mxCell>
        <mxCell id="FHkZ6KigjI90xfpJ3WTl-8" value="Actor" style="shape=umlActor;verticalLabelPosition=bottom;verticalAlign=top;html=1;outlineConnect=0;" vertex="1" parent="1">
          <mxGeometry x="270" y="330" width="30" height="60" as="geometry" />
        </mxCell>
        <mxCell id="FHkZ6KigjI90xfpJ3WTl-11" value="&lt;font style=&quot;font-size: 11px;&quot;&gt;&lt;b&gt;Inventory/Quality Control&lt;/b&gt;&lt;br&gt;- Ingredient is checked thoroughly in quality check&lt;br&gt;- If quality is unsatisfactory, complaint report is issued and manager negotiate for compensation&lt;br&gt;- If quality is satisfactory, ingredient quality report is submitted to manager and request for payment is issued&lt;br style=&quot;border-color: var(--border-color);&quot;&gt;- Update stock levels to the system&lt;br&gt;&lt;/font&gt;" style="rounded=1;whiteSpace=wrap;html=1;strokeColor=#6c8ebf;fillColor=#dae8fc;" vertex="1" parent="1">
          <mxGeometry x="730" y="95" width="210.96" height="180" as="geometry" />
        </mxCell>
        <mxCell id="FHkZ6KigjI90xfpJ3WTl-12" value="&lt;font style=&quot;font-size: 11px;&quot;&gt;&lt;b style=&quot;font-size: 11px;&quot;&gt;Purchase Order&lt;br style=&quot;font-size: 11px;&quot;&gt;&lt;/b&gt;&lt;/font&gt;&lt;font style=&quot;font-size: 11px;&quot;&gt;&lt;span style=&quot;font-size: 11px;&quot;&gt;- Make a purchase order of raw ingredients and packaging to all supplier&lt;/span&gt;&lt;br style=&quot;font-size: 11px;&quot;&gt;&lt;span style=&quot;font-size: 11px;&quot;&gt;-&amp;nbsp;Vendor is notified of the incoming purchase order form and does decision-making&lt;br style=&quot;font-size: 11px;&quot;&gt;&lt;/span&gt;- With purchase order accepted, agreement is formed between manager and supplier&lt;br style=&quot;font-size: 11px;&quot;&gt;- Supplier deliver&amp;nbsp;ingredient&lt;br style=&quot;font-size: 11px;&quot;&gt;- Receive&amp;nbsp;ingredient&amp;nbsp;in kitchen&lt;br style=&quot;font-size: 11px;&quot;&gt;&lt;/font&gt;" style="rounded=1;whiteSpace=wrap;html=1;strokeColor=#6c8ebf;fillColor=#DAE8FC;fontSize=11;" vertex="1" parent="1">
          <mxGeometry x="499.53999999999996" y="95" width="160" height="180" as="geometry" />
        </mxCell>
        <mxCell id="FHkZ6KigjI90xfpJ3WTl-13" value="&lt;b&gt;Material Requirement Planning&lt;/b&gt;&lt;br&gt;&lt;font style=&quot;font-size: 11px;&quot;&gt;- Analyze past sales to determine optimal MTS quantity&lt;br&gt;- Input MTS quantity to the system for ingredients procurement reference&lt;br&gt;and daily manufacturing reference&lt;br&gt;&lt;/font&gt;" style="rounded=1;whiteSpace=wrap;html=1;strokeColor=#82b366;fillColor=#d5e8d4;" vertex="1" parent="1">
          <mxGeometry x="260" y="95" width="192.95" height="185" as="geometry" />
        </mxCell>
        <mxCell id="FHkZ6KigjI90xfpJ3WTl-14" value="" style="endArrow=classic;html=1;rounded=0;endFill=1;" edge="1" parent="1" target="FHkZ6KigjI90xfpJ3WTl-4">
          <mxGeometry width="50" height="50" relative="1" as="geometry">
            <mxPoint x="290" y="430" as="sourcePoint" />
            <mxPoint x="420" y="430" as="targetPoint" />
          </mxGeometry>
        </mxCell>
        <mxCell id="FHkZ6KigjI90xfpJ3WTl-15" value="Submit&amp;nbsp;" style="edgeLabel;html=1;align=center;verticalAlign=middle;resizable=0;points=[];" connectable="0" vertex="1" parent="FHkZ6KigjI90xfpJ3WTl-14">
          <mxGeometry x="-0.3417" y="-1" relative="1" as="geometry">
            <mxPoint x="31" as="offset" />
          </mxGeometry>
        </mxCell>
        <mxCell id="FHkZ6KigjI90xfpJ3WTl-16" value="" style="endArrow=classic;html=1;rounded=0;endFill=1;" edge="1" parent="1">
          <mxGeometry width="50" height="50" relative="1" as="geometry">
            <mxPoint x="289.54" y="450" as="sourcePoint" />
            <mxPoint x="499.54" y="450" as="targetPoint" />
          </mxGeometry>
        </mxCell>
        <mxCell id="FHkZ6KigjI90xfpJ3WTl-17" value="Click Login button" style="edgeLabel;html=1;align=center;verticalAlign=middle;resizable=0;points=[];" connectable="0" vertex="1" parent="FHkZ6KigjI90xfpJ3WTl-16">
          <mxGeometry x="-0.3417" y="-1" relative="1" as="geometry">
            <mxPoint x="31" as="offset" />
          </mxGeometry>
        </mxCell>
        <mxCell id="auMP-Y1tO_uPRWlFtHE_-1" value="Purchase Request" style="swimlane;childLayout=stackLayout;resizeParent=1;resizeParentMax=0;startSize=20;html=1;fillColor=#dae8fc;strokeColor=#6c8ebf;" vertex="1" parent="1">
          <mxGeometry x="-620" y="320" width="850" height="670" as="geometry" />
        </mxCell>
        <mxCell id="auMP-Y1tO_uPRWlFtHE_-2" value="Head of Operation" style="swimlane;startSize=20;html=1;" vertex="1" parent="auMP-Y1tO_uPRWlFtHE_-1">
          <mxGeometry y="20" width="340" height="650" as="geometry" />
        </mxCell>
        <mxCell id="auMP-Y1tO_uPRWlFtHE_-3" style="edgeStyle=orthogonalEdgeStyle;rounded=0;orthogonalLoop=1;jettySize=auto;html=1;entryX=0.5;entryY=0;entryDx=0;entryDy=0;" edge="1" parent="auMP-Y1tO_uPRWlFtHE_-2">
          <mxGeometry relative="1" as="geometry">
            <mxPoint x="170" y="815" as="sourcePoint" />
          </mxGeometry>
        </mxCell>
        <mxCell id="auMP-Y1tO_uPRWlFtHE_-4" value="Review purchase request" style="rounded=1;whiteSpace=wrap;html=1;" vertex="1" parent="auMP-Y1tO_uPRWlFtHE_-2">
          <mxGeometry x="130" y="115" width="120" height="60" as="geometry" />
        </mxCell>
        <mxCell id="auMP-Y1tO_uPRWlFtHE_-5" value="Yes" style="edgeStyle=orthogonalEdgeStyle;rounded=0;orthogonalLoop=1;jettySize=auto;html=1;" edge="1" parent="auMP-Y1tO_uPRWlFtHE_-2" source="auMP-Y1tO_uPRWlFtHE_-6" target="auMP-Y1tO_uPRWlFtHE_-8">
          <mxGeometry x="-0.8095" y="-10" relative="1" as="geometry">
            <Array as="points">
              <mxPoint x="100" y="390" />
            </Array>
            <mxPoint as="offset" />
          </mxGeometry>
        </mxCell>
        <mxCell id="auMP-Y1tO_uPRWlFtHE_-6" value="Approved?" style="rhombus;whiteSpace=wrap;html=1;" vertex="1" parent="auMP-Y1tO_uPRWlFtHE_-2">
          <mxGeometry x="150" y="350" width="80" height="80" as="geometry" />
        </mxCell>
        <mxCell id="auMP-Y1tO_uPRWlFtHE_-7" style="edgeStyle=orthogonalEdgeStyle;rounded=0;orthogonalLoop=1;jettySize=auto;html=1;" edge="1" parent="auMP-Y1tO_uPRWlFtHE_-2" source="auMP-Y1tO_uPRWlFtHE_-4" target="auMP-Y1tO_uPRWlFtHE_-6">
          <mxGeometry relative="1" as="geometry">
            <mxPoint x="190" y="230" as="targetPoint" />
          </mxGeometry>
        </mxCell>
        <mxCell id="auMP-Y1tO_uPRWlFtHE_-8" value="Purchase Order" style="shape=process;whiteSpace=wrap;html=1;backgroundOutline=1;" vertex="1" parent="auMP-Y1tO_uPRWlFtHE_-2">
          <mxGeometry x="40" y="550" width="120" height="60" as="geometry" />
        </mxCell>
        <mxCell id="auMP-Y1tO_uPRWlFtHE_-9" value="PR mistake" style="text;html=1;align=center;verticalAlign=middle;resizable=0;points=[];autosize=1;strokeColor=none;fillColor=none;" vertex="1" parent="auMP-Y1tO_uPRWlFtHE_-2">
          <mxGeometry x="220" y="460" width="80" height="30" as="geometry" />
        </mxCell>
        <mxCell id="auMP-Y1tO_uPRWlFtHE_-10" value="System" style="swimlane;startSize=20;html=1;" vertex="1" parent="auMP-Y1tO_uPRWlFtHE_-1">
          <mxGeometry x="340" y="20" width="220" height="650" as="geometry" />
        </mxCell>
        <mxCell id="auMP-Y1tO_uPRWlFtHE_-11" style="edgeStyle=orthogonalEdgeStyle;rounded=0;orthogonalLoop=1;jettySize=auto;html=1;entryX=0;entryY=0.75;entryDx=0;entryDy=0;" edge="1" parent="auMP-Y1tO_uPRWlFtHE_-10">
          <mxGeometry relative="1" as="geometry">
            <Array as="points">
              <mxPoint x="30" y="325" />
              <mxPoint x="30" y="165" />
            </Array>
            <mxPoint x="50" y="165" as="targetPoint" />
          </mxGeometry>
        </mxCell>
        <mxCell id="auMP-Y1tO_uPRWlFtHE_-12" style="edgeStyle=orthogonalEdgeStyle;rounded=0;orthogonalLoop=1;jettySize=auto;html=1;" edge="1" parent="auMP-Y1tO_uPRWlFtHE_-10">
          <mxGeometry relative="1" as="geometry">
            <mxPoint x="110" y="715" as="sourcePoint" />
          </mxGeometry>
        </mxCell>
        <mxCell id="auMP-Y1tO_uPRWlFtHE_-13" value="Submit purchase request" style="rounded=1;whiteSpace=wrap;html=1;" vertex="1" parent="auMP-Y1tO_uPRWlFtHE_-10">
          <mxGeometry x="50" y="115" width="120" height="60" as="geometry" />
        </mxCell>
        <mxCell id="auMP-Y1tO_uPRWlFtHE_-14" value="Input review result" style="rounded=1;whiteSpace=wrap;html=1;" vertex="1" parent="auMP-Y1tO_uPRWlFtHE_-10">
          <mxGeometry x="50" y="230" width="120" height="60" as="geometry" />
        </mxCell>
        <mxCell id="auMP-Y1tO_uPRWlFtHE_-15" value="Update purchase request" style="rounded=1;whiteSpace=wrap;html=1;" vertex="1" parent="auMP-Y1tO_uPRWlFtHE_-10">
          <mxGeometry x="50" y="460" width="120" height="60" as="geometry" />
        </mxCell>
        <mxCell id="auMP-Y1tO_uPRWlFtHE_-16" value="Integrated and automated raw ingredients and finished product inventory correlation" style="shape=note;whiteSpace=wrap;html=1;backgroundOutline=1;darkOpacity=0.05;size=12;" vertex="1" parent="auMP-Y1tO_uPRWlFtHE_-10">
          <mxGeometry x="12.5" y="35" width="195" height="67" as="geometry" />
        </mxCell>
        <mxCell id="auMP-Y1tO_uPRWlFtHE_-17" style="edgeStyle=orthogonalEdgeStyle;rounded=0;orthogonalLoop=1;jettySize=auto;html=1;" edge="1" parent="auMP-Y1tO_uPRWlFtHE_-1">
          <mxGeometry relative="1" as="geometry">
            <Array as="points">
              <mxPoint x="150" y="755" />
            </Array>
            <mxPoint x="150" y="485" as="sourcePoint" />
          </mxGeometry>
        </mxCell>
        <mxCell id="auMP-Y1tO_uPRWlFtHE_-18" style="edgeStyle=orthogonalEdgeStyle;rounded=0;orthogonalLoop=1;jettySize=auto;html=1;" edge="1" parent="auMP-Y1tO_uPRWlFtHE_-1">
          <mxGeometry relative="1" as="geometry">
            <Array as="points">
              <mxPoint x="220" y="605" />
            </Array>
            <mxPoint x="390" y="605" as="targetPoint" />
          </mxGeometry>
        </mxCell>
        <mxCell id="auMP-Y1tO_uPRWlFtHE_-19" style="edgeStyle=orthogonalEdgeStyle;rounded=0;orthogonalLoop=1;jettySize=auto;html=1;" edge="1" parent="auMP-Y1tO_uPRWlFtHE_-1">
          <mxGeometry relative="1" as="geometry">
            <Array as="points">
              <mxPoint x="230" y="715" />
              <mxPoint x="682" y="715" />
            </Array>
            <mxPoint x="230" y="695" as="sourcePoint" />
          </mxGeometry>
        </mxCell>
        <mxCell id="auMP-Y1tO_uPRWlFtHE_-20" style="edgeStyle=orthogonalEdgeStyle;rounded=0;orthogonalLoop=1;jettySize=auto;html=1;" edge="1" parent="auMP-Y1tO_uPRWlFtHE_-1">
          <mxGeometry relative="1" as="geometry">
            <mxPoint x="266.25" y="885" as="targetPoint" />
          </mxGeometry>
        </mxCell>
        <mxCell id="auMP-Y1tO_uPRWlFtHE_-21" value="Outlet Staff" style="swimlane;startSize=20;html=1;" vertex="1" parent="auMP-Y1tO_uPRWlFtHE_-1">
          <mxGeometry x="560" y="20" width="290" height="650" as="geometry" />
        </mxCell>
        <mxCell id="auMP-Y1tO_uPRWlFtHE_-22" style="edgeStyle=orthogonalEdgeStyle;rounded=0;orthogonalLoop=1;jettySize=auto;html=1;" edge="1" parent="auMP-Y1tO_uPRWlFtHE_-21">
          <mxGeometry relative="1" as="geometry">
            <mxPoint x="120" y="260" as="sourcePoint" />
          </mxGeometry>
        </mxCell>
        <mxCell id="auMP-Y1tO_uPRWlFtHE_-23" value="v" style="ellipse;whiteSpace=wrap;html=1;aspect=fixed;fontFamily=ABeeZee;fontSource=https%3A%2F%2Ffonts.googleapis.com%2Fcss%3Ffamily%3DABeeZee;fontSize=12;fillColor=#000000;container=0;" vertex="1" parent="auMP-Y1tO_uPRWlFtHE_-21">
          <mxGeometry x="130" y="50" width="30" height="30" as="geometry" />
        </mxCell>
        <mxCell id="auMP-Y1tO_uPRWlFtHE_-24" value="Customer bulk order PO from Whatsapp or by phone" style="rounded=1;whiteSpace=wrap;html=1;fontSize=11;fillColor=#fff2cc;strokeColor=#d6b656;" vertex="1" parent="auMP-Y1tO_uPRWlFtHE_-21">
          <mxGeometry x="81.25" y="120" width="127.5" height="50" as="geometry" />
        </mxCell>
        <mxCell id="auMP-Y1tO_uPRWlFtHE_-25" style="edgeStyle=orthogonalEdgeStyle;rounded=0;orthogonalLoop=1;jettySize=auto;html=1;" edge="1" parent="auMP-Y1tO_uPRWlFtHE_-21" source="auMP-Y1tO_uPRWlFtHE_-23" target="auMP-Y1tO_uPRWlFtHE_-24">
          <mxGeometry relative="1" as="geometry">
            <mxPoint x="-359.9333333333334" y="100" as="targetPoint" />
            <Array as="points" />
          </mxGeometry>
        </mxCell>
        <mxCell id="auMP-Y1tO_uPRWlFtHE_-26" value="" style="ellipse;html=1;shape=endState;fillColor=#000000;strokeColor=#ff0000;" vertex="1" parent="auMP-Y1tO_uPRWlFtHE_-21">
          <mxGeometry x="130" y="500" width="30" height="30" as="geometry" />
        </mxCell>
        <mxCell id="auMP-Y1tO_uPRWlFtHE_-27" value="Receive notification of result" style="rounded=1;whiteSpace=wrap;html=1;" vertex="1" parent="auMP-Y1tO_uPRWlFtHE_-21">
          <mxGeometry x="85" y="230" width="120" height="60" as="geometry" />
        </mxCell>
        <mxCell id="auMP-Y1tO_uPRWlFtHE_-28" style="edgeStyle=orthogonalEdgeStyle;rounded=0;orthogonalLoop=1;jettySize=auto;html=1;entryX=0.5;entryY=0;entryDx=0;entryDy=0;" edge="1" parent="auMP-Y1tO_uPRWlFtHE_-21" source="auMP-Y1tO_uPRWlFtHE_-27" target="auMP-Y1tO_uPRWlFtHE_-30">
          <mxGeometry relative="1" as="geometry">
            <mxPoint x="145" y="330" as="targetPoint" />
          </mxGeometry>
        </mxCell>
        <mxCell id="auMP-Y1tO_uPRWlFtHE_-29" style="edgeStyle=orthogonalEdgeStyle;rounded=0;orthogonalLoop=1;jettySize=auto;html=1;entryX=0.5;entryY=0;entryDx=0;entryDy=0;" edge="1" parent="auMP-Y1tO_uPRWlFtHE_-21" source="auMP-Y1tO_uPRWlFtHE_-30" target="auMP-Y1tO_uPRWlFtHE_-26">
          <mxGeometry relative="1" as="geometry" />
        </mxCell>
        <mxCell id="auMP-Y1tO_uPRWlFtHE_-30" value="Notify customer of order approval or order cancellation" style="rounded=1;whiteSpace=wrap;html=1;" vertex="1" parent="auMP-Y1tO_uPRWlFtHE_-21">
          <mxGeometry x="85" y="390" width="120" height="60" as="geometry" />
        </mxCell>
        <mxCell id="auMP-Y1tO_uPRWlFtHE_-31" style="edgeStyle=orthogonalEdgeStyle;rounded=0;orthogonalLoop=1;jettySize=auto;html=1;entryX=0.5;entryY=0;entryDx=0;entryDy=0;" edge="1" parent="auMP-Y1tO_uPRWlFtHE_-1">
          <mxGeometry relative="1" as="geometry">
            <mxPoint x="510" y="265" as="sourcePoint" />
          </mxGeometry>
        </mxCell>
        <mxCell id="auMP-Y1tO_uPRWlFtHE_-32" style="edgeStyle=orthogonalEdgeStyle;rounded=0;orthogonalLoop=1;jettySize=auto;html=1;" edge="1" parent="auMP-Y1tO_uPRWlFtHE_-1">
          <mxGeometry relative="1" as="geometry">
            <mxPoint x="510" y="345" as="targetPoint" />
          </mxGeometry>
        </mxCell>
        <mxCell id="auMP-Y1tO_uPRWlFtHE_-33" value="No" style="edgeLabel;html=1;align=center;verticalAlign=middle;resizable=0;points=[];" connectable="0" vertex="1" parent="auMP-Y1tO_uPRWlFtHE_-32">
          <mxGeometry x="-0.3026" relative="1" as="geometry">
            <mxPoint as="offset" />
          </mxGeometry>
        </mxCell>
        <mxCell id="auMP-Y1tO_uPRWlFtHE_-34" style="edgeStyle=orthogonalEdgeStyle;rounded=0;orthogonalLoop=1;jettySize=auto;html=1;" edge="1" parent="auMP-Y1tO_uPRWlFtHE_-1" source="auMP-Y1tO_uPRWlFtHE_-24" target="auMP-Y1tO_uPRWlFtHE_-13">
          <mxGeometry relative="1" as="geometry">
            <mxPoint x="470" y="165" as="targetPoint" />
          </mxGeometry>
        </mxCell>
        <mxCell id="auMP-Y1tO_uPRWlFtHE_-35" style="edgeStyle=orthogonalEdgeStyle;rounded=0;orthogonalLoop=1;jettySize=auto;html=1;" edge="1" parent="auMP-Y1tO_uPRWlFtHE_-1" source="auMP-Y1tO_uPRWlFtHE_-13" target="auMP-Y1tO_uPRWlFtHE_-4">
          <mxGeometry relative="1" as="geometry">
            <mxPoint x="240" y="165" as="targetPoint" />
          </mxGeometry>
        </mxCell>
        <mxCell id="auMP-Y1tO_uPRWlFtHE_-36" style="edgeStyle=orthogonalEdgeStyle;rounded=0;orthogonalLoop=1;jettySize=auto;html=1;" edge="1" parent="auMP-Y1tO_uPRWlFtHE_-1" source="auMP-Y1tO_uPRWlFtHE_-4" target="auMP-Y1tO_uPRWlFtHE_-14">
          <mxGeometry relative="1" as="geometry">
            <mxPoint x="450" y="290" as="targetPoint" />
            <Array as="points">
              <mxPoint x="220" y="280" />
            </Array>
          </mxGeometry>
        </mxCell>
        <mxCell id="auMP-Y1tO_uPRWlFtHE_-37" style="edgeStyle=orthogonalEdgeStyle;rounded=0;orthogonalLoop=1;jettySize=auto;html=1;" edge="1" parent="auMP-Y1tO_uPRWlFtHE_-1" source="auMP-Y1tO_uPRWlFtHE_-14" target="auMP-Y1tO_uPRWlFtHE_-27">
          <mxGeometry relative="1" as="geometry" />
        </mxCell>
        <mxCell id="auMP-Y1tO_uPRWlFtHE_-38" style="edgeStyle=orthogonalEdgeStyle;rounded=0;orthogonalLoop=1;jettySize=auto;html=1;" edge="1" parent="auMP-Y1tO_uPRWlFtHE_-1" source="auMP-Y1tO_uPRWlFtHE_-8" target="auMP-Y1tO_uPRWlFtHE_-26">
          <mxGeometry relative="1" as="geometry">
            <mxPoint x="710" y="700" as="targetPoint" />
            <Array as="points">
              <mxPoint x="100" y="650" />
              <mxPoint x="710" y="650" />
            </Array>
          </mxGeometry>
        </mxCell>
        <mxCell id="auMP-Y1tO_uPRWlFtHE_-39" style="edgeStyle=orthogonalEdgeStyle;rounded=0;orthogonalLoop=1;jettySize=auto;html=1;entryX=0;entryY=0.5;entryDx=0;entryDy=0;" edge="1" parent="auMP-Y1tO_uPRWlFtHE_-1" source="auMP-Y1tO_uPRWlFtHE_-6" target="auMP-Y1tO_uPRWlFtHE_-15">
          <mxGeometry relative="1" as="geometry">
            <Array as="points">
              <mxPoint x="190" y="510" />
            </Array>
          </mxGeometry>
        </mxCell>
        <mxCell id="auMP-Y1tO_uPRWlFtHE_-40" style="edgeStyle=orthogonalEdgeStyle;rounded=0;orthogonalLoop=1;jettySize=auto;html=1;entryX=1;entryY=0.5;entryDx=0;entryDy=0;" edge="1" parent="auMP-Y1tO_uPRWlFtHE_-1" source="auMP-Y1tO_uPRWlFtHE_-15" target="auMP-Y1tO_uPRWlFtHE_-8">
          <mxGeometry relative="1" as="geometry">
            <Array as="points">
              <mxPoint x="450" y="600" />
            </Array>
          </mxGeometry>
        </mxCell>
        <mxCell id="auMP-Y1tO_uPRWlFtHE_-41" style="edgeStyle=orthogonalEdgeStyle;rounded=0;orthogonalLoop=1;jettySize=auto;html=1;entryX=0;entryY=0.5;entryDx=0;entryDy=0;" edge="1" parent="auMP-Y1tO_uPRWlFtHE_-1" source="auMP-Y1tO_uPRWlFtHE_-6" target="auMP-Y1tO_uPRWlFtHE_-26">
          <mxGeometry relative="1" as="geometry">
            <Array as="points">
              <mxPoint x="600" y="410" />
              <mxPoint x="600" y="535" />
            </Array>
          </mxGeometry>
        </mxCell>
        <mxCell id="auMP-Y1tO_uPRWlFtHE_-43" value=": Staff Login Page" style="shape=umlLifeline;perimeter=lifelinePerimeter;whiteSpace=wrap;html=1;container=0;dropTarget=0;collapsible=0;recursiveResize=0;outlineConnect=0;portConstraint=eastwest;newEdgeStyle={&quot;edgeStyle&quot;:&quot;elbowEdgeStyle&quot;,&quot;elbow&quot;:&quot;vertical&quot;,&quot;curved&quot;:0,&quot;rounded&quot;:0};" vertex="1" parent="1">
          <mxGeometry x="1170" y="130" width="100" height="300" as="geometry" />
        </mxCell>
        <mxCell id="auMP-Y1tO_uPRWlFtHE_-44" style="edgeStyle=orthogonalEdgeStyle;rounded=0;orthogonalLoop=1;jettySize=auto;html=1;endArrow=none;endFill=0;dashed=1;" edge="1" parent="1" source="auMP-Y1tO_uPRWlFtHE_-45">
          <mxGeometry relative="1" as="geometry">
            <mxPoint x="1005" y="430" as="targetPoint" />
          </mxGeometry>
        </mxCell>
        <mxCell id="auMP-Y1tO_uPRWlFtHE_-45" value="Actor" style="shape=umlActor;verticalLabelPosition=bottom;verticalAlign=top;html=1;outlineConnect=0;" vertex="1" parent="1">
          <mxGeometry x="990" y="120" width="30" height="60" as="geometry" />
        </mxCell>
        <mxCell id="auMP-Y1tO_uPRWlFtHE_-46" value="" style="endArrow=classic;html=1;rounded=0;endFill=1;" edge="1" parent="1" target="auMP-Y1tO_uPRWlFtHE_-43">
          <mxGeometry width="50" height="50" relative="1" as="geometry">
            <mxPoint x="1010" y="220" as="sourcePoint" />
            <mxPoint x="1140" y="220" as="targetPoint" />
          </mxGeometry>
        </mxCell>
        <mxCell id="auMP-Y1tO_uPRWlFtHE_-47" value="Insert email and password" style="edgeLabel;html=1;align=center;verticalAlign=middle;resizable=0;points=[];" connectable="0" vertex="1" parent="auMP-Y1tO_uPRWlFtHE_-46">
          <mxGeometry x="-0.3417" y="-1" relative="1" as="geometry">
            <mxPoint x="31" as="offset" />
          </mxGeometry>
        </mxCell>
        <mxCell id="auMP-Y1tO_uPRWlFtHE_-48" value="" style="endArrow=classic;html=1;rounded=0;endFill=1;" edge="1" parent="1">
          <mxGeometry width="50" height="50" relative="1" as="geometry">
            <mxPoint x="1009.54" y="240" as="sourcePoint" />
            <mxPoint x="1219.54" y="240" as="targetPoint" />
          </mxGeometry>
        </mxCell>
        <mxCell id="auMP-Y1tO_uPRWlFtHE_-49" value="Click Login button" style="edgeLabel;html=1;align=center;verticalAlign=middle;resizable=0;points=[];" connectable="0" vertex="1" parent="auMP-Y1tO_uPRWlFtHE_-48">
          <mxGeometry x="-0.3417" y="-1" relative="1" as="geometry">
            <mxPoint x="31" as="offset" />
          </mxGeometry>
        </mxCell>
        <mxCell id="auMP-Y1tO_uPRWlFtHE_-50" value=": Staff Login Page" style="shape=umlLifeline;perimeter=lifelinePerimeter;whiteSpace=wrap;html=1;container=0;dropTarget=0;collapsible=0;recursiveResize=0;outlineConnect=0;portConstraint=eastwest;newEdgeStyle={&quot;edgeStyle&quot;:&quot;elbowEdgeStyle&quot;,&quot;elbow&quot;:&quot;vertical&quot;,&quot;curved&quot;:0,&quot;rounded&quot;:0};" vertex="1" parent="1">
          <mxGeometry x="1340" y="120" width="100" height="300" as="geometry" />
        </mxCell>
        <mxCell id="auMP-Y1tO_uPRWlFtHE_-51" value="" style="shape=image;verticalLabelPosition=bottom;labelBackgroundColor=default;verticalAlign=top;aspect=fixed;imageAspect=0;image=data:image/png,iVBORw0KGgoAAAANSUhEUgAABCkAAAL9CAYAAAAGiTxkAAAAAXNSR0IArs4c6QAAAARnQU1BAACxjwv8YQUAAAAJcEhZcwAAFiUAABYlAUlSJPAAAP+lSURBVHhe7N0HYBTVFgbgf9N7r4ReQgepgoKgoKIoFlAQUFQQEQHpRUGKoAJKU5pSrdiwoqIgRXrvLUBI770nu8mbczNB9GEBkrCb/J9vX7Izs7uzC+zcOXPuOYaGDRsWgYiIiIiIiIjoJrPSfxIRERERERER3VQMUhARERERERGRWTA0atSI0z2IiIiIiIiI6KZjJgURERERERERmQUGKYiIiIiIiIjILDBIQURERERERERmgUEKIiIiIiIiIjILDFIQERERERERkVkwNGzYkN09iIiIiIiIiOimYwtSIiIiIiIiIjILzKQgIiIiIiIiIrNgqFev3j8GKWxsbPTfiIgqL6PRqP92dVZWVupGV1dYWKhuf4fHGiIiIiIShiKN/jsRERERERER0U3Dy35EREREREREZBYYpCAiIiIiIiIis8AgBRERERERERGZBQYpiIiIiIiIiMgsMEhBRERERERERGaBQQoiIiIiIiIiMgsMUhARERERERGRWWCQgoiIiIiIiIjMAoMURERERERERGQWGKQgIiIiIiIiIrPAIAURERERERERmQUGKYiIiIiIiIjILDBIQURERERERERmgUEKIiIiIiIiIjILDFIQERERERERkVlgkIKIiIiIiIiIzAKDFERERERERERkFhikICIiIiIiIiKzwCAFEREREREREZkFBimIiIiIiIiIyCwwSEFEREREREREZoFBCiIiIiIiIiIyCwxSEBEREREREZFZYJCCiIiIiIiIiMwCgxREREREREREZBYYpCAiIiIiIiIis8AgBRERERERERGZBQYpiIiIiIiIiMgsMEhBRERERERERGaBQQoiIiIiIiIiMgsMUhARERERERGRWWCQgoiIiIiIiIjMAoMURERERERERGQWGKQgIiIiIiIiIrPAIAURERERERERmQUGKYiIiIiIiIjILDBIQURERERERERmgUEKIiIiIiIiIjILhiKN/juZtSIUFeShKC8dhbkZgDFXX25BrKxh7V0bBms7fQEREREREZmXIhRmJqIwK0H71QJPFW3sYLBzhpWDu/pJlodBCnNWVIjC7BSYki4gP/IQjDHHYEw4B1PyJRTlpmon/Tban6C+rQUwOHjAe9CPKlBBRERERERmqNCEzB2LkLX1be18xKgvtBCFhTDYucDK1R82vvVhW7Wldmul/V4PVk7e6qIpmT8GKcyUKT0G2dvmI//SThhTLsHarRrs6nWCbZXmsHL00k743WCwddS3thBWNtoXRDAMNvb6AiIiIiIiMi9F2rlIHAozYtXvFsVUgMLcdBRmJcIYfxZ5535FoXYuZeVeRQUrnDuMgI1/Q31jMlcMUpiRIlM+jHFnkHv0C2QfWAtrV3/YVmsLhwb3Aw7OKoOiIGyvyqwwpUWjMFP74jAYijMqLICVgwe8VCZFLX0JERERERGZlUITsnYsQua2edrvFpJJUVSIImM+rN2CYLB1gm3VW7TzqDaw9tLOO7R1eWd+RkHEPu0cKhL2jR+GY4s+sA1sorIuyPwwSGEOtH84ppQwZO9fg9xj62HjVx/29btpfzpW2j+m/SiIPqptov2j86iuUpWsPWqodCWDmm/lAoO9hfzjsrLRvgyaal8cDvoCIiIiIiIyL0UwpUapE3qLqUlRaFTZE8KUFoXCjBgYEy/AlHRRXdS19q0Pu+q3qvOQ/PNbUBBzBHa1O8O5w3B1fiXnXWQ+GKQwA7mnNiDzl2naSbwdXO5+BYUp4cg58qn6R2Xf8EHYN35ABS6snLxgZe+mbce5VERERERERFdVaEJRfhYKs5NhTLqAvJDNyNm3FtaeQdr51QOwr9sZmdsWwBR/Bs6dx8KxzVMwWEh2emXAIMVNVJiThpwjnyFz0wz1j8WhWS/k7l+D/PC9sKvRHi5dX1HBCSIiIiIiIrp+hTmpyNz8OnJPfgdrtypw7jQGeWc3Iv/0Bjg0f0wFK6ycffSt6WZikOImKcxMQOamWSrdyLH9EO0fTQpyj34G26CWcGo3GHbV21hMrQkiIiIiIiJzV2QqgCnxPLL3rkCedh4mU+xlOnr23vdh7V4Vrg/MhrVrgJoiQjcPgxQ3QZExD6kf94cpPRqu3WZo/yhWwhh7Ai53TYBD4x4w2LvqWxIREREREVFpKirIQf6FbUj76kWVue7U7jlk714GOTV277kUNj519C3pZmCQopxJxkTaF0NgSjgL5y6TkLN/LQoz4+D20ALY1e6ob0VERERERERlqTA7Bakf91UZ7M53jETmrzPVlA+3RxbB2i1Q34rKG8uYlqOigmxkbV8EU3IonLu8jNyjX6rlHn0/gl2tDup3IiIiIiIiKntWTp5wf3wFrFwDkLnpDTjJNPzcNGRsmKT9TNe3ovLGIEU5Kog4iNxjX8L1vlnIOfgRinJS4P7IO7Dxb8h5T0REREREROXM2j0Ibve/DoO9CzK3zYVjqyeRH7odWdvn61tQeWOQopxIO9HUj/rCscUTyD29Aabki3C9/w1Yc74TERERERHRTWPl4gv3nktgsLJF3pmf4dR2EHL2rdZ+3wgUFepbUXlhkKIcFOZmIP2nybD2DQZsnVSbG9cH5sC2emt9CyIiIiIiIrpZrN2rwP2x92BKugCDvRscmjyErJ3vojA7Wd+CyguDFGWtqAh5pzegIGI/XO+dhtyTX8Opw3A4NOimreQUDyIiIiIiInNg698ITre9gKxtb8O2RnsU5WUg99h6fS2VFwYpypgUXMk79T0cmvVCQfRRGAw2cGj+GGDgR09ERERERGQ2rKzh0PQR2AQ0RM6Rz2Df6AFk/r4Qhdmp+gZUHnimXMbyQ3fAmBIGu5q3IWvrXDh3GAZr1wB9LREREREREZkLKwc3uHWfA2PcSVWPwmCwRvae91ibohwxSFHGcg58APvadyD35PewcvaDfb0u7ORBRERERERkpmwCm8ChySMwRh+DY6v+yN63EqaUcH0tlTUGKcqQKS0a+WG7YXD0Qv75TXB75B0YHNz0tURERERERGSOnFo/qabr21ZtCRSZkB+xX19DZY1BirJSVIjMjdNhIx09tL/U1h7VYFe9jb6SiIiIiIiIzJW1dx3Y1bkDeSG/waHJoygI24MiY56+lsoSgxRlpDArEfmXfodDg/thTAxRf7GlEAsRERERERGZN4OtA2yrtkF+yK9wbP4YCsL2oTAzXl9LZYlBijIic5YKc9Ng7VMHxqgjsG/UXV9DRERERERE5s0Au+ptUZiVhML8TMDaGqakUH0dlSUGKcqIMe40rBw81LQPK/cgWDl562uIiIiIiIjI3Nn4BcPGpy5yT3wHa8/qMCae09dQWWKQoiwUGmGMPw37Rj1QEHFA+4tdGwY7J30lERERERERmT0rG9gF3438C1th5eyD/LC9+goqSwxSlIHCvCwYE87Bvv7dKIg/o1qPGrS/4ERERERERGQ57Gp1QFF+hjqnk3M8KnuGIo3+O5USU2oEUtb0gnuflUj/4nk43joQTm2f1deah6JCE0yFRhQajSgqKtSXEhERERERlS+DwQpW1tawsrJVP82JKfE8kt6/D86dxiJry5vwe4V1KcoagxRlwBh/BsnvdYPX4J+RsvYxuD0wG/YN79fX3lwFedlIjr2IrNR45Gu/G/NzUVho0tcSERERERGVL4OVFWxt7WFj5whnD194+teEg5OHvvbmkq6NSe/cBpf7XkfGj5PgNylEX0NlhUGKMmCMPYnkVT3gPWQTkt+/D+591sKuxq362vJnLMhFdnoSkmJCkBwbiiITgxJERERERGSeDFbW8PCrBu/AenB294WtnaOkW+hry1eRqQAJcxvDtdsMZP4yA77jT+lrqKywJkUZK8zLUP/IbgaT9g8qNT4Moce34cLRzUiKOs8ABRERERERmTWZmp4SewkXj20tPo+JOQ+jMV9fW74M1rZQ4RFtnwy2bIZQHhikKGMGaztVCba8FeTlIOLMblw6+TvSEiJgKrg5/6iJiIiIiIiuR6GpAJkpcQg/rZ3XHN+G/Nwsfc1NUFSIooJs/Q6VJQYpyppB+4itbPU7ZU+KYGZnJCHk8EYkRp5TNSeIiIiIiIgslcmYrzLET+/9FmmJETen8L8USWDDgXLBIEUFIv9YU+PDVUpUdlqivpSIiIiIiMjyFeRmI+zkDjX9gx0KKy4GKSqQzJR4RJzdg7ysdH0JERERERFRxSFTPiLO7EV85BntHntAVEQMUlQQWemJOH/0F+TnZOpLiIiIiIiIKh5TQR5izh9CSkIY2Kyy4mGQogLIy05XRTJN+SyOSUREREREFZ/U3osOOYS8HGaRVzQMUli4QpMRsZeOIys1Xl9CRERERERU8eVkpiDs1C4UFpr0JVQRMEhh4bLSE5ASF8o0JyIiIiIiqly0c6DM5Ggkx5yXO8XLyOIxSGHBTKYCRIUcZJtRIiIiIiKqlORibUzoMeRkpupLyNIxSGHB0hIikJXGaR5ERERERFR5SfOAtMRIZpdXEAxSWCiTMR8xl46iqJD9gYmIiIiIqPIqKjQhLTECxoI8fQlZMgYpLFRmajwKstlulIiIiIiIKDM5FllpCfo9smQMUlio3KwUmIwF+j0iIiIiIqLKq6ioEOmJEfo9smQMUlggmeohmRTyD5GIiIiIiIiA9KRo/TeyZAxSWKCC/BxkJMfo94iIiIiIiCg3Ow15uZwSb+kYpLBA+blZLApDRERERER0paIipMRe1O+QpWKQwgIV5GWrf4BERERERET0h8zUOP03slQMUlggY16u/hsRERERERGVKMjLQWGhSb9HlohBCgtUWGjUfyMiIiIiIqLLJOOcWecWjUEKIiIiIiIiqhAKTUaYtBtZLgYpiIiIiIiIiMgsMEhBRERERERERGaBQQoiIiIiIiIiMgsMUhARERERERGRWWCQgoiIiIiIiIjMAoMURERERERERGQWGKQgIiIiIiIiIrPAIAURERERERERmQUGKYiIiIiIiIjILDBIQURERERERERmgUEKIiIiIiIiIjILDFIQERERERERkVlgkIKIiIiIiIiIzAKDFERERERERERkFhikICIiIiIiIiKzwCAFEREREREREZkFBimIiIiIiIiIyCwYijT671RKjLEnkbyqB7yHbELSsq7wHrod1h5B+tobF3PxCKJCDuj3qCLyCqyNgFrNYWVlrS+hyiwp9gJiLx5FUWGhvoSIiIiIrsbRxRPBbbrD1s5BX3LjEt4MhkvXKcjcPAu+E87oS6msMEhRBhikoBvlW60BqjVoD5MxnyemlZjBYICtvRPiI04h4sxe7e+CSV9DRFTMYGXNgDaVm6KiQhSajPo9IvPEIIXlY5CiDDBIQTeqJEiREnMepoI8fSlVNlY2tvCp2pBBCiL6W54BteBbtYFENfUlRGUnKy0Bsdo41GQs0JcQmR8GKSwfgxRlgEEKulElQYqkyNMMUlRiVjZ28KvRlEEKIvpb/jWboGpwWxSa5PuBQzoqO1bWNkhPikLosa0wcmxCZoxBCsvHIEUZYJCCbhSDFCQYpCCifyNBiqB6rZEae5HHCypTrr41kJedxiAFmT0GKSwfu3sQERERWTipYcQbb2V5QxFrZBFR+WCQgoiIiIiIiIjMAoMURERERERERGQWGKQgIiIiIiIiIrPAIEUZMNg5w676rTDYOGg/22o/7fQ1REREREREZEns6nWFtUdV2FZroy+hssQgRRmw9qgG917LYOXqr/1cDitnb30NERERERERWRK3h+bDrvYdcH90sb6EyhKDFGXByhoGBzfAYHX5JxEREREREVkeg439H+d4VOZ49kxEREREN0VObi6iomMRERmNpORUFBUV6WvKXmxcAiKjYpCVla0v+TOTyYSY2HhEavuXlZ2jLyUiorLGIAVRBZFfUIAIbbD1TzcZjOXl5avfo2Pi9EcSERGVPwlI/PTLVvR5Zhh69h+C12YvRHpGpr627I2cMB19nx2OTVt36Ev+LCU1DS+Onoz+A0dg2449+tIbl52dg4TEJKSlZ6CwHIMyRESWgkEKogriUngkevZ7/h9vjz81FCdOn1W/Dxo2Xn8kERFR+cvPL8CBw0dx4WKYyqTYe+BIuQYpYuPiVdA+8x8yKaJj49Q2WdlX3+Z6fPnNj+g38CXMmb8UmZlZ+lIiIirBIAVRBSFXpHJz8y7fJFNCBn3JKal/Wl6Qb1TLo8wwk+JSWAQ63/c4+g16SV9CREQVVYZ2gn7m3EV1/HJ1dVHTPuRmLry9vPDJqnfw89cf4t4unfSlNy4uPhHHT55BaHikCoQQEdGfMUhBVEFUr1oFK5fMvXzz9/NRyx/p0e3ysvfena0NBJ3VcnOUl1+AsyEXEXopXF9CREQVVUxcPE6ePgt3dzf06/0ICgoKsHz1J3+qS5GUlIK3Fr2HDRu3qNoQH332NRYuXYUtv+/+xzoRcvIfGhaBdV9+h/nvrsBnX32PMyEXtOWF+hZ/yMnJxW/bd+Hd5Wvw2fofVPaEyM3Lw2/bduGnX7TXjopRy2R6RlhEFL75YaPar2UrP8L+Q8fUtiUKCow4cPg43l/zKeYvXoEvvvkR4ZHR6v39uuV37N53UG136VIEFr/3AZJT09R9IiIqZtAOBJwMZ2FiLh5BVMgB/R5VRL7VGqBag/ZIijwNU8EfA59rcXvXR3FRO9mfOGYoXnrhWX0pVBBAshX8/Hywe9M3+GbDLzh05DjuvKM97unSCbY21vqWQII2OPz51604euwkfHy80OOBe9EouI6+9v+lpKXjW23gdubcBVhZWeH29q1x1x23w9HBXt8C6srRtz/8oq6WNdCe6767O6NKoD82/rYdn33xHX7SXs/VxRmPP/oAnnyiJ+rXq63SbL//abPaz+rVq+J+7TG1a1bXnxGYPW+pyhh5tEc35GgDxZ27D2BAv16oWiVA38IyWdnYwa9GU8RHnELEmb0oKuQVNyL6M/+aTRBUr7V2vDhz3ceLm2XOgmUqgHB/ty54WvvOHjB4lDrB37f1OwQG+KltSo5ZXe/qiIyMTBw9fgr5+fnw8vLEuJeeR/8+j8LKYFDbXunDdV9j6fsfIDY+QWURynGoinZMGDXsOTz64L1qG3ne0EsRaNQwWGUfJiYlw8HeHvXr18H6T95DWmoaHuozCAmJyXhzxkQ89nB3hEVGY/iYV3H6bIiaqmFjYwNPD3f07vUgJox6ATbW1nhTOyZ98fUPqu6E0WiCo6MDqgVVwaSxL+K3rTvxwadfqdcXBm3ff//1K9S54phmrjwC6iAvJwOhx7bCaGF/16hycXTxRHCb7rC1c9CXkKWxnqbRfycLkZkSi4zkaP0eVUTO7j5w96mGnPTE6z4xXfXBZ6roV4fb2qBdmxb6UiApOQVrPv4Ctra2qj6FDOKOnTiNH37erCqrS2DB2soaR7RlA18Yh8+++k4FHXbvO4Qvv94AJ2cnNGlUH9baQOxKx0+exWNPDsXX3/+MU6dDcOTYKXy34VeEXAxF5w7t1Pafa4O2QUPH4bdtO9VryhWq73/ahJo1quH8xTDtsRu1wWSuutKVnpmJ9re2Qpw2wBzw/Bh88tk36jG/79yrghxubq5o2KCetq9WmDxjLnbuOaiufr23+hOEXAjFfffcCX/f4mwSS2XQ/hycPfyRlZ6A9MQomdOjryEiKubi4Qc37yo3dLy4GSRwMHHqbKSmpePpfo+hWeMG2PDzb+p+I+27vXHDYLVdyTHrYmg4vL08cWvrFup4ItMDL4VHoVvXTnBzdVHbCrn2tmvvQUya+iYSE5NxS7PGaN+mJRwcHXDm7HntGLIf93e7SwUW5HnjE5KQm5ePW7XjZL26tVTA+7x2DDl9+hw6d2yvjltS6LLrnR1Qv25tDB/7Knbu3q8dBxugb++HERTojxOnzuKkdqtXpybitOcbM+k1GE0mtGvbEq1aNFOBinMhF9Uxd/KEEZCYigRb2ra+BUsXzEJwndr/d0w1Rw4uXjAZ85EadwmFDJqTGbO1c4R3ULD278pGX0KWhtM9iCqpNG0gGHL+Ep5/th+63d1ZDex+2bwNCdoAKz0jAwsXr8S58xdxZ6fbMGXiS3jmyce1k2YDlr3/oQooXKnAaMSGjb8hOiZWBTAmTxyBMSMGw8PdDdt37FVXpyTtdsG7Ky8P9ka88Cxub99GtXdb8v4H6NC+NV6bMkY9n5+fNxbOmaauaI2ZNFMbnIapgMXIoQPx2KMPqE4mU2e+rYIcJeTK2v4DR1VGyPPP9rf4AAURUUV2KSJKFa60t7dD08YNVACiSeP6at3Gzdu1k+A/T8uQ48l777yJd96ajjkzX4adnZ06NmRl/bnwpEzzkKC1BDuqVa2CxfNew8K507Bk/izc0aEd0tLT8dG69frWUMGBxx6+X3veGVj89mvo3+dhFcQ/fe6CalF6pcSkFBw4dAwODg54cfBT6P3ogxj63FNoWL+uKr557OQZrP/uJ5UdcU+XO7Tnm4l35k7H9JdHoeNtbdW0TNk/b09P9XzOzk6oW7um9l5s1X0iIirGIAVRJSWDMLmC8/K4YZj3xqvw9vZUA7Kc3Dykp2fg2Ikzqn7F/DdfxcABffDqhJdUcCEqJha/79qnP0sxyXyoXbsGnnu2rzZ4fAWDBjyhBm4ypUTSYeUq0pbtuxCuDUpbt2quBoMTRg1RA0K5yiRzeeWqVpOGxQNUCU60aNZYXc2KjI6Bv5+vSrUdrz1mxiujcW/XTsjOycWX32xQ25fo8cDdeHP6RAwZ2A9+vt76UiIiMjcSKJBsCjlJl6yD6Lh4BFUJUEEDyZq7eClC37KYv78PalQLUlMJfb29tGOYjQpk/DXBTI5HKSmp6rjTpHEDVAnwV0GDQH9ftGvTUj1epgSWcHZyVBkPTo4OKmAiWRwyPUPqR0ig40rSeUSmnMg6yeCTTllPPjdSTUmR4ENqahoOHzkBWxsbtNaObd5eHuq1JftDjncLZk9FcN1a+rMREdHfYZCCqJLy8HBDY20wJvNnPbXfHR0cLhcrk0BFTGwc0tMz0bzdvahStzVqNr4N33y/Ua0/fSZE/SzhoA3sutxxG9q2bI7vfvwFvfoPQeuO3f9UAPPI0VPq5223tlJXxGSgKMU9f/hiFTZ+/aG6wvRXkmUhg9j69eoguE4tNdiTx7Zs3kS/ivbH89vYWKtUXFlPRETmSzISNm/doX4/efocHn3iOdx1X2+sXLtOnezLFI89+w9dPiYJK8O1D1n/Wqni/ytXFNeEkONRCfldW1TsLw+Q2heyvdRNkiBE+7Yt1a37vXepOkq3NG+s9r9k28vkV3VXe7z8ICKif8QgBRH9Hysrg8q0CPD3VdM2/nq756479C2LSSbE8tUfY9joKfhl83ZVY2L4kKfRqkVzfQsgT698XjKAKyF1MFRxsb8sFzIYFDL3VSqqC/n/4jTgIjX9hIiILIvUZkhLz1QBAV8fb1QNCiy+VQlQGRJ5efm4cDFMZSxcK2trK3h6uqvA9fFTZxAdG6+CHTFxCSrwIceP29u30reG6hBy+NhJNY3QaDTiXEgocnLyYKcdA708PPStirm6ucBNu8nzDXy6j5qWOHfWK+jS6XZVX6JBvTqoU7ummgJ59vxFZOfkqG33HzyKYWOmYPSkGbgY9ucMESIi+n8MUhDR/7G3t4e/n7fqqiFt4caOGKxuDerXVXNoAwOLq66XiI1NwKeff4vCokIsmjsds6aMxXNPP/GngERNvXL5qTPn1U+RkZWNpwaPwtDRkxEfn6gv/YNM85CpH9KlRG4iW3vMkeOnVAV4Sf0lIiLLIllwUkvCx9tLHTPWf7xc3b7Ubq1bNleBhKMnTiM948/1Jv4LmS5yW7vWqq1pRES0Cg6MnDAdL45+Bdt27IG7mxv69+mpbw0VmFj3xbd4debbmDnnXaz95Cvt+JKPtm1aXG7lXULqZnS6XepaZGDy9LmYvWAZpr8xH5Omzcbrc99VgYkH7uuiAhNSOPoVbRtpUzrjzYXYvnMfUlLTERT4R9cp6XK1VdsnmRZJRER/YJCCiP6Pu5srmjdtpA2csjHoxfH4dsMvqp3b2EmvYcHilf83oDIVmpCTm4tCU6GquH7izDksWLIKBw4d1bcAunW9Q03F2LJ9J95+53189+OvePaFsaqtqHQTcdDblEr2hLzu3gNHUKd2DXV1LTIqFhNffVPtw6y3F+OHnzap7R/tcZ96DBERWYasrGwc1L738/MLULNGVdzWrpUqcCk3CTyPGjZIHQfk2BAeGaU/6r+Tx3Zo11q1A5VsQOmi8cXXG7Sfp1Fde/6ZU8ehdo1q+tZ/FK+UY9L7qz9GUlIyWjRvqjIkJBvjSjI9ctK4YaoTSFhElCowvfbjr1Ck/dftnjvR/d4ueLBbV/TofjdsbG1UG1JpsSoFPqU46OyZk9RUkfr1a8PV1QUh50Px4qjJiEtM0l+BiIgEW5BaILYgrfjKowWpDMxeGNhfXwq8v+ZTVTDz6f6PITDQX6XgShcP6fAhbeE2b9mhDapcMfCp3njo/rtVSm4JqQ8hr3Um5AJ+/e13tW1KWjpq1ayOsPBIVZTstratZPSoBmVbtu/GT79uQVx8omozN3zIM2gQXEcFOn7RHi8FPHfuOYC77rgNHW+/VbUxPX06BD/9sgWnzpxTA89hQ55Gr4e7qxak8n7k9e/Qtm3Voqm+V5aPLUiJ6N9YWgtSmR6YkpKGFs2bqK4atfUsuxIlUz4ko6Je3ZoI8PWFo5Ojqmd0S7NGahuZ6GevHXckWHC7ttxJW/9XTbRjy113dtCOLXXRvElDPPzgvRj8zBNq+ytrUMgx48m+PdXzy7bSnvTFwQPg7emhAirrvvzucleqxg2CVbvTzh3bqZap0tWj8x3tMaBfL/Tv/YgqwimZHF06365an0pr0fa3tkTvng/iheeeQq0a1dS+y5RIaVcqRTrl+Czdq6QulLljC1KyFGxBavkMRZKTRhYl5uIRRIX8UZmaKh7fag1QrUF7JEWehqmguJbDtZKWoFKFvJk2OJOBUAlJU5WTfale/lD3e/SlwPc/bVIDsvvuuVNlUshXQ0xcPM6dD1VtSeWKkgyspDjl1QaEEvyQK1XSbtRLG9w11F5TWr0d05b5+/vizo7t1fxceb6w8ChVo8JT265+vdpqUCqDRpl/LF1FpF2pzCtu37aVemx0dGzxfiQlwdXFRQ306tSqrupmCHk/GZlZKvtDnq+isLKxg1+NpoiPOIWIM3st4gSEiMqXf80mCKrXWjtenLnu4wVdXVhkNB7r97yapiGZFQ8/8McxszLyCKiDvJwMhB7bCiP/rpEZc3TxRHCb7rC1M//gH10dgxQWiEGKiq80ghRk+RikIKJ/wyBF2ZBMv4HDxuPQ4eNq2uHa5fNU5kRlxiAFWQoGKSwfa1IQEREREV1BruE52NmhSaP6eLpfLzU9g4iIygeDFEREREREV/Dx8cI7b83AB+/Nx8ABfWBjw7ntRETlhUEKIiIiIqIrSCePwAA/VahZinQSEVH5YZCCiIiIiEqVdGhauuIjJCWn6kvKzqXwSNUe+61F7+lLro8UkJbn2L5zLzKzsvHRuvXq/qkzIfoWZcNkMmHr73tUe+7VH36uXl9+j4lL0LcgIqpcGKQgqkCko8eoCTPw0Wdf60sqBmmPKu/r51+36kvMw+x5SzH25ZnYtmOvvuT/yTbjJs9SA3YiosogNz8fL0+fg4OHj6nOUGUtLCwC8xevwNulEKSQ59i+ax+ysrLw4bqv1f2yD1IUqiDFvHfexwfrvkJObh5WaMe991Z9rG9BRFS5MEhBVIEcP3Ea6776Dnv2H9aX/LtcbTC0fddebNq6AzGx8frSm+d8aBg2bt6G3fsOwWg0qmXbd+5T7+v4qbPqvrn46dct+PzrH3Du/AV1Pyo6Vu37/kPH1H0h23zx9Qacv3hJX0JEVHEZTSa8tfA9hEdE4bZ2reHq4qyvsSz29vZo37Yl7unaCYGB/vrSsmfQ/rvt1lYIrlcb3/ywEcdOnkGR9h8RUWXCIAVRBXJLs8bo3+cR3N6+tb7k3yWnpGLy9LkYOX469h08oi+9eX74aROGjHgZb7y9WF1NEnfe0V69r+ZNG6n75uKB+7qi7+MPo4Helk6yJWTfFyxZqe4TEVU2MvXiuw2/wM/XB506toOVlRUio2IQGR2jguIlkpNTEaEtT0vPUPdzcnLV/dS0dBQYjYhPSEJ0bByysrL/7xQ9KzsHsXHxiNFuObm5+tI/k+XxCYnqtROTUtSUihKxcQnqteQ1MzKzVLvRK9cLFxdnDHyqNyaPG45mjeqrZfK4yOhYtU/y/BLYl8fK/l6psLAQyalpalvZJjsnR1/zB3nf0TFxah8LjAX60mIuzk64/5471brP1/+A/Lw/ryciqugYpCCqQLre2QGvTRmLXg/dry/5d9JmLS8vH7l5eSrl9GYzGk1qX/Lz82Xn1DIJUMj7uuuO29R9czF8yNOY9vIotG/bSt2Xz0/2vUD2nYioEjpy7CSSk1PQtEkD1KpRTS177MkX0HvAizh49Li6L+YvWYGe/Z7Huq++V5kCe/YfUvfXfPwllq36GE88MwyPa48bOXHGnzLRzp0PxShtmTxfH+02csIMJKWm6WuLnQm5gNGTXtOeYzh69h+C/oNGYOHS1ZeDCSMnTlev9cW3P2LQsPEYMX4qEhKT1boSqdpzTn7tLfQbOAI7du9Xy0ZOmI6+2n6t/34jXp05T9uHoejz9DCMfWXW5WCJUTsOLF7xAQYMHoVe2ms/ru2j7EtUTJxaL7Zs341nXhiLx58air7PjsCb85f9KZBhMBjweM8HYWVljSPHTyEtoziQQ0RUWTBIQVSBvLVwOWo1vl0N4NT9Re8hsG5r9Og9EJ98+R06398btZpo67UB0/mLYbh4KRzdez2N8MhodWXoxdGTsfj9D9RVoNNnz2PC1DfRssP9qNGoPR54/Bn8sPE3dQXrq29/Us/bb9BLWLhsNVrf8QBmzlmEggIjDh09iaFjpqBh6y6oWr8t7uzeB8tXf6KuKgm5yjZ7wXLceudDqFKvDe7rOQArP/gMKdr6eYtXXp5TfPT4afVY2beBQ8er9yVzjuWq1F3acnn9r777GcPGTUXNxrfhnof64+sfNiJPDxDk5uVj05Yd6NFnkFrf7dGn8Kk2GH5m6Dj12KUrPlTblfj6h19Qr3kn9V4uaJ+LeGn8NLXtsy+OU/flyp58hvJ5vLfmU9zTox+Cb+mk5g4/qz3v6EnFn/vvu/ajVcfuaqAsJNYSGhaBMdpAtp62/e1dH1V1Q/ILeHWMiCoO+U47cuyUOk5IZp+VdrItIrTv8YjIP2dSSEFNWZ6Wlq59SUI7Sc9V93/etBVLlq8tzjTQvu83/LwZy1d9rIIAskwKSkrGnWRCyOvs3L0f47TvVglwi8TkFMya+y6+//FXpKZlwNHBQTvWRWD+uyvUMUT2MVZ7XnmtuQuW4eSpc5enFl5JMitUxoW2nbyOkOwN+S5/4+13sVHbz6ysHHUc/Vw7tqz+6At17Fy26iO8MXcxQs6HwtHRQWVryP5KUCItIxOntGPr+CmvY8++Q9pnkKLe05frf1AZE3LRoISnuxuaNq6Ps+fOq6wTIqLKhEEKokrg3PmLqiBXZmaW6vX+2ZffYfqbC+Hm6oJud98JF2dntfz2dq3RqEGwGphNnPomPv3sG9jb26FunVo4fea8KhIpc2RL0mKPHj+FldoJunDXBlTxiUl4adxUfKed8Pt4e6Fxw/qIiYnDjDcWYMXadWqwN0Z7joXaQDFdG5gFVQnAeW0g99rsRWrg2ahhPTRr0lA9n7eXBx64r4tKe/07C5esxI6de+Hu5oYTp86qaSuHj55UqcFbtu9SV70OHjoGVxcXxMcnYtqseer+1bRr0wK+vt5Il0HkmRD1HuWKnTgXclH9jEtIRLo26PX0cMetrW9RV7uE/LyjQzu0a9tS3ff398UjPbrBQ/tMhAyAv1i/AVu27VTvRwIvk2e8hZ/MrBAoEdGNkGNMyfdmzWpB6ue1kqDB9MljsG7NYjz7VG914r5j134kJaXg0NET+Gnjb+q4JNMwPlu7BMsXvYmG9euqAIHYsfsAtmrf//Xr1cGH78/HJ6sWYeqkUdqaIm35HqSmpqvthJenh/b4N7Bo7nT4+HjpS/+ZBEMkQ+Sdt1/Dx9pzd7u7kzoG/KjtlwThP173tfqeHzdqCD5ZuQjvv/Mmbm3TEqdOn1XbfPbV96p+UbWgQLz9xhR8+dEyzHx1HPz9fP4UpBC1a9bQPtNsVZeCiKgyYZCCqDLQxj0jhjyNLz9cpgZ/Mkf4d+3k3tvLE88/21c76XZTfeAfe6Q7Ot7WRp08S1X2Lnd2wMfaIGvt8nmYMnGkuuIl6+REXmRn52D08OfwuTZQfLLPo9h/6CguhIahdctm2sDvdfW4FwcPgJ2dLX7ZtA0/yvMeOgZfbTA4b/ar+EobnE2e8BLy8vKw/rufcUuThpendFSpEoBhg59WAYG/U1MbKMogUW4BAX6qvoYU15T9+ll7Pbkv+yLv4bO1i/H8wP5ITftzWnAJ2aeaNaqqiu6nz4QgP78ACYlJcHJyLL7ap71nuWKWoa2X123UoJ7+SO2L1MqAvo/1wCMP3Kvu16lVHeNGPK/mZAsZPEsRtBWL56h9vafLHdrz52Hl2s/UeiKiikC+e6VgppDA9fWoV6cmeva4D3Vr10CXTrepAIA8rxTkPHvugpqy0bhBMJ7s21N9197erhVeGPQkbG1t1eMls0ICCZLB8P7qTzF3wXLs2XcQNtY2KrshI7P4+CV6PXy/Cs4HBQZo6/9bFxJrbbt7u3bCHbe1RYPgOmjTqjlsbWxUgEYC94nacUP29fed+zBn/jKs/eRLFZQvLCzCJ59/g6ioGBWM6Hj7rep5alQLQvd778Jd2nuVY8mVArXjmpAsPiKiyoRBCqJKoGrVQPS4/251En77ra3UCbkEBmTwZ6cN7FRGgPY/GeTJQE0CEVJfQaqyHzh0DLv2HIC9rQ1cXJxw+MgJVdhMVNcGV3LCXVsbKErWQEdt0Pb9l6sxcfRQdfXnwJFjKmhQUFCgppNEREapVFvJ1ri3Syf1+EcfvBdzZr6CYYMHwMnRAdZ6uzpJE7a30/ftb8h7ksFqk4bBuEUvqin1IGQu8YFDR7V7RWrw2qxJA23gWwtP9HwQwXVrq+3+ytrKCo3q11MDSVXsLC5BpeE2a9xQDUqlzajMi5bBctPGDdSg9EryOZYMkuW55EpfSaqzbHvf3Z3RsnkTNKhXR+2PtZW1NnD944oeEZGlk4CsqiekKfn+u1YSGLa2Lh6eyvfklSTwIKpU8f/Td7BkITho37lCggUiJS0NO/ceULe9B46oTDlPT/c/HVMkm/BayeMlqF/yPPJ9r91Rv8u0EAlQyDHv+Mkz6rV37T2ojiVVgwLVlMiSaX5B2ntQj9VIm1YfL091AeFKttpxV0jwn4ioMmGQgqgSkIHQP53s/5XM1xW/bduFuQuXq9u8d1fAw90dzs5Ol1NSJaVVrk6VKDQV4sNPvlK1HIaPm4rZ85aqqSYGg5UavGZn5ajHSrCkZADrqg0Sn+zzCIY+96Q2YHRVy/4rO30A91cyCJSUXnldCciUkIyOv8vMkM+nc6f26vfY2Dj8uuV3bdBrj273dFb79c0PP+PSpUj1PqQt3bWw0gbcErQgIqrI5CRbvjfFX6cuSNC4pDizfI9KdsG1kuOFkPoWJSf7IiUlTWW/CQlYiAe6dVFTKeT2xYdLsXTBLLy36E1UKcN2ojJN0c7OTvvphQWzp11+fckqlNd/Y9p4ODgUfz7hEdGXp07K5yKBDAmSXylPf081ql/f1BkiIkvFIAUR/Z9qVauok/YhA/tj/cfL/3STKRoyl/ZqPly3Hl98vQENG9TD27Mm44P35qsWbnKCLs9nY2ujfkrNixKSeitFJJeu/OjyNJIbJVkNnp4eapB8ZcV2SRP+p9doc0szFcSIio7Ddxt+VVf0pGOKZJAcOnwcJ06fVdtJD3siIvoz+c6UDDmRdkWmWI2a1dQUDMnSk2wDqRtx/GTx9+m1kHbPcgw5fTYE32rf0abCQoSGR6oi0SVFk0tqA0n2m6yX41XIhUuYNHU23n1vLTJK6ThzNc2aNFJZhRKAOX7qDAL9feHk6Ij3Vn+iXl+KZgb6F0/hkAyLw8dOqePU7gOHtc9miwreXCkhqXiah7+fr/pJRFRZMEhBRIoMlLKys1ULzR7d71Hptr9t36W6ZMg0hpPnzuPJwSMxe/5S1Vf+aqSCuWRISE/5ls0bq6yLkPOXkJebpwpzBmgDLZlOIkUuD2gn/XHxCfjup82qMrt0yLhygCYDWnmdvw7a/gsPD3dVi0JIFw8pOiYV2X/WBshXtrL7Kwmm9HjgHlUg89jxU2qwXadmdTTR3k9yShouac/R7Z47LxfE/DsyWJZ9/2vffSKiiky+82X6nwQSwiKi9aXA4Gf6qqkL6774FnWbdcRT2rGkZGrftWiqfRfLd7QcH0ZNmI7bujyMrg88gcioGDUtT0hR4253d0Z0dCw63fsY2mvbPPvCWJwNuaiKNbu4OKvtykJQoD8G9HsM0lJ11px30OGenuh8/+Oqc4dMVbn3rjvQ8+H7VY0iqd0hbVQ7dnsMTw8ejbT0TPW5Xen8hUsq8NOmRfHxjIiosmCQgqiSk4GdBCFyc3NVC7VNW3fizjvaaSf5zbF3/2H0H/QSBjw/GiPHTtUGgrGqnoTUqriaW9u0QGFRET7TBmTSHWTEuKnYsHGz1O1UUx7u6nw76tapieiYOAwd9bI2UB2NGa8vUAPbp/r2gpubq3puCWiEhUfizXlLVfHLayVXrh7odpeagyw1NfoPHKH69L/+1mJ9i7/Xvk1LVa9D5hVLQTTRILiummMsNylw9ndkOomkO584dQ7T3piv2ucREVUWUqtBau/Id/D+g0fV8UA8dP/deO6ZvurkXL5Pn3u6L558oqeq0+Cufe9LUSRp1yn3/bTv7RISOJZlMkVDjguy7djhz6FPrwdRu2Z1/bu+KyZPGKEKbcq2EkQeP3IIBmmv17hhMGQXbmnWCCNffFbVKHJwcECAv6/a1tnpz92jpJi0eg7tdeTYKFNH5L4ECoQE2qsGBfzpGCjdsapWCVDrxIC+PfHqxJG4s9NtqqaGt6cnHu/5ABbOnQ5vb08VaJn16jhVz8nfzxuu2vHvmScfR7/HH1ZFNEueR1qpSqFQCZK7u1/bVEgiIkvHIAVRJSct2HprAz5vby/V1UKCA34+3pg1dTyGaAM6yQaQ1Nra2gBw1qvj0ffxh1RQ42pGD3sO/Z54VM2t3fL7btQProOhzz0FV1dnFWyQ4pnvvDUDT/R+GNnZuTh24jQaNwrG61MnqGkhkoUhQYBuXTup+ca79h5QvfOvlVyMkiKeC2ZPVa1BJb1YBrOjtMGttKr7JzL3VwaxckVLBpMiuF4t9dPFxQXBdYp/v5oW2uC8w21t1Nzordt3q8wUIqLK5JbmjVWBypOnzyH0UoRaJoGDscMH49NV76iWoKOHD8JA7cRcphD26dVDfWdLG2i5/8a0ieoxQgIaMsVw5ZK52sl7ca2JurVrYvoro/Hpmne153oHr08bj0d7dMNHKxepx8t3t3zPTxozFGuWv61qQqxcPFd1i5LnkFwFOTbItnKsuZLsoyzv3+dRNfVv7syX1f1O2nFELJgzFZ9/sBQP3t9V3RdSFHnd2sVqnXB2csSAvr3wrnas+/yDJfh09TuYOWUsWjRrpPZNbh3at8GiOdPVc61ZNg8TRg3ByBcHqvvz3nxVPY+0KpVCzVLQ2U079hARVSaGov+vbERmLubiEUSFHNDvUUXkW60BqjVoj6TI0zAV5OlL6b+SwIp06JD6E57a4FiuhAnp2DFw6DgcPnoCc2e9gv69H1HLzZWVjR38ajRFfMQpRJzZi6JCTh8hoj/zr9kEQfVaa8eLM2ZxvJDsiVemz8W6L7/Fy2OHFQeg/9K1gv6ZTBfsP/AlhEdGYfG8mWZTB8kjoA7ycjIQemwrjBybkBlzdPFEcJvusLVz0JeQpeFRg4gqHCmQ+cGn6/HkoJcwbOyr+PLbn/Djr1uxbMVHOBdyQV3Va9fm2jp0EBHRv5OMuAmjX0CdWjVUccjSKohcWci1w4OHj+HipTA8/GA33Nq6hb6GiKjyYJCCiCoce2kd2rUTbO1sse/AEUyc8oYqsrbyg3VwdHTEa6+OVfOZiYio9ElNh7ffmIJHHrxXtcCm/07ym6U2xuQJL2HooCdVEWsiosqG0z0sEKd7VHyc7lE6snNz8c33G3H85Bk1BUTmKXfp3AHVq1bRtzBvnO5BRP/G3KZ7UMXF6R5kKTjdw/IxPEtEFZaTgwP6PvYQ3pg2AXNeexnP9H/cYgIURERERESVEYMURERERER/4+dft2LUhBn48NOv9CXl58Sps3h52hxMnTUPYRFR+lIiooqNQQqiCu74ybP4fP0P+H3XPtUak4iIiK4uMioGv275Hdt27lUtQIUECtZ99R127Tuk7peljZu3qddPTE5R96OiY7H+u5/wzQ+/IElfRkRU0TFIQVSBpKWl46N16y/3VxcbNm7GS+OnYfmqjy8vsxTHTpxW72frjj36EiIiorIjAf0RY6fi5WmzEZeQqJY1a9II/fs8gg63tVX3y9KQES9j2JhXcfpMiL6EiKjyYZCCqAKJS0jClJlv47U5iypE27fftu9S7+eTz7/RlxAREZUdKbKcm5eHvLx81Q5U3NXpNrw2ZSwef7i7ul+W5LVzc/NQWFioLyEiqnwYpCCqIHJychETG6cGN/J7tPZ7Vla2vraYsdCE+IQkRMdo6/6SVSGDMQlsSGpppHbLyMy8PEC7GlmXmZWFKO25JD02ITEJefn5al1GZpZaJq9Tsky2T0vPQIS2PCYuHiZ9ACavKdvJ9olJycgvKJ6SImmtycmp6v2kZ2Ro+52oDR6LH1NQYNTWpyIiMhqxcQmXX0OkpqWr5ckpqSgwGtV6eb2SAae8L3l/sp6DQCKiPwuPiEKrjt0RWLc1Plv/Ax7pOxgP930ORu3k/ejxUxg16TU0vfUe1Gp8O3o9+QJ++e135OTmqsfKY5q374Yff9mCQcMmoG6zO9Cjz0Btm+2Xt1mweKXabuZb72Lm3HfQsHUX/L57v/ruXvHBOtzXcwCq1GuDNp0exIKlq1U2gxyK5Dt7yYoPcfvdPREU3BZN292DYWNfxZ4DR9TzCtl2/uIV6KBtI8/R6b7H1XOmpKap9W8tek+99izttee9u1I9R+O2XfHWO++rY9FHn32NcZNfV8cdORbe+/CTOHDomLbPK9T7HTF+qtrPp54bpZ5nzadfYdL0OajdpIPar7Xa/ZL3adSOP7v3HULvp19E7aYd0Pn+3lj10Rd4cfQU9dghL01S25U4cfocWtx+v/o9Xzum9Xl6GIZq25aQ59u+cx8e7fc8qjdsj/7PjcR+bd9KjtJZOTlY/93P6s9L1jdpezdenfk2QsMj9S2IiCyH9TSN/jtZiMwU7QQyOVq/RxWRs7sP3H2qISddG5z9x7aTO/cewOgJM1TgwGQ0qcFRlUB/JCQmY+/+w/Dx8kJsfALeXb4G6778Tg2I6tWtBS9PD3XyvnnbTrz9zntYqg0Cv/h6Aw4fPQlXFxfUrF4VBoNBf5ViMig6fuos5ixYjsXL1+JT7fk2bdmBkAthqFWzGs6FXMSoiTOw/vuNqFu7JmpUD1IDrBVr16lB0+GjJ3D3XR2xbcdevK0NGt9b/Ynapy2/71LBFXnMgiWr8KW2HxJckMDKxUsR6HhbW/U8az/+Au9o7+P91Z9iw8bfEBoWgdo1q8PdzQ0r1nyKV2bMxSVtoC0D6vnvrsBX3/yIJG2AG1QlALPmvotF2nPv0AbFDg722uOqwdrauviNmRmDlTWcPfyRlZ6A9MSo4gb6RERXcPHwg5t3lWs6XvwTCSbLlEEJNp/UjhOJiUnqO7nVLU0xYtxU7UR5D/x8feDj7YnTZ87jt2271PdvsHY8eVs72Tdp+7Bj137ExMbD1tYGF0PDtO/23dpz1EK9OjXV8WjnngPa8ybjwOFjcHJwxIP3360CBHJ8kiC7HJsyMrKwecvvOHf+Etq3bamee/mKj+Dh7oa2rW+BvZ2dmprxm3bsurPTbeq4NPblmepYYmNjizq1ayBW2wdZL8FvOX7IcXH33oMqaHFQe2357pegw74DR+Dl5YGGDerhknY8keC2k6Mj7r/3LnTpfDtOnQlRj21Qvy66du6An37Zqh2TwhETE4djJ87A0dFBBdvluRvWr6fe5y7t95ETpmuf4Vl1LJWg+Jbtu1QQXd5jg+A6eOC+rsUfusZoMqrj3f6DR2FlZaWyN+S1nbTnlsKdmdqfx6mzIeqntbZepoPIVMiHut8NZydHNaVz+hsL1XuT15cLATt278Oxk6dxX9c71fHuRjm4eGnji3ykxl3S3g9bYpP5srVzhHdQsPZv3EZfQpaGmRREFYS/vx86dmynfre2sUHnju1R7Yp2mye0gdIybYB36MgJnA25qAIAE199Qw1IN23didGTZmLDz78hWxs85eTm4IefNmHUxOnYvf//C4XJwO/54RPx7fcbtcGqtzawq6sGXivXforxU15HjepVVSTjzNnz2HvgsBos5eTmaYOlMwgLj0TzZo0Qog08p70+TxUI8/B0Q31t8HfoyEm8s7Q4+NDilibaQLW2ej1/P1/c1q417O3t8O57a9XVMBkEG6wMCI+IxqoP1mGMNjiNjYu/nEnx48bfsPT9D3Fce00ZYEow5cXRk7H+25/U4HKbNriTgEVsfPGcYyIi+jP5Dv5k9bt4fep4fPPDRlVAsufD3fHxyoVYu3w+Rrz4rMpw2LBxCzL1zD3JQpBjwqdr3sUnq95BuzYtkZqarh1fNl/eRiRI1sObr+KLj5bCVjtmrfnwc3h6eODdt17D2mVv4523Z8Db20sFMiSovGffIXUMGDbkaSyY/SoWv/0aHn/0Abi6umDb73tw6PBx7NNO8H20xyxdOEt7jnlYOHeaCsSv/uBzXAgN11+5OBDz1uuT8cWHS/HsgD4oKCjAgndXok2LpuqkX/bH3d0VQwf1/8e21RLkWLVkLj7/YClat2ymAgi/bN6upmxIAF2yMRrWD8YH78/Hl9prjXlpMLKy/5zhWCJAO4aPe+l59buN9voD+vXCY1dML7HSXqt3zwe111qCedrn5unhroIkp06fU0H8Tz7/FnZ2tpg8fgTWaO99xeLZaH9ra+w/cBSbtu3Qn4WIyDIwSEFUQTSsVxtDB/ZXv9vb22LY8wPQolljdV/Y29tj7qzJuHhiB0YNG6QGQaHawEZO2Jet+FBdLevTqwd2/PIVtv/8BR5+8F6VwbB0xUeXp2CUkKtrl8Ij0axZI8x9/RWsfHcOli54HW1bt4BB+08Garc0b6SuHElARKadSPBACmHKgHLQgCdUNkVkVCzatW2Jj95fiNXaQO+bz1agWZOGOHPuPHr1uA+dOtyqXq9BcG082/8xJKem4Z2lq9XVuQ/eX4A9v32LdWsXIzDAXz33/kNH1fZCBnA/f/0hDu38SV2FkykhcnVsw1dr8NM3H8BTG7hKwOTU2fP6I4iI6EoDnngUjRvUg7+fj8qwEy5OjirzYPe+g3BycFAnxrv2HLjcecLZyQkzXhmNhsF10LhhsDrZlmy9I8dPquLOJZpq3/X33HUHatWoprIN5DvayclBOyaFqSy7aO0E39fHSx1PQsPCVSaAZHdIJtzqj7/E6XMXMPCpPvhp/Vo89/QTuKhtk5WVBRcXZ4SHR6lAdERkDNzdXFXQYNfeA/orAy2bN8GdHdurDJBOt7VVx5SU1FQVdJAAhXYYUxmEdnZ2Kqvh79zV+Xa0vKUJ6taugdYtmqllUqA6MzNbHfvkfT94fxeVhVJLe63HH+qO29u1Vtv9lZX2ehKEKWFna6v2q4Sbduy8+86OqFOrBm5p2gjVqgaq5ZJ9IYEK+fwlwyIlJRXbd+7FqTPn4enuJm8F33y/UW1LRGQpGKQg86UdsG3s7LWbQ6W62do7wNrGVv8QSo8MNO++83Y4aoPKpo0bqPRUCSKkaif+Uk9CBmLx2k+Z7rF81SfFKaXWVmqg+NeuIE7aIFUGcJJuOuW1tzF/8UpVM+LViSOwaO501K1TE/fde5fa9vzFS+rqmQzY5KpS21a3wF0bbDk7O8HGxhpHjp3C6EkzsGjZaiQkJOH1qePw9ut/zMO90qlTZ9VPW+3z2bFrn8qokHRgGUhK+qzUmihRp1Z1VAnwg5eHu0rhlf2VAW8TbdB8S5NGaK4N8kSeNng1d1ZWNrC9yt8V3njjjTcrazle/HlKXmlxcnLSf4M64ZeT7m83/Iq5C5er2/trPtW+V71VAKGkxo+Li5N2cv3HMUymhsj3b3Z2ripKWUKmi5RISSmuGSHHiCXvfXj5+SUDI9DfVztmuGHggD6oV6eWqjE0++0leH7EJPR9djimv7FAZUZkZeXAaDSpaRclj1/y/gcqsFE1KPBPLbhLY+qDcLgiqHAlk8moAiYi0N9P/RQ2tjYqUH895BgtAaGrkfdvLDCqmkurP/pcvfe3tNvBI8cRGOivpkmWFpmGeLW/h7xZ1s2K0yDIzBm0Aw4nOVuYmItHEBXyxxWBisqgHZBd3H0q5Repu091+FZrhMTIUzAV/PeTaAkEdL7vcTVI3L7xSzU4enPeEixcskrNbZU0Wg8PN1XEbMS4aXDUBmqzZ0zClNfeQnjk1eucyFWu779YBW+vPwaUEhB4+933Vf0HuYojgycXZyc1GO3dqwdeGNRfpc926vY4kpJSsPHbD1U9ijUffYFZU8fj2ScfVwGRl6fNUSnAQgIirq6uqBYUgHGjXsDdnTuoIITUrOh2dyesXvo2Pl//g2qn+nfGjhispqvIwFRqXkjARIIyr81eqAZuzZs0wo/r16ptB4+YiO9/3ITl77yJHlfMCzYnVjZ28KvRFGkJYUiIOK2dILDQJxH9mYd/LXhXCUZS5OlrOl78HSmcKcUX5WT/iw+XoUP74iv/XR54AiHnQzF75iR0aNdGLbuSTFeo3rAd3LTv8R++XK3qIoiNm7fj6edHqxoMMv1D6l3Mnr8UD97fFe8telNtIx2cZMpeuzYtVBcNyX64kpt2XzIkIiKiEXLxkprGJzUfpAaEwQCMHPac9rrOmDl7EW5t0xLzXp+sP/IP8hwSVJFjimQKLp0/Sy3f+vtuDND2T4IYMecPqLbX0lVKjnkytUKyLeSEX2piyOPemDZBtSiVqYoTRr+AkUMHqueZOecdLH5vLXrcfzdenzZeHWN27TmIiWOG4qUXnlXbSDDhJe3Yu3HzNjWtZNnCN9TyK0lRTQm8f/DePHTq0A4bN21Txz3Jhly97C2VBRIXn6jt8ygcPX4aKxfPQaE2lB896TV1HH737de042hxlkUJyciQP58b5RFQB4WmAsRq41CT9pMslHbml5uTgbzsDH1BxePo4ongNt3VBR6yTMykILNmMFhVypv2f/onUPZkMOTo6KhSSd9/dzaitUGaDNTOH9uOY3s24sev1qg5vVeSWhDPDXgCH65chOeeeQJ33nGbmgcsU0dWrPlEDSAdtAHVE489hOycHPykDVKlEKevrzfu0KdwSErwG9pA7qNVxc/R8fZb4aoNQk+cOodXX3tbbfNXJYESmb5xbM8vaj+jQw7g5P5N6v7QwU+p9RWP4f/+jvDGG2+8qVsZZVH8Vb8+j6iT4Z83bUd+gVFlBew+cARPDh6JBUtXqe96Id2Ylq78UE2nOx8ahk+/+FbbTwNu0U6u/xp8KNGm9S0qu0/qRkTHxavjUkp6Oka//BqeHzlJtaN+9oWxeG74BBU8kUD3269Pxh3acUO6PsXGxqFe7VraSbozzp67gDPnL8LO3k615R43eRaeeWEMwv4mEP93JDNEMgqvzP74ryRTsEG9umoKx/c/bVa1oOTzkAsE+w7+0Y3k70n3rGx1QeC/kKkzUh9KOpRIUWyZzplvNKpuKE8NHoUtv+/RtywdchHpqn8XebOMm/rzK79xJtH1YJCCqAIqLCxuJ/rXWhJXI4EBmdsqKbEymAq9FK6mTby7fC2eHToOC5euVlkRV5IgxKBh4/HBx1/iiV4PqQJkg5/tqyqMy4CuZGB1qzbwlKkhq9Z8qg0+w9Rc3ABfH7VOKq5Luu7X3/2sDTj7YN7rUzB25POX5wZfKS+/QA3YgoNrq+c7eeac6kYiV5OkcvmoSTNUUcw9+w/rjyAiotJ0b5c70KRxAzXFrv+glzBg8GhMnjYbMTHxqv6RHEuE1HX4+Zet6Kdt8/TzY7Ttd6ipHd3vvROO2vf31dSpWR2Dn+mnjkOjxk/H00NGY/CLE7Bn32HYWNuoGgySCRByIRTz330fL2nbjHn5NVVUM8DfF/37PIpbmjVCm1bNVXeLMRNnFAc1tOOUHBfqB9dFg3rFhZj/jUxxkfeQnJKmpk1I96hrJVkPPbrfrYpIn9aOVxLIkXatMj3yymknVyPBBmmzLcfgD9d9rS/9Z5I50a/3I+r4K1kfTw8Zg2e0z16KaYrOHYqLahMRWQoGKYgqEJkyIdMbcnNyMXHKm6oDxr+RubmjRwyGs7MzNm7aiiefG4mntNt7qz5RLTzbt2v9p/nFonatGgiLiMJPv2zBkJGTMGz0ZG37j1Xtipo1qmkDwjpqO5kqIm3ppBWdTAtp3CBYZW2UrAuPjMF3G35RV7mGjZ2C+YveV4OzXnpFc3ldmUpy8NAxzJr7jsq+mDhmmAqCTHt9Pp54ZhgGD5+gBsFRMXGqMBkREZW+AD9fzHltEp5+8nHtOzgHZ85dQMOGwZgz82U1daGkwKQcU2RanxR4jIyKQYMGdfHGjOIpIn937VYeO2RgP7w2ZYw6hhw/eRYFRqMKfi+cM021wp4w6gX1vNK1SoLcss09XTph8fxZaN6koSqWLPsyecJL8PX1UccvySgYNfw5TJ04UhWi/C+kVemD+hRACXBIXYxrJe+zVYumWKDt+3333KWOa3LlesjAJ3FrmxbFG/2NN6ZPVMEN2f8j2u2/kIyNp/r2xPw3p6rXPRtyQdWaeqJXD7w7b6YK5BARWRLWpLBAlakmhauHX6WsSeHmUw2+VRtec00KyTaYv3iFmsMqg5axLz2PqOg4VY/htnatMOPl0WpervSWl5N8GUzKoEYCCVt27MZ7Kz9R7TuNJpMa1DzzVG889Df1GiR1VoqXnT53Htna67q4uCC4Xm3MmDwGvnpBNCliJleipPe99LZfumCWSs8V8tWz58ARvLtsjTaQjUZuXr7aplWLJhg9fDB8vDzVAHHO/KWqmJqks0r9DHsHO6xcuw6//rZDdSSRauh1atfEK+OHq6tx72jP9+G69ejQvg2mvTxKFTaTZZ9/vQGN6tfF6mXFU0kmTZuNzVt34vVpE9C18+1qmbn5oyZFuPZ34QxrUhDR//HwqwmvKvVKrSbFjZB6CjLV4cev1qrjSmUlU0UkcC5drVy1Y2PN6kFqeYp2f+T4aapN6TNPPq5au1qSkpoUcZeOwWRkTQpLlpudjtysaw/AWQrWpLB8DFJYIAYpKr7rDVIIyTKQdFcZJMmVJQkUpGVkqCKZUtNBrljJNkkpqSqQ4ePjpa4wyVeBZEJIYS95rBQpkwJoVlZXv/YlXxy5ublI17aX9FWZQyxFOe21nyXkOVd//AVmvLEADevXU0XISlKCS5S8pgRGJGgic5ZLrnjJXOPUtDS1jTy/1L2QbBFJaVXV3LXlNtbWqp+9k56hIYNCmeoiGSXeXh7q6pUsk7nF8hzSSk8kJqWoOdSShlzyWHPDIAUR/RsGKcyPTLVctHQ1Plr3NQID/TCgby8VhJfMiA8/+Uq1W123ZjFat2iqP8IyMEhRcTBIQeaOQQoLxCBFxXcjQQpzERYRja++2YCfft2Kk6fPqUyHF5+rqIUtywaDFET0bxikME+nz57H8HFTcUo7/kkAXoLvEliXuksTRg/FoAF9YK2NcywJgxQVB4MUZO5Yk4KIykR0bHGv+jPaQE3mED/U/R59DRERVUSPP/oAevboBnc3F31J5dWwfl3VHWvx/Jno+/jDuP/euzB5wnBs/uFTPP9MX4sLUBARlSdmUlggZlJUfBUhk0IKpq376nvV8eOODu3QqEG9cmqUV3Ewk4KI/o05ZVJQxcZMioqDmRRk7hjGJaIyUTUoEGNHDMYLg55EYwYoiIiIiIjoP2CQgoiIiIj+Myl0nJCYjMSkZFXI+GaTfUhKTlFtNwsKrv8KvxS8nPHmAgQFt0Xn+x7Xl5YvKVwtxa/lveTmMTOGiConBimIiIiI6D+LiYnDoGHj8cLIVxCfmKwvvXkkYDLm5Zl4dug4nAm5qC+1TNKNavobC9R72b3vkL6UiKhyYZCCiIiIiP6znNxcHDh0DAePHEeeGVztl5aeR4+fUvuUmZmpL7VM0tL71JkQ9V6SU1L1pURElYv1NI3+O1mIzJRYZCRH6/cqLoPBAHsHZ1VAs7Kxd3KHs5svstMTUFR481Np6eYwWFnD2cMfedlp2t+FRG0J6xwT0Z85OHvA0dUbOdp3xH85XshJ8LnzoThw+BgOHz2B86FhyM7OgaurC+zsbBEVHYuff92K2LgE1K5ZXT1GpnVs+Hkzzl8Mg7W1lbZ+G3buOaAdp4EqAf7w9PCAl6e7mmpx/uIl7QT7OI4cP4X4hCTY29vB1cVZPc/ufYexe+9BZGZlq9fcpf0eciFUted0cHBQQY892jbyem5urmqZ1DPKz8/H2Sv2+YK2z9LO003b5/SMTHzzw0bs3L0feXn58Pf3U/vi4+Wp3oM8p5zwh1y4pJ5H9tXa2lrtT0Zmlvacx3FIu4WGR6hlx0+exaEjJ+Dt5YGn+z+mll0pLj5RPZ/si3SvStD21c7OTn0WGzdvV8ESFxcXeLi7qu3DI6OxcdM2XLwUrj7P3LxcnDh1BvsOHsVx7Wd4RBTyC4xw0x6TnZOL9d/9rD5beV/e2nuQ/fDz9dE+kxQc0t77fu1xZ0MuIjc3D17aOhvtvcjn8dv2XQgNi1B/hnsPHMGxE6dRYDRq79cdp7T93L33EMLCo+Do6KD+PGSMda0cXLxUAees1Djt7xoLOVsyY0GeulVUtnaO8A4K1v6tV77i+xUFu3tYIHb3qPgqQncPunHs7kFE/+ZauntILYlvf/gFby16TzuBj9dONItQqH2vyIn7oGeewOCnn8Bv23bh2RfGolWLpvjhi9XqcQcOHUWP3oPUSfPYl57H7PlLkJKSpk50A/x9MWnMi3jogXuw+sPPsfbjL1ULagmGODk5okFwHYwd8TzuuL0tXhw9RQUUmjZpgKysHERoJ+gShWjSqL72+Hvx7vI1SNJOxl20k+hHe3TDK+OGq5NqeczbC7V9jk/Qvge1fdb229PTHYOf6Ys2rZrjmefHqGkSUs/B29sTwwYPQNvWLfDqzLdw9txF7WS9QHsc4KOtGzigj3pcTk4uXpuzSH0eWZlZsLGxQc2a1eDs5KQCIcF1a2HrT5+r919CAg6jJ87A8VNnVfBE9kUG0bLty2OHYeHS1di+Yw/69OqBeW9MUZ/Pkvc/xGuzF6J925ZY+958LFv1MT769Cv1+lbaOEfqYMjnOnzI02jXpiUe6TsY6enpMBpNKnA0oG9PPPrQfZg2a77aL9le3ounhxueePxhvPTCs/jsq+8wddY87bMq/ryPHDupPv+aNaqqQMt7qz5BTGy8eo8tb2mCOa9NQt3aNdV7uhbs7lFxsLsHmTtO9yAiIiKqBFJT0/HJ59/gUlgE7r/3LixZMAsjXhioik6u/uAzxMUl6Fv+vRbNG2snuS+rE2zJIJitnfB26Xw7fvp1C2bPX6oCCf36PIo3pk9EsyYNtRPrk5j6+jyEhkXqzwBERsagR/d7MHrEYBWQkG2WrfgQjz/6AHprJ/gZGZn48usNCLl4SdvnNHz8mbbP4ZF44L6uWDJ/FoZpJ/QSzFil7bOb9vj5s19VGQPi5THDcG/XTnjjrXfVyXr7dq2wcM40jBj6jMqcmP/OCpw+ex6fr/8BX2g3CRY8cH9XzJo2HjWqVVWBgL+7frf6o89VlsJ9d3fGiiVz1OfXumUzlXnx+dc/aO+3gcrSkKCOZEKIkroSfR9/WAVS5H1ZWVth8byZWLl0LsaMeF4FED745Cv1eS5+ewZq1qimHjP0uSfRp9dDmDnnHZVd0VJ7rfmzp2LimKEqULN4+Rrs2LNfbSuys7NRJdAfr04ahSoBfrgYGo4585aiXduWGDr4KdjZ2mD/wSP4/ufNMDETgojMGIMURERERJWBAahTuybu7nIHRg0bhHZtWuDuuzqoaRNyopyT+++Ze7KtZA4IKysD6tWpBS9PD3zz/S9qCsJD3e/BK2NfVBkAs6aOUyfNEZHR2K+duJdoq73ukGf7YtBTvXHH7beqZfWD62D8yCGY/8YU1KtbW03nSEhI0tYY1FV/2eeXhj6r9vmeuzqqKQvRMXEwGKxQv14d2Gon4KJWzapquQQiPNzd8UTPHmjZvAkeeeBePHh/V+15s/HBJ1+q6RCyv21b34K3X5+Cfo8/jIWzp6JL5w7qea5m/wF5D0XqtVxdXNC4QTDGDH8OUyeNwu3t2qBhcF04Ojio6SzhkVFq+sbeA4e1faquAgW5ubnqc7a1sVXTYIICA7TXfQgzXx2nAjTubi5ooD+HqFa1CrK05zp56hycnRzx0P13o/UtTdGtayfcd8+dqqvJDz9tVtsKycgY9vwAPNOvF559qo++zEtlTkwaPRQd2rdRGRryuZq0n0RE5opBCiIz5uzuBxfPwEp7k/mvMgC9mWTKhaOb71X3r6xvzh5++l4QEd04T+2k/cknHlUZDguXrFLdOYaNnoK09Ax9i+sXERWtnbzboknj+mragZDgQe1a1VUwQKaXlHB0sFe1LQxWBlVTQcg0C3s7O/W71GEoIdManuor+9wACxfr+zzm1cuZClcj0zKyc3JU5sLL0+egZ/8h6PP0MPz4829q/c7dBy6/51uaNVLTUoSzixMaN6x3uWbFX/V+7EGV7bDuy+/Qf+BLePK5kfhw3XoEBvii+z134rZ2reDv74PMzCxVv2Pz1p0qK6Rh/boquCN1Npo3bYjIqBgMfHE8+j4zHC+Nn4Y0bT+73tkRHu5u+iv9IS4hQRUnlWDFm28vUe+l94AX8f2Pv6ppH6fOnNO3hJrO4WBvr36XIIhwdnZUtT2Ep+cfnysRkTljkILIjDlJkMKrSqW8Obr7Qmb7Fs/4vTnsnT3gGVAbbj5Vr7qPZX1zdvfX94SI6MalpKbi9bfe1U72V+LkqbOqnoNkVHh4/P/J8bWS+hZSp8Haylr9FFYGg7ovZP0/KXmMkKkkJVJS0zBrbvE+S9eLNq1vwcgXB8JdO+H/O7baybrUg5CT/uef7YfR2nuU29RJI1WtiBEvPHP59ay11yr5XX7Kib720Kvq9XB3LJo7HV3v6qiCJCe0z/CzL7/H2FdmYeWHn8Hf1wcdbmurioLKuu9/2qTeS906NVUgxMfLC29Mm4AXnntKFcqUQpe/bN6uaoRMf3MBkrX3+lcSxJH34qq934FP9b78Xl6d+JJ6L6OGDtS3/Hslb0cyX4iILAGDFERmSDo5xIQeRszFQ5Xqlhh9DqaCfBQWGlUXm7zMFKlMpn8q5UQbDNrYOcHdryY8/GurDhvpSVFX3d/yuqUlhf/tHGkiov8qLS0D+w4cgbu7KzZ++xHGjhiMNi2bywyGyySwICfFKWnpKhtBCjWeO3/pX7+LpUijtAI9fOwk0jIy1HfWmZCL2mMvqukLVapcX9A1Vdtn6Wjh7u6Gn7/5AGOHP6ftc7N/DF9XrxakpkfISblkLvTu+SB6Pnw/GjaopwpuNtJ+euhZBfsPHbucVSGZF+e0fTaZrl6vQTp3yFSPV8YOx7G9G7Fq6VtquohkTnz/4yb1uUlGRaH23qUAqXwWUsiza+cOKtgg0z2i4+LRsX1r7Nz8NX75/hM892w/7ZmLsEXbPjlZO+b9hb+/Lxwc7NXnX69uLfVeej3SHY0bBav3UqN6VX1LIqKKg0EKIjNkzM9BdloCslLjK80tPy8bLh7+qquLtNjNSf/3Am6lzdrWXk2z8AioDXsnN22/YhEXegyJkaf/b3/L85afLWnNDFIQ0Y2RTh7GAqOqSyBTEX7Z8jtmzl2kTs5LeHi4q6v+oaHhmDzjLcx4YyEWLVv9p28gg/afZAgYjUZs/X0PIqJi8PCD3VQnDmlf+urMeZg9fxkmTX1TtQGtGhSI1i2a64++NtLVqEDbZ6mhsHmbts+//Y5Zc95B+hVTVCQ/QAIEYufeg2o/WjRvguSUVMxduBwr1q5T01uGvDQJL42fjqSUNBXokKKdUptCum+s/eRLtd+btu7426Dwpt924IWXXlaZE79s2q7ev9SmEMH1aqufTRs3gI+3F0LOhyI6OlbV07ilaSO1TrJCXntzIQaPmIQl73+AyMhoBPj5qH2vXq0KnBwdJU5++b1IAU5pq9qm1S2q6OeS9z7A8lUfY+n7H+LFUVMwdNRknDoborYlIqpIGKQgopvOztEF/tWbwN7BFZmpcchNT/rXq3alShsQOrn7wjOgDpw9ArRBfK5qsRYffhI5mcnsB09EFYIUkryleWNVA2Hk+GkYNWE68vKLW2CK9MxMVQjzjg7FxSw//eJbrPn4C7TSTuivnCogrTEb1K+jggdvLVyOXXsO4N677sCrE0eq7+7Pv/oeC5esxJ59h1SGxdtvTEYt7ef1UPvcrJEKpIwcV7zPBSYTvDyLu3lkaPvs5OR0uSOGtNvcvmMvJoweqgpw7t57EDPnLFL7IwETaUF6e7tWqsDnY490V7UePv2iuIXn9l370KRRcYeOqxn09BO4rV1r7N1/CJOmzcaYl2di6++7ULN6kCrqKWSKyXPP9lVFLaUlqrQeLSnq6evjjb69H1HL57+7AiO19yJ1JqSWx9P9HoOfr4+qHxEYUFyP6NMvvsd3P/6KCaOGqD+DA4eP4fW3FqvAi3Q76f9ET9zXtbPaloioIrGeptF/JwshafBypbmikysJ9g7O6so6VVw2tvbwDqoPR1cvZGckIkv7+42i8gkKSFFOW3snVXNC6n8UFZqQnhSJhPATyM/JVFfwiIjMmYOzh/b96Y2c9ET1HfZPZAqEdHhwc3dF1SqBql7DsMFPqRN1mTYgnTiaNW6Azh3bayfUXto2ARg5bBAee/g+pKWmqywB6cYhJ9OtWjRV0xBqVAvCrW1aqiCEBBPu73YXAvx81fJnnuqN16aM1U7iq6pjurQ6lU4gUgtDindKvQrJiJD2oW1aNVPZDyI+IVGdqHfu2E573mqqzoMUnZR9HjKoP14c9CQyMrNVAESWSVFNaY0q00qqV62isiRubX0LnnisR3HRSu2xko3wyrjh6Nmjm6pZYWdrq1qnNgiuA093N3S5syOmTHgJ9erUgIOdnZomIq97JRdnJ3TX3l/zpo1UIUyZfvGs9h5nvjpeZUSUkMKfn3/1gwpUTHtlDPx9vdVyGxtrtGnRDPd0vUN9DlX8/dDt7k6qO4h0LJFiolL4Uj4b6V4SpH3+rW5pqjqa9Hr4fjTT9kleVzIzxo8agn6PPaz+DOTPT6bpNGlUX/35SiZMZlaW+sxvadZYLdPuICUlTX0W8nwN69dT2TDXQopZy3ExKzWOwXsLZyzIU7eKytbOURtbBmv/pooDhGR5DEWc6GxxYi4eQVTIAf1exSXBCVcPP1jxC6bCsra1g2+1RnBy9dEDFDHlNPCRuhMOcHTzgaOLp0rtlQyO9MQI5OcUz6UmIrIEHn414VWlHpIiT8NUgU86LEGB0Yj0tAzsPXgEL46erIIZX3207G8zMyyNR0AdFJoKVKahyVigLyVLlJudjtysP6Z5VTQytgtu0x222liPLBMvURPRTWFlYwvfao1Vm9WcjCSVQVEeAQophOnsFaDqTji7+aoDdUzoESRFnUGe9jsDFEREdD3CwqPw4pjJmDDldTWl45n+j1WYAAURUXlikIKIyp1kx3hXqQdnd1/kZCSr6Uv/lqZ8oyQ4Yefoqq4EuXgEotBkRGLUWcRcOIhcbR8KTWX7+kREVLFJYVIpcOni7IwH7uuK29u11tcQEdG14HQPC8TpHmTJJIPC07823H2qIjcrFRlJEqAw6mvLgMEAW3tnOLn5wN7JXaWqZqTEqLaiBXnZ5Vugk4iolHG6h/mQdq2Jickqi0LqbDg7O+lrKgZO96g4ON2DzB0zKYio3Eg2g09QA21QXUNNrSjOoCi7AIXB2houXkHw8K+lCstJ3QuZ2pEcfR4FuVkMUBARUamRYpxSfFRarla0AAURUXlikIKIyoVkxHgF1oOrVyDyczOLAxSmsglQGLTXsnf2gHdQQzWlxJifi7iw44i9eAR5WWlg1w4iIiIiIvPEIAURlTlp9enuV0NN8cjLyURafBgKjfn62tIjryN1J9x9tdfSblLnIjnmAmJDDyMjKUrfioiIiIiIzBWDFERUpiRw4BlYV9WhkBoQGYnhZRKgsLK1g6tPNbj714K9oyvSk6MQffEQUuMuaq+bo29FRERERETmjEEKoptECmulpKYjNCwSh46dwr5Dx3HyTAhi4xORm1cxip9JgMLVOwgevtVhKshHZnJ0qRd2k0KcUm/Cu0p9OLh4oiAnE7GXjiEx4rT6nbWBiYiIiIgsB7t7WCB297BsJpMJMfGJ+PnX37FjzyGEhkchOztXtS6zs7WBt5cn2rRogi6d26F188ZwcLDXH2lhDAa4eAbCJ6i+KlCZFn8JBXlZ+sobJ38/7Bzd4OTuCzt7F+Rrz52eGIHM1FgVECEiqgzY3YPKC7t7VBzs7kHmjkEKC8QgheUymkz48dftWLbqM1wKj0JBwdULR1pp793Tww133NYao4Y+hUB/X32N5XD1qgKfqg1UXYjU+DAYSzFAYWPvBGfPANg7uunPf0m1FTXl5zJzgogqFQYpqLwwSFFxMEhB5o7TPYjKSU5uLj76/HtMmbUIIRfC4O/rjccf6YbVS2Yh5OBPOLt/A7b+sBqjhg5A8yb1kZWdg29/3IzJMxepgIbFMBjg5O4Db8mg0EgXj9IJUBhgbWMHJzdfVePC3sEVuZkpiA09gpTYUO01chigICIiIiKycMyksEDMpLA8+QUFWLb6M7y/5ksUaf/dfedteO6pXqhbqzrs7Gz1rYrJP8mEpGSVcbFi7VeIT0zGbW1vwczJIxAU6A+DwaBvaZ6kLoRf9cawtrFHRmIEcrNT1XSPGyF/B+ydPFTww8bWUXvONKQlhiM7LVFd1SEiqqwkk8I7KBg56fJ9WDZtnS1BXm4mCnIy9Hs3h5W1rToGWllZ60sqFgdXL+RrnzEzKSwfMynI3DFIYYEYpLAsUiDzy+9+wZsLVqjaE48/fC9GvzgAHu5u+hZXZ9Iet2f/UcyYswShYVHo3LEN5k4fC3c3V30L82Pn5IrAWi1UxkNaQjjyslL0NdfP1sEFLl6BsLN31j5LE5KiQ5CdngBjvqQ18+uLiCq34iBFfbMPYJclkzEPKbEXYczL1peUP4M2VnHzqQYHZ88K/Wchx18GKSwfgxRk7hiksEAMUliW6Nh4DJ/wOo6dOIu7Ot2KOdPHwN31vwUaJMDxzYbNeH3ee8jLL8DooQPwZO8esLExv6s0fwQobJGeFIXcjCR9zfWxtnVQXTuctb8DcnUwW3u+5JjzKMgtvdoWRESWTjocyfduZWOwsoZ3YD01BTAjOQrZqXH6mvJnbWuvWmDLNMTMtDjtWBWir6l45GKBKV+KU/P0wZIxSEHmjkEKC8QgheWQIMPcRauw+pOvUatGVby/cDqqVgnQ1/43+fkFmLdkDVZ+uB7169VSz2FuhTTtHF3gW7UR7J1ckZ4UqWpFXO8UDxlwS7qsk6uv+rPPyUpBWkKECnrI4IiIiEgC2H7Vm6jpB2kJYTc8rfB6Sbafq09V2NjYqw5TKXGhMBnZYYrMG4MUZO5YOJOoDMXGJ+HzbzZqJ9dFGPJs72sOUAipWTH46cdRr04NnL8Yjl9+26mvMQ8SVJCBor2Tmxqg5WYkX/dg0d7ZHR7+teHqFQQYgPjIU4i/dBzZafEMUBARkSJTCn2q1FfdnbIkg+ImBijcfWuo6YhJMSFIjr3AAAURUSlgkIKojEiS0oeffYeMzEzc3q4F7mjfSl9z7bw83DHyhSdhZWXAW++uQUqaeUS/bR2cEVi7FewdXbWBYixys1L1NdfAYICNnSNcfarD078OrK1tVepuxJldyEyK5oCPiIgukww776r11XEjMzUOxvwcfU35kZoT9s6eqtOUBNRjLx1DWnxYpS5cSkRUmhikICojsfGJ2LRtN+zt7dGtS4d/LZT5bxrVr6umjOTm5mHvgWP60pvHVhsg+lZtAAcnNzVQzE5LuOarWVY2dnDxDFS91x1dPLTnidUGe0eRECH9/hmcICKiKxng7O4HF3d/5OakIS8rTV9efmQqqqO2D+6+1bTjVK46XmWlxOhriYioNDBIQVRGzpy7iJSUNLi6OKNBvdo3XO07wM8bd9zWWj3Pz5t/15feHJJq61ezGRxdvJGpDc6kYFlRUaG+9j/Q3oOjmw88A+vA2SMAJmMu4i4dR3z4SeRkJKOo8Bqei4iIKgVbB0d4BtRWv2cmRWnHinLOXNCOXc5eQSq4XpCXjdjQY8hKi1eZk0REVHoYpCAqI1Ex8cjJzYOPtyfq16upL71+NjY2aNY4GM7Ojjhx6vxNm/JhY2sP3+qN4ODsgeyMRGSnywDtvwUVDAYr2No7w923pmrVZtD+S4u/pArBykCPqbJERHQ1EqD30I4dksWXnhgOU4G0oS4/Un/Jzac6nN18kJedjtjQo9rPtJtWD4OIqCJjkIKoDJhMJsTEJaCgwIj2bZvDwd5eX3NjalSrAmdHR2RkZuHsuVB9afmRDAqvwHraIM0PuZnJyEqJ/c9ZD9Z2DnD2qgKPwDqqG4i0KY25eBhJ0SEoZL91IiL6Wwa4egepm9Q+kiBBeZKW2K7e1eDo4qWmN8aHH1eZFEREVDYYpCAqA5lZ2Qi5EKZSQO/u3F5feuN8vDxgZ2+LnJxcRMaUd094A7yr1IOrVxVtkJiiOnkUmv49uCC97J09A+EZUEfNJZbBZUzoESRFnVW/X9M0ESIiqnQksO3hX0sdc6Sbh3T1KC8SoJDXluzBlPhQJEacQkEuAxRERGWJQQqiMpCbl4/4hGQ1RcPPx1tfeuNcXZ1hqz2nyVSI9IxMFJZT7QZVTT2oHty8qyIvJx0ZSZH/OkiU4mJ2jq7wCKit5u8WmkwqMBFz4aBqU8qpHURE9G+srKzh4SfTPJzUtMBy6+ZhMKhjmHTwkCxCaS+aEnsRJmb+ERGVOQYpiMpAQUEBklPT4OhoD3t7O33pjZNpI9bayX9hUZHq8lEexbqKB4g14OFbA3k5GchIivrnAIM2sJO6E5Ia6+FfG9bWdkiNv4TY0MNISwhjUUwiIvrPHN28VRZeTkYSctOT9KVlTDuO2Tu5qxoUUjspKfocUuNCyzWDg4ioMmOQgqgMFBYWwWg0wc7WFra2NvrSGyeFw7y9PLXfitRrlAdXn6rw8KuFgoI8pCdIsbJcfc3/k8KYLp5BKjXWSRtY5mQmIyb0MJKjQ5Cfk1kuQRUiIqoYbO2d4FutkXa8MxZP8yin6YFObr5w962hHWmLEBd+XE1vZICCiKj8MEhBVAaMRqMqbinBhNKWlJyq/1a2JODg5lMVvlUbqirqqTHnYTJevZq61J2wd/aAt7ats4ev9v7zEBd2AjEXDqk+9qw7QURE10JNM6xST2XjSZvrfwqQlxZVQ8krUBXoNGqvFx92HNlpCQywExGVMwYpiMqAZFB4ursiL78ABdqttMhASf7ThlKwsjIULywDEqBw9a6iDRCD1fzf9KTIqxbJlO1kzq6bX43LV52SY84j9uIRNS2EiIjomhkMqpaRZDRIHSTp6FHWJEDh4lVFda/KyUxRLUZzMlL0tUREVJ4YpCAqA7Z2tvDydFd1I6SIZmnJ0Z5PimVaaQM4Bwd7bRxXNoEKmQPsHVgPJpNR1ZMoyM3U1/xBrnLJVBB3qXru6I7M1FiVOZESF8rWbEREdN1s7BxULaTCQlO5TLWwtrGHu19NOLn5IDs9EfHhJ5Cfk6GtYQYFEdHNwCAFURlwcnRAUBV/VZciMiZWX3rj0tIzkF9ghLW1FdxcXWBlVcr/hA0GOLp6I6Bmc5W1kZ4QBuNfAg5W1rZw0LbxqtoQDi5eKMjNQtylo4gP0wd1TIslIqLrJMF3r8C6sLFzRGZyFAqNpRfovxprOwe4+laDvZMbMlPjkBB5WjvulVMHESIiuioGKYjKgJOTI+rUqq4GW1t+36cvvXGJSSnIz8uHo6MDqgb660tLiwFOrl7wq95YXbWSq1dXBiikpajUnZCrTe4+1dTAUSqex148rAZ2REREN0Q7ZkqGnotHAHIzU5CXna6vKAsG2Dq4qGOarZ2jygJMCD+pajAREdHNxSAFURmQNqEBfj6qNsW+A8eRnVM6V2UuhUcjKzsHri7OqB9cS19aOhxdPeFTtZHqBy+tQotTXYvJFS033xraYK4GbOy1wVx8KGIuHFTdPowc0BERUSmwd3SFp39t1eY6Ky2uTKd52Lt4qgCFjbUdkmNCkBJ74Z/baxMRUblhkIKojAQF+sHR0R4JSSk4e/6SvvT6FRQYcezkWRXwaNY4GJ7ubvqaG1XcD96/RjPY2NohLf7S5bm4VjZ2cHL3g2eVetrg0Q25mamIvSAtRc+jIC+HFc+JiKhUSJ0jd9/q2nHIAZnJ0TDll1E3D4MBDs6ecPMOUncTo88hLTESRYXsQkVEZC4YpCAqIw3r14G3lwcyMrJw4nTIDZ/Qx8Ql4PfdB9Xv3bp2VD9vnDZYc/GEf82maoCYkRStKqkbtN+l7oRHQG1V7VzqTiREnELspaPIyUzWH0tERFQ6JCDu7O6P7IxE5GaVTVcN1WJUew03v+qXW4zK1EbWUiIiMi8MUhCVEV9vT/S4/07k5efjp19/R1LKjbVQO3z8NMIiouFgb4/2rZvrS2+MjZ09fKrWh52DCzKSI5GTmQQbeyd4+NVSdSdsbOyQFH1WtWLLSI5BobH02qkSEREJqQ3hExSsWl1npcSWSdBA6io5ewaq1qaSCRgffhLZ6Un6WiIiMicMUhCVESma+Uj3rvD0cMOBwyexfdcBfc21kykji9/7RP0+evjTcHV1Vr/fCAlGBNRuoQIUaYkRyM/JVIM378Bg1f4tKz0RkWf3IC0+HMZ8qanBK01ERFS6JIvPu0pd1TkqKy2+TLp5WNnYwtWnGpzdfZGblYro8weQl5WmreFxjYjIHDFIQVSG/H198GSfHqpV6NKVn+FCaPg1T/vIzy/QHvspQsOjUL9eLXS7q4O+5vrZOjirLh5SpEymb8gVJg//OnBy81X348JOqDTY/Nws/RFERESlS4L5bt5VtWOPjwoe5JXBNA8p/OzuWwMOzl4qIzAu7Bg7eBARmTkGKYjKkJWVAY89dC+aNa6HS+FReGP+CqRnZOpr/53RZMKX3/2Cb378TbUd7dXjHjWN5EZI9w7voPpwdPFCQV62yqRw9QyEQdtX6Q8fF3Yc2XI1i1XOiYioDBV3jqoGk7EAmclRpV680trOQXWmsndyQ2rCJSRFnYWxrApyEhFRqWGQgqiM+fl4oc+j96tpHzv2HMLcRauQmPzvV4sKjEbs2H0Qy1atQ2ZmNjrd3hqPPng3rK2t9S2unaTT+lRtCBd3P3UFSwIUBoMVMlJiEXlmDzKSoniFiYiIypxk8EnAvKSbR6nWPNKOb7aOrvAKDIa1ja3q4JEcdQ6mMphKQkREpY9BCqIyJlM9HujWGcMH94ODvR2+3rAZU2a9g4NHTyI37/8DAoWFhYiOjcf7H3yJSTMWIC4+Cbe1vQUTRw6Ck6ODvtW1s7a1h2+1hnD1DFD3C00mZKbGqtTXhPATqtI5ERFRmZNpHlIjws0H2emJyM9O11eUAoMVHFy84OFXE0VFJiRGnUNafJi+koiILIGh6Eb7IlK5i7l4BFEh11+E0VLIVRZXDz9VVKsiKCgoUAGKN+a9j8ysbPj7eaNl80a4t0sHNG8cDE8Pd1wMi8CvW3ZDWo2GnL+EAqNJW387xg1/FtWCioML16O4MFmwNiisqjIncrPTkBp7EdkZyaqaOhERUXmR1tcBtaRLlQEpMedhKsUguZO7P1w8A9SURWmbLQUyi4pKdxoJkaXLzU5HblYpBgfNjKP2HRPcpjts7a7/4h7dXAxSWCAGKSyX/HPb8vteLFr+sSqimZt39dRTmdLh7eWOOzveipFDnoTPDdahkAKZAXVaar8ZkJUWh5TYC9qgkGmvRERUvuSY7qNn9aXFhWknSqVTLNNKO246uvmpLlX5ORmqxWhetnTwIKK/YpCCzB2DFBaIQQrLJtM5EpNTsWnrbuzYcxBnQy4hOTVN1Z2QuhWSMdGuTXPcdcetaNooGHa2tvojr59kTzi6eauCYQW5WbyqREREN4VM8/Cp2gA5GUnISIqU6L2+5vpJi1EJTji6eqsOVUlR55BXmlNIiCoYBinI3DFIYYEYpKgY5J9eRmY20tIzsP6HX/Due59i2sShuOfO2+Hu7loqwQkiIiJzYefogqC6bVQ3j9T4UBSWQiFL6VglHTzkudOTo5ASc4EdPIj+BYMUZO5YOJPoJlH94V2dVeZEYICfWubr7QVfHy8GKIiIqEKRbAffao1hsLZBdkZiqQQobLQTEHf/WrBzcEZ6YiSSItlilIioImCQgoiIiIjKjEw5dPMOgr2TG3Izk5Gn3W6UtBh196sJaxt7pMSHIikmRBXLJCIiy8cgBRERERGVGWmB7e5THSZjPjJTYtR0xxvh4FrcYlQCFAlRp5ESexGFRnaqIiKqKBikICIiIqIyYbC2hm+1hqp2RHpC+A0FE1QRaHdfuPlUR2GhCXHhx5GZFI2iQhaDJiKqSBikICIiIqLSJ7WXfKrByc1XdfMw5mXrK66dFNN28pAWo1VUl6r4sOPITo3X1xIRUUXCIAURERERlTpHFy94+tZEoakA2ekJ193+2mBlAzfv6qrNaH5OOuLCjiEnI/mGp40QEZF5YgtSC8QWpBXP59/+jFdmLMTiuZNxz12360uJyNLIIXXTtt349sffYDSa9KVEN1/zJvXxwrN99Htlz8raFn7VG8HZ3Q8pcReRn3197Q6tbOzg6h0EB2cPZGckISH8JDt4EN0gtiAlc8cghQVikKJ8mQoLYSwo24rhX/3wC6a+vhgL3piIrp3a60vLhq2tDay0z5aISl+h9n2x6uP1mLd4rQpS2NnZ6WuIbg6TyaT9XTSii3ZsWTbvVX1p2XP3qw7vKvVVBkVmUpS+9NrY2DupAIWtnRPSU6KREnMBpoI8fS0RXS8GKcjcMUhhgRikKF8Hj57Ayg/X6/fKRlR0PE6dvaCudPn5eulLy8aQp3ujmfY6RFT6rgxSBAQEYsGCBfoaoptj48aNeO+998o1SGHr4ISg4FtVQCEt/tJ1FcuUFqNSz8LGxg4pcaFIledhi1GiUsEgBZk7BiksEIMU5WvDr9swcuKb+j3LJ4NUGawSUem7MkgRHFwfJ06c0NcQ3RzLli3DCy+8UG5BCuniUaVuaxWokG4euZkp+pr/zs7JDW4+VWEwWCMtMRIpMeevu54FEf0/BinI3DHnm+hfODo6ICjQr0xvHu5u6rW8PN2vur40bw4O9uq1iIiISpPBYICrdxXYOTgjJz1JOwlK1df8N6rFqJsv3H1roKiwCAkRp5EcE8IABRFRJcNMCgvETIrylZ2Ti+SUNP1e2ZBsjbcWrcaMScPQ8bbW+tKy4e3lAUcGKojKBDMpyNyUZyaFnaMrAuu0VMGK5Kiz1zQ9QwIU0mLU2SNATROJDz+hsjA4TCUqfcykIHPHIIUFYpCi4mF3D6KKgUEKMjflFaSQY7VfzabayYGXmp5hzMvW1/w7g/ZYJzdfuHgEID83E3Hhx5GfnaGvJaLSxiAFmTtO9yAiIiKiG2CAu18NOLv5IicjCaZraBFqbWsHN++qcPHwR3Z6ImJDjzJAQURUyTFIQURERETXzcndB+4+1WHMz0NOWsJ/riEh2RduPjXg4OKFzPQEJESeQkFelr6WiIgqKwYpiIiIiOi6SDcPd59qKuCQmRINkzFfX/NPDLCxd4RnlWDY2jshPTECcRePwHgNGRhERFRxMUhBRERERNdBunkEwdHVG1lp8cj7T908DLB3coO7Xy1YWdkgKfY8EqPP6euIiIgYpCAiIiKi62Dn5ALPgNqq2KVM8/gv7F084eZbHdY2toiPOIH0hHAUXUMXECIiqvgYpCAiIiKia2Jtaw//Gk1h0P6TAEWhqUBfc3UGK2s4uHnDw68GTNq2sRePICslDkWF/61+BRERVR4MUhARERHRf2YwWMHVqwps7Z1VN4/8nH/uxiEtRp09AuDmXQ152rYJ4aeQrT2OiIjoahikICIiIqL/zN7ZHR5+NWEqyEdWasw/dvOQDAqZ3uHsXtyeNC70mPqpPUjfgoiI6M8YpCAiIiKi/0S6eHgG1IHBygppCZdQaDLpa/6ftY093P1qwsHJHVnpCYgPP8kWo0RE9K8YpCAiIiKifyXTPDwCasPJ1UtlQ5j+oWWojb2TyqCwc3RFWmIEEiJOw1SQp68lIiL6ewxSEBEREdG/cnT1grtXEAryspGdGv+30zxsHV3h4VcLtg5OSI45j6SocwxQEBHRf8YgBRERERH9I2sbO3j411Q1JjJSoq/ezcNgUC1GPf1rq+kgiVFnkRZ/CUWFfz8lhIiI6K8YpCAiIiKif2CAq08QHJw8kJkSi4Ls/+/mIVNBHF294eZdVbUYTYg4hYzEKBSxQCYREV0jBimIiIiI6G85uHrAK6Au8vOykJt5ldahBis4ewWqAEVBfi5iQ48gMyXuH7t+EBER/R0GKYiIiIjoqqxt7eFTpYFqGSp1KApNRn1NMen2IcEJZ3c/5OZkICH8BPKy0rQ1zKAgIqLrwyAFEREREf0fmcLh7lsN9o4uqoVofm6mvqaYlY0dXH2qwcHVC1lp8Yi/dBR52en6WiIiouvDIAURERER/R8HFw+4+1Qv7uaREgtcMX1DWoxKBw8HZw9kJEUiIfyUtl2OvpaIiOj6MUhBRERERH9iZWUDryr1YDAYkJ4U+af6Erb2TnDzqQYbewekJUYUtxg15utriYiIbgyDFERERER0mbQZlQCFg6O7msZhzNczJAwGOLh4wt2/FqysbZEUHYKkqLMoZItRIiIqRQxSEBEREdFljq5ecPWugoK8LOSkJ6qimRKgcHT1URkU2h0kRJxEekIEigrZwYOIiEoXgxREREREpEg3Dw+/mrAyWCEjOVp18zBYWcHR1VsFLkzGAsSHn0BWajxbjBIRUZlgkIKIiIiIVLaEm09VODi5qwBFQW6majHq4lVFtRmVzh1xl44iOy1BfwAREVHpY5CCiIiIiODk5gNP/9rIl2kemckqQCEtRp3cfJGXk4H48JPIzUrTtyYiIiobDFIQERERVXI2tvbwCqyr2oxmp8bDysoabn41VVZFZmocIs/tRUFulr41ERFR2WGQgoiIiKgSk5oT7n41Ye/oimwplIki7X4t2Nk7IzUhHIkRp4uLZxIREZUDBimIiIiIKjF7Zze4eQchLzsD+blZcPOpDjsHZyTFnEdK7AWYjPn6lkRERGWPQQoiIiKiSsraxha+VRvDYLBCQX4OPPxrSYdRxIYeQVr8JdXdg4iIqDwxSEFERERUCRmsrOEZWBd2Di4oKjLB2d0XxvxcJEScQlZqnL4VERFR+WKQgoiIiKgScnL1hqtnFRgMBljb2KMgL0u1GM1KS0ARa1AQEdFNwiAFERERUSVjY+sAd78aarqHBCSk5WjsxSPIy05nkUwiIrqpGKQgIiIiqlQMcPerDkcXLxWgyEqNRXzYCRTkZevriYiIbh4GKYiIiIgqERdPf7j7VNd+K0Jy3AVVg4IBCiIiMhcMUhCZgajoWPUzJS1D/SQiIioLUn/C3skDRYUmpMRdRGpsKEzGAn0tERHRzccgBdFNlpicio+/+FH9vvbTr5GekaV+JyIiKm0yvSMl5jziwo4hJTZUBSuIiIjMCYMURDfZ+u9/RZqeQRFyIRzf/LhJ/U5EZEl27NiBiRMn4tlnn8Xrr7+O48ePo7CwUF9L5qSw0Ijs9CQGKIiIyCwxSEF0E0XHxuPzr3+GrY0NAvx8YG1tja++24SU1DR9CyIi85aamorx48fjnnvuwddff40jR45gxYoVuOuuu1SwIicnR9/yxsTHx2PLli2l9nxERERknhikILpJTCYTfvz1d8TGJcLX1wsTRg1CUKAfLoSG45sNv2nreQWSiMybZEpIYGLt2rWYMWMGfvjhB/z444/qNmjQILz99tvYsGGDvvWNkeDH2LFjkZycrC8hIiKiiohBCqKbJCUtHZu27UZefj66dm6Puzu1x62tmyEvLx9bft+LtHQW0SQi8ybB1lOnTsHf3x/Dhw9HvXr1EBAQgAYNGuCll16Ct7c3Vq9erW99Y+S18vLyVE0FIiIiqrgYpCC6SbbvOoCDh08i0N8X40Y8A3t7O4wY0g/eXh44oC0/cvy0viURkfno3bs35s2bh+zs4paVkk2Rn5+PpKQkFUgoIcGKVatWYcKECSrDwsvLSz2uJMhgNBoxffp01KpVC7m5uSgoKMBPP/2EO++8U23bvHlzLFu2DOnp6ZgyZQoef/xxnDlzBk2aNMHmzZvVc4SHh6vnqF+/Pvz8/PDII49g3759aj/S0tLQq1cvTJ48GTNnzkSdOnUQFBSENWvWYPv27ejevbt6TM+ePXH6NL9viYiIzAWDFEQ3gWRLrPpovWoF1/ex7nCws1fLA3x90e+xB1CgDd7nL/kAmVnsW09E5mXv3r24dOmSCk5IHR3JmoiLi0O/fv0wZ84cfPfddyqYkJKSgg4dOuCOO+5Ap06dVJBA1pUENzIyMnDo0CG13t7eHgcOHMCIESNw6623quBG//79MXv2bBXg6NOnj5rqIUGGBQsWqEBFTEwMhg0bhg8++ED9XLx4MWxtbTFmzBjExha3dRay/uTJk5g2bZqqkzFq1Ci88sorap/kueS9yDoiIiIyDwxSEN0EH33+nerk0bhBHTzYrbO+tNh9XTuialCAtj4Mv27dpS8lIjIPW7duVZkNTk5OsLKywmOPPYa33noL0dHRmDp1Kp5++mncd999ePjhh1UwQIISrq6u6Ny5MyIjI1VAQ0iQ4ffff1cZEhKwle4gmZmZKjNCHivBhkmTJqlsh0aNGqFt27bqebp27QpfX19V90KyJj766CMMHTpU7ccbb7yhsjq2bdumXkNIVsa7776LJ598EvPnz1fBkdatW6uAiGSF3H333fj222/1rYmIiOhmY5CCqJyFR8bgw8++V4N7qUXh7+ejrylWu2ZV9H6kGwxWBixduQ6x8Yn6GiKim69mzZoqSCDfYcLDwwMDBw5U2Qq7d+9WwYVmzZohMTFRBS8kGCAdOR566CEkJCTg4MGD6nESSKhevTpuueUWdV8yLWTKx3PPPYfvv/8eISEh6Nu3rwpKSBDjSpLFERYWpvZDbhEREZezOxo3bqweX0KyOaQ2hvDxKe6iVLt2bTg4OKjf5f389fmJiIjo5mGQgqgcyQB6595DSE5Jg7+fNzp3aAsbbZB8JRn4t23VFF6e7oiLT8KuvYdZKI6IzJJ8N4WGhqrimTY2NmjVqpXKnli3bh2++eYbVe9BAgYylUPWSVBCMiakAOYvv/yCdu3awdPTUz1Xt27dVMtSaTUqLU179OiBkSNH4uzZs2r9leS7VGpVSGBCpoXIdBC5SbbErl27VACjhKOjo/7b1ckUkZKACxEREd18PCoTlaP4xGR88c1G5OTm4eHuXdAwuLa+5s+aNQrGvV06qO3W/7BJBTWIiMyNFL+Umg8SmLgymCqBAen0IVMwJCAhUzxkmXT8OHz4MFJTU1VGhWQ9SEaDkOkjkkXx8ccf46uvvlJTSqQehQQ7JCjxVxJYkCwImcqxZMmSy7dPPvkE7733nr4VERERWRoGKYjK0aGjp3D2/CW4u7ng0Qe6/u3VO7kiOejJnmq7fQePY9+h4/oaIqKbS7pmSJ0JCUrId5iLi4vKXpCpHhKQKCGZDrLc2dlZZVAIyaaQLiBSG0KmWshUDnkOmRpy7733YuHChaqGhNSgeOKJJ1CtWjVkZWWpx15JHlu1alX1GjKFo0WLFmjZsqUKWkhgY9OmTfqWREREZGkYpCAqJ2kZmVi6ah1MpkIMG9wX1YIC9DVXF+Dngyd63Q+ZKv3Buu+Ql5+vryEiunmk/oS0BpU6ExIsuP/++1XWhNSPGDdunMpmkGDDCy+8oKZ9yBQMaScqqlSpolqTSqZD+/btVetQIQUxJYDxzjvvqJtkT7z99tsqeCHbSM0ICd5KUGLjxo2qtsU999yj6lE89dRTWL16Nb788kvV7lQyKWQaCREREVkmBimIysk3GzbhzLlQ1KgWiLs73/avhdrk6mLPHvdo2wfh0JGT+OLrjfoaIqKbR6Zi7N+/HyaTSd2XFqRr1qzBM888g19//VUFKmbMmKG6aEjAQqZtSItRIQUsJTgh2RjSwaMkm0zWDx8+HAMGDMDy5csxaNAgrF+/Hq+99hoefPBB9X1Zt25dlZExefJkVYtCsi1kqokESKSriHT4iIqKwqJFi1RWBREREVkmQxEr8lmcmItHEBVyQL9XcRm0waurhx+srG30JZYrKSUVz4+chhOnz2PQUz3x0vNPwtb2399XXl4+3ly4Ap988QOaNgrG8gXT4O3poa+1TPLnamVtq98jusm0Q6DJVKB+lgapnbDq4/WYt3gtgoPr48SJE/oaEvL5SA2JOXPmqNoUkglBZUuyXiSrpUun9lg271V9KRFVZrnZ6cjNStfvVTyOLp4IbtMdtnbFNY/I8jBIYYEYpLAsMr1j7adfq5MWXx8vLHn71b8tmHk1R0+cwbDxs5CekYlXxjyPXj3u+dtaFpbAyd0XXgF19HtEN5fJmI+E8JMwFvxRS+FGMEjx9ySzQqZvSMaD1KKQVqVU9hikIKK/YpCCzB2nexCVMQkubNt1EHn5BejQriXq1a6hr/lvmjQKRsf2rZCdnYuNm3eq57Nk1tZ2sHdyrxAZMmTZbO2dYO/opgKiVPYWLFig6lbIlIyHHnpIX0pERET0Z8yksEDMpLAsv23fi2HjZsLFxQnfr1sCf19vfc1/d+78JTz2zGj1+4pF09GmRVP1uyVy9QqCb7WGSI27iPycDH0pUflz86sBO3sX7ft0LwrycvSlN4aZFH9vxYoVqu1onz590LFjR4vOCLMkzKQgor9iJgWZO44QiMpQRlY2Fi7/EAVGI/o+9sB1BShEvTo1VKeP3Nw8zF64Ctk5ufoaIiLLIMUwly5dik6dOjFAQURERH+LowSiMrRx8+84ey4UVQJ88cC9nfSl104q2z/SvQt8vDxw7PgZbPl9r76GiIiIiIio4uB0DwvE6R6WISEpBf0Hj0d4RAyGDe6LIc/0hrW1tb722kmnj7cWr8aH675Ds8b1sWLRDLi5uuhrLQene5C54HSP6yO1JWJjY/V7FUvVqlXx1FNPwc3NTV9i+Tjdg4j+itM9yNwxk4KoDEjsb/uuA4iNS4Snpztuv7XlDQUohL29Hbp16QBPDzdVo+LXrbu1EyLGGImofNnZ2cHR0bFC3uzt7VXmGhEREd08zKSwQMykMH+paRkY9+pcbNt5AI8/0g1Txw+Fre2Nvw/JpnhhzHTs2HMY3bp2wKzJL8HVxVlfaxmYSUHmgpkUVBkwk4KI/oqZFGTumElBVAZ27DmIrTv2w93VBSMG9yuVAIWQbIq3Zo5XnUI2b9uDA4d5AkRERERERBUHgxREpUw6eaxb/xOsrAx4tMfd8PH20teUDi8Pd3S/pxPy8wuwdt23KGQyFBERERERVRAMUhCVss++/gkHDp9ErRpV0bdXdxWsKG39H38AQYF+2H/wBLbsYKcPIiIiIiKqGBikICpFySlpWP/dJlU4s33bW+Dv56OvKV01qwWhS6d2MJpMmLNgJVLTKu68QpGbm4dJU2cjKLgN6jTtiE+//A43mj9yNuQiAuu2RvAtnZGQmKwvLV9JySnqteX9ERERERERgxREpUYK5m3ZsQ8XwyLh7+eNR7p3gYO9nb62dNnZ2aJzh7bwcHdDYlIK9hw4pgIjFZUEYQ4dO6G6meTk5mL/waPIzcnV114fG2tr+Ph4wcfbs0yyXf6LcZNnYdCw8di196C+hIiIiIiocmOQgqiUpKVn4vuftyArKxu339oCTRrW09eUPmmR175Nc3Rs3wIZmdn4+odNSM/I1NdWPMdOncGZs+dVG1cJxuw/dBSJSTeW/RAUFIBPVi7C+4vnwN3NTV9avo4dP40Dh44hMTlFX0JEREREVLlZT9Pov5OFyEyJRUZytH6v4pITcXsHZ9WK1BIcP3UOKz9aD1sbG8ycPAK+PqVbMPOvrLTPxc/PWwUo4hOS0a5Nc1St4q+vNV/2jm5wdvdFblYKTMZ8fenfk/yQJe9/iKPHTuHuuzoiLCJKZVPI71WDAtU2Ms3m+582qekTNra22HfwKI5o26doyz09PVTmyV9lZedgz/7DSE1NQ51aNdTn+fOmbTh5+pzqohJy4RL2ausjomPg6OAIV9fiVq/bd+7D3oOH1T5kZmVh554DOK9tKwVMPTzcLz/P4aMn1TJfH2/1d/lCaDi2bN+F8MhoNQ3o199+x4+/bFFTPby0fXRwsEfVqlVgpW1b4uKlcLWdZJKYTCbs3n8Ip86EaM9bCHd3N+3v3FmVhREdGwcnJyc4Ozmq15JATkxsPA4cOY6D2i3k4iXk5ebDzdUFttrnI1k/kdGxKkAit3MXQpGYmKK9TwfteYqfQ96ffObyGZ3QXke2N5mM8NTfo5BA0aGjJ9TnLfsVn5Cofdb2lz8r+XPZd+goDh4+rj0+BtY21jh3/qL6zHLz8lAlwF97zkKcDbmgAk/ymUXFxKosF2mtW/I6ZcXe2UPbJzvt+zQKhdp7Kw3y2R8+flr7szoKb28fDB06VF9DdHMcOHAAGzZsQO2a1fDAvZ30pURUmRkL8tStorK1c4R3UDCsrUunux6VP4M2oGJrAAsTc/EIokIO6PcqLglOuHr4wcoCvmCyc3LRb/B47UTtAgY++SjGDX9WneiVNZN2sjntzXfx+dc/q+yN5fOnl1q707Li6hUE32oNkRp3Efk5GfrSv5dfUIBO3R5DWHgUlr/zJj5f/wM2b/kdw194FpNGF58AHj1+Ct0eeQq3NG+ssiL2HziiToJdtBPdPr16YNKYoXCwt1fblpCaFJ3ve1w7GXbBzk3r4ebmgrsf7Iu4+ER06tgO+7TnkHoREuBooT3vyiVvwdPdDX0HjsDW7bvRtElDZGdn41JYpPqzDvDzxdiRz6PXQ/fhru59cP7iJQwf8gzGDB8MG+3k/MN16/Hqa2+jRvUgrFk+D4OHT1QBEQkYuLq64K5Ot2HhnGmwt/tjitAnn3+DMS/PRPOmjVSQIuR8qKpDUq1qFTw/sB+WrfgIEZHRKsAh+/zWzFdUEOGQdrI/a84iHD95Rvv8tJNv7Wvey8sDA/o/hiHP9FOBl/GTX8fJU2e1f19Wah8M2n+tWjTFqxNHomaNqpi7YDm++HoD8vLytX+L2t81U6F67hcHD0D/3g8jKSUNY1+ZiT37DqlOM0VFhbC1sUWDBnWxbOEbkBk0U7T3u33nXmRnZcPO3g61a9VQfw6HjhzHgL49MWPyWKz76nu8u3wNErXPWv4+S2Cifr3aeG3KWLRp2Uz/JMqGm18Nbb9ctO/TvSjIy9GX3hj5LFd9vB7zFq9FcHB9nDjBNsF0cy1btgwvvPACunRqj2XzXtWXElFllpudjtysilvPzNHFE8FtusPWzkFfQpaG0z2ISsG2Xftx4lQIfH088dD9XcolQCGstRO6p/o8pLI2du49gm079+trKo5DR05oJ+IxqBLojyYN6+Ppfo+pz/eDT75SU12udOrUOZUZMWXiS+jerQuys3Ow/tufcODQcX2LfyfZEbL9008+jlHDBsHR0VE7ET+Md5et0bcovlp+4uQZNKxfTzuZHoMmjeojIioaS977QGUc/JvAAD8smjsd3l7F9TCGDOyHCaNeUFkOVyMBj1vbtsS4UUNUFsalsAi8tWA5OnVohyGDnlTvc/OWnTgTclFliKz95EvsPXAE9evXxYLZr2LU8EHqfb2/6hOcDw3Dyg8+U3U9evfqgTXL3saCOdPg4emOHbsPYPPWnSoL5b3Vn8BLWzbvzSlYuWQunnjsIcQnJGHZig9VNstH69Zj02+/I0j7c5kz82XMnTUZ9erWwsFDx7BwyUp888MvKgtEgiv9n+iJV8YN1/68slRAqcQx7TNcsHilysjo/8SjWDLvNdzf7U6cOnNOBUBy8/4904aIiIiIKhYGKYhukNSCWPXhenUF+L6uHVGzWhV9TfmQk8SO7VupE+cPP/8OORWoU4RkDaz8YJ26Ot2mZXNV5FIyEXy8vVUwYvvOPfqWxewd7NUJ89P9euHFwU/C28tDncBH/YfAQQkJgPTu9SCGDR6Aoc89hW53F6dH79n35+KW7dq0wOtTx6ugyYzJY+Dv56umNMj0iX8j2RINguvATmW9GFA1qApq1aj2p6keV6peLQhDB/XHCwP7q2CB/F1zc3NVGSJTxg/HXZ1vR35+vppKkqJ9LjJNRbaZPWMSWrdohp497sM9XTohOSUVP/y0Cbv2HFB/XyRLxMXZGa2aN9XeywT1fC2bN0ZYRCSMRiNsbGzUNtW0/evf5xFMnfQSBj/bT1tmp6bEyJQbCS507dxBfR4N6tdVr3vg4FHs3ncIBQUF6PnQ/dp+TMSgAX3wyapFCAz0098VVCZJckqKev6n+vZEsyYNMaBPTwRVCcS5kItqKgkRERERVS4MUhDdAOk2sWnbboRcCFNXne/tcrs6eStPTo4Oap6xnJAfP3kOm7buUiegFYEEF+Sqvpz4Ojo5qroHFy6GqWkcYtuOvepnCckokfoOQuorSKHNa2Vna4dq2kmy1EWQTBV5nr/GDiSQEVyvtrYfTup+00b1tRNrfxUQCQuPVMtKk6uzk5pKIaTmiQQzJMBRUvBTAhwlcnIkKBOjAjvPDBmDnv2HqNtvW3eq9XLi/+QTPdW0C8ms6DfwJTytbbdh42bUqlkdzZo2QqsWzRDg74fTZ89j2JgpeOLpYZg19x3tufNUYCIoMAD9ej+islXOnQ/F+Fdfx6AXx+PnX7ao183OzkVERHHdnNvbtVI/ha+XJxrWr6vfK27BKlNFwiOj0PeZ4Wo/h46ejJjYOLX+4sVL6icRERERVR4MUhDdAEmh/237XlWTonGDOtrJarC+pnzJ1e+GwbXV9Idft+7W9uvP0yAs1ZlzF7T3lKlOfL/f8AueGzYBY19+DZGRxSfAUpBRphCUkODBDU+00Z7gbxIa/qQ4WFD8FSpTNiSIoH7+zZSNslCyn1cWhjJo+2Sj3Zcgw+hhgy7fpk4aiflvvornn+mHJ3r1wFuvT0b7dq1Vscsjx07i08+/xfjJs1QB0lrVq2LN8rcwcEAfVatCCnj+smk73py3GKMnzkBsXDxWf/g5Js+Yiw3a9pKNIYGPjrffqgJK6g/h8r79ESiSOjPyuZWwtrZS76FNq1su7+fYEYPx5vSJal9vbdNC35KIiIiIKgsGKYhuwLGT57Bl+z64ujhh6sShfyp6WJ4cHezx4nNPwNHRAbv2HcH50HB9jeWSWgbHTp5GZmaW+lylS4cUiJQaEVIEUk5+I6OisW3HHtUBpDxJpsrFsAikpaer36VzR0RUDJydnFCrZjU1HUKSWWQqkEx5kCKeUkdCioCWNcmsCQoKVB1B2rZugd49H1Q3yfzw9HRXRTGlLoR08Zjz2iScObQFS+bPUsU4E5NScPbcBVVXIzYuAffd3RlHdv+MH9d/gP59HlVBoNNnQ3Am5AJ+/W07cnJy8eLgpzH/jSl47OH74aP9uRTvgyOqa88nduw5gOycHJV1FB0Th9BLEWq58PHyUp9VZmYm7u3aWRU5feC+LggI8FP7Kp1RiIiIiKhyYZCC6DrJ1f33136hTjwfvK+zmiJwM7Vs1ggPduuMtLQMLFm5TqXRWzJpX7lz9wHVVeK+e+/Elx8tu3yT7hFSi0MyRqSwZoF0sChnUtdh1tx3sfLDz1RGQVxcvJou0bplc9zdpaP6+yEtRme99S5mvLkQX3//y/9Nw5GsA1km3S4Oau9DulvcKGmD2q5tS+Tm5uKFkZOwfNXHWLBkFYa89DLGvfI6omLi1H4NHfkKxk95HVt+361apUpXGJni4uHhhhjtvQwb86qaevH+mnWIU61FbdT+SnBDptSov1/a40IuhmLPgSNY88mX2LR1p3rf0j60w21tVVDpm+9/xqSpszF7/lLt9d5QrV1LNGlcXxUPPX3mPF6d+ZYq+DntjQVqX+WzNRpN+pZEREREVFkwSEF0nXbsPYj9h0+obgu9H7lPX3rzyFXuRx/sqmpi7Np7GMdPn9PXWCYpQik1EeR99eh+t7oyX3Jr3qQhgqoEqBPiC6FhqhZEeasWFIgfN27Ba28u0j7vg3BxdcbIYYNUXYxn+/dGcHAdxMbGY+XadaqVZ1PthNzZubiGRYnb2rdWQYp1X36PpSs+UMUqb5RkUgx8qrf2eg1w7MQZvP7WYry1cDni4hLwSI9uaN2iKQY/01cFCLbv2Itxr8zCxCmvqwyHJtpjHrivK1o2b4IXnx+A9PRMvL1oOUaOm4qP1n2t/izGjRqqin7ef+9dqrCpdE8ZPGwCVqz5VGU+SCBD/lwe0Nbf1el29RzSNnbR0lXqz0oyOUo0alAPkye8BBtbG6z/7idMnTUPH2uv46J9TtNeHqUKpRIRERFR5WI9TaP/ThYiMyUWGcnFc/IrMjkhsndwVvPYzU1qegZGTnpTXe1/7OF78MA9na+rSGNpk+KZUqPh8LEzCI+IwT133a66M5gTe0c3OLv7IjcrBSbj37eYjI9PVO005WS796MPqiv4JaTrhJwIu7u7oXq1KqorhGS03NK0EW5r11oVu5Tsigztz6lunZpqWdUqAfqjixmNBaoTRjPtZP2uO25T0w4kY0CKUKrtgwJRpP2Xrj3H/9g7D0Cdyj+Of7l73+sOe++dvfcKEYUSpUiFkpGMCqkQISrRUESRkUpEZGfvvffm7r38n+/vnpfLn7r2Hb+P3u57nnPec57znPOe9/y+5zfc3d1RrkwpVKtSHnONMc3kmI0b1MLwYf3h5uKCyhXKYug7fVGtUjk5bykUPNmssVTgYFnO3q93NQZ7dSQao75U8SLiZUBqVKkoy2T195X9ZMJKJuu0QU8RihjlHyuNShXKSNhLaHi49PWx0sWvrYeVTiiA1DbT7DeFkjZPNUfxIoXg4+1p1lsaA9/qgReefUpyZnibcWvZrJGIDd5eXihVogi6dGqP9/r3RID5LM9l7lODujXg6+ONrFn90bRJfckVUb1yefG4qGb+liheWEJc6tWuhqGD+ph9zQcns/4C+fOYPpdCm1bNzDJFEGD2r1H92hgyqDf27N2Pw0dPoGL5MmhUr5b0od3TLUTgCPD3E/Hj/Xd6m/0rKfv2IHFy84advaO5np4xx+b+eOPweG3btQ/rNu2Ar68funfvbs1RlEfD5s2b8ccff6BAvtySZFlRFCU+LkZe6RUHRxf45ixi7meu58FS0haZzA1V+igDkIE4d3Q7zhzabE2lXyhOeHgHIHMqu8DwC7Pk7zUYOOxTSQI46v2+xjisKMZpamDFmo14671PxFhi3xrUqWrNSR14ZMkJ/9zFEXzhKGKjwqzWtMNzXXpixap1eLZNC3w4uJ/kX1BuhKEg837/UxKbFsiXB+2eai7hJBQnmHiTFUHGjx6Ktq2aW594NHgG5IWjk7u5nm5AXMz98caheDZlxjyM/WIqihQpit27tYyq8miZNGkSunXrZn4LqmHS2MFWq6IoGZnoyFBER4RaU+kPF3cfFKlk7j0cna0WJa2h4R6KcofwyfovfyxDeHgkalevgKqVyqYagYJUKl8K5csWl4STy1aul8ojivIwsbe3Q0REJObM/wOfjJ+E57v2wkvd+qF773dFqKBnSJMG+kRXURRFURRF+X9UpFCUO2TfwaNYv2mHMcQyo+MzLR9ZRY/bQff7N17tIHH+8xcuw849B6w5yv3A39dXQiqYPDJzKhKnUhPMS9G+7ZN4s1tnlCxRVJK5njlzDl6eHhICMnHsB/D0cLeWVhRFURRFUZTrqEihKHcAy0lOm/mrlF5s3aIRShUrZM1JXRQrlB/161SVvAxzf//rvlSNUJJ49+3XMXf6JHTv+gKcnJysVuVmmJfjze6dMXXyWPw8bSJmmzGb/s14fPzBQOTJndNaSlEURVEURVFuREUKRbkDlq3cgL9XbUyq4NDhqVSRLPNWMDniay+2g5+vNxb9tRrrNm6z5ij3ChM85s6VQzwpUlOYT2qE4+Pj7SWVWFgNhd+b1OZ5pCiKoiiKoqQuVKRQlBTC3A5zfl8iifGqV34M2QL8rDmpk7y5c6BKxbKIiYnFtz/M09wUiqIoiqIoiqKkelSkUJQUwEoZfy3/B1u270EWHy+0at4AbslKYqZG2L9mDWtJHoA9+w9j/eYdsh+KoiiKoiiKoiipFRUpFCUFRERGYfnqDVLRo3SJwihfpoQ1J/VCV/s6NSqhfNkSCA4Jwx9LViLS7IeiKIqiKIqiKEpqRUUKRUkBh46ewJr1W+Hs5ITuL7eHs3PaSJjo5OSI5595AnZ2mbFu4w6cOXfRmqMoiqIoiqIoipL6UJFCUf4DVsiYNGUWQkLD0axxLTxWqpg1J21QrXI5NKhTFZevBOHLb2ciPiHBmqMoiqIoiqIoipK6UJFCUf6Dbbv3Yc36beJF8UzrpmmuooO9nR06tW8lOSr+/HsNtu3aZ81RFEVRFEVRFEVJXahIoSj/AnNRTPhyOuLj49G6RQMUL1rQmpO2KFY4P2rXqIiEhERMnTEfMbGx1hxFURRFURRFUZTUQ6armu4/zXHu6HacObTZmkq/ZMqcGR7eAchsZ2+1PHx27jmIt94bhaDgMIz5sB9qV69ozUlb8Eu+fNUGvD1kDAL8fDB2xAAUK5Q/aeZDxiNLTgTkKYHw4AuIj9VEng+CxMQExEVHmAOfaLU8YDJlgpOLl/lrTacRXL38YWfnaK6nGxAXc3/ORZYonjJjHsZ+MRVFihTF7t27rTmK8miYNGkSunXrhgZ1qmHS2MFWq6IoGZnoyFBER4RaU+kPF3cfFKnUHA6OzlaLktZQkSINoiLFwyM6Ogb7Dx3F2g3b8dJzreCaysuO/huhYeGYOW8hqlYsiyKF8sPZydGa83ChSJE1X2ljPyfiqsgnyv2GYxt84UiSUPEQsHdyQ5Ycha2ptEOmTJmREBejIoWSrlGRQlGUm1GRQkntqEiRBlGRIvWTkJCAkLBwREXFIHPmTPBwd5OcELZ8FhcuXZG/Wf195e+dwq8ty4ramTHy9HS3WtMGji7ucPMKsKaU+01mOwd4+uVCdHgQwi6fslofLJ4B+eHs6onQwLPG6I+2WtMGCQnxCDf9TjR/7wcqUiipDRUpFEW5GRUplNSOihRpEBUpUi/8Ol26Eoh5vy/Fuo3bcelyIOzs7VEwf240bVQLdatXkrKgL/V4R5b/7ouP5O+dEhMTiwmTp8PHxwsvP/+01aooFCns4Z+nBFw9/HHlzD4kxsdZcx4Mme0dkSVHEWPkx+HMwY1IiM/Y+U5UpFBSGypSKIpyMypSKKkdTZypKPeR8xcvY8DQcfh62hwUyJcbPV97Hl1feBpBwSF478MJ+GrabCQYI+bCxSvyulsohgQFhyI0NNxqUZQk6BEQHRaEzBT5suQ0LQ82UYS9g5PZlh0iw65keIFCURRFURRFuXdUpFCU+0RcfDx+mrsQW3fsxaA+XTGkf3c83qAmWjatj2/GD0O1ymUx77elOH7yjPUJRXkwhAWfR2x0OByc3WHn8GBzj9g7uojXExOhKoqiKIqiKMq9oiKFotwngoJCsGb9VrRsVh9PNmtgtSbh4OCALh2fRq6cWXH6zHmr9TpxcfHYvH03vpk2B5O+m4VV/2xGZNT12P51m7Zj5tyFOHfhEmb/uhir12+x5iRBz4pTZ87hyykzsXbDNsmJoWRcGOIRFnQOdvYOcHT1NC0PxpsiU2Y7ODi74SqriUSpV4+iKIqiKIpy76hIoSj3iYjIaFwJDMbjDWvC3s7Oar1OyWKFMe6j/qhcoYzVcp3vf5qPPu+Mwsp/NuOfjdsx6INP8fnXM0R8IOs37cC3M+Zh/KQf8OEnk7F63VZpt3HuwmW889EELF25Hjmy+Yurv5KxCbtyFlcTEuHs5oPMtzgf7wdM0uno7IHwkIsa6qEoiqIoiqLcFzRxZhpEE2emTg4dOYEXug3A1+OHoVTxfy/H2Kzta/J34exJ2Lx9D17sNggvdWyNHl3aw9HRAbPmL8KESTMw4+tRKJA3F8ZNnIqvp81F+bLF8FrnZ5End3ZM+mYW/Hx98OJzrfD+qIk4ePgExg3vj2KF88u6FcXTPzf8chRF0HmWI73/ng5Obt7wDsiH04c2ISYi2GrN2CRPnJktW3ZMmDDBmqMoj4Y///wTkydP1sSZiqJcQxNnKqkdFSnSICpSpE4OHj6O518bgO8nfoTiRQparbcmuUgxbNRErFizCdMmjUCuHNmknWEdz3V9G8+0fhyvvfSMiBQ/z/8T40cOQqVypaS6x7BRX8LO3g5xcXHYtnMfRgzujfJlS8jnFYU4OLkiR6GKSEiIQ/C5I6bl/l7uPfxymW244+zhTYiPTVulRx8UyUWK+PgEODo+2JwgivJf8Jzk74SKFIqi2FCRQkntqEiRBlGRInVy5NhJdOo2CF+MfhdlSxezWm/k0NHj8PLyRKfXBiKT+UeRok2nXjh64jTq1awMB4ekfb2aeBV/rVyH4kUKYMZXo0SkWLB4JWZ++wn8/bIgOjpGRIolK9YhNDQM2bL64dsJH6BwwbzyeUUh/A755iwKL788CDx78L56U2TKlBn+eUshMiwQF0/skqoiCg3Cq5j7+xJ8N2Me4uI1N8ydQGP63LlLUgGJ1zkXFydrjnI/qF7pMbw/8HVrSlGUjIyKFEpqR0WKNIiKFKkTJsTs1H0Qer7aEU82q2+1XufI8VNo3q4b+r3xEub+9pe0UaRo/kw3nD57AZXKl/y/XBbZswVgyNvdr4kUs6aMkRAPm0ixat1mvPriM5j1yyJUrlAaA3t3hYN92hgv5eHg6umHrPnKICYqDKGXTjDLqjXn3nBy9YJPtoIIvHAUQecOX8ufoih3S0hoGNp06i1/xw7vj5pVyltzFEVRlPuJihRKakez6ynKfcLdww0F8ufGjDkLcPFyoNWaRGxsHGbNW4QA/ywiJiQnd85sIjzwCdenIwbKa+TQvnjmqWZo1rCWtdStadqoNp59uimebFYP8/9YiuWrN1hzFCWJ6IhgKUfq5OIJByc3q/XecXT1kjCSqLArKlAoiqIoiqIo9w0VKRTlPuHp7o52rZvg2IkzeG/4BPGcoPEWHRMr1Tvm/f4X6tSohKI3JbZs2rAWAoOCsXHLbjg6OMDZyUlyTLz/8URcvBJkLXVrXMyy9Jxo8Xg95MyeFd/+MNesK8SaqyiQMIygC8dgZ84TZzcvxmlYc+4ehnow3wXzUMREpt8nMYqiKIqiKMrDR0UKRblPZM6cCXWrV8bLzz+Nw0dOom2n3mjy9Cto2Kozvv9xPhrWq473+r0qQkRymjasiTo1K2P0hCno/Ma7eKHbQAwaNg5lShRBg1pVrKX+nWwBfujYrgX2HzqGmfMWSsI+RbERGXIJ0REhcHDxuC/hU/ZObrB3cEJsdBgSE/VcUxRFURRFUe4fdkMN1nsljRAedB5hgWetqfRLpkyZ4OTsJrkp0gp2dpnxWOliEktdMH9uCeWoUbU8OrVviTYtG4uXhJAJKFOyiLzs7OxQp0ZFKR3q7Owkn2nX+nF0aPsE3N1ck5Y3sJ0JOZOSa2ZCZjMuBfIlbYMULZQPHu5ukkQzf95csLe/Mb+FkrG5av55ZsmB+LhoxMdEWa13Qya4eGSBk6snAh9QaVMlY8KqRT/PXyx/mzSoiTy5sltzFEVRlPtJfFyMvNIrDo4u8M3Je2zN05ZW0cSZaRBNnKkoyp1i7+iMbAXKmR9sBwSeOYCrVxOtOXdGpsx28PLPCwcXdxzftQJX1ZNCuU9o4kxFUZSHgybOVFI7Gu6hKIqSAYiPjREvLHsHZzi6elqtdw5FCjvzo891qUChKIqiKIqi3G9UpFAURckQXEVUWKBU5HDzzipiw91gZ+8oL1b1UBRFURRFUZT7jYoUiqIoGYTYqDBEhl2R0A9HZ3er9c5w8fDF1cREKWuqKIqiKIqiKPcbFSkURVEyCMxDEXzxmHmXCY4uHubPnZUjpfeFs7s3osKvSPlRRVEURVEURbnfqEihKIqSgYiNChdvCmd3H9g7ulitKYPLZzI/G1HhwUhMiLdaFeX+4OjogOZNaqN1i4ZSVllRFEVRlIyJihSKoigZiatXEXzhqHhROLl5WY0pg8snJiZo2VHlgeDs7IzundujT/dOKJA3l9WqKIqiKEpGQ0UKRVGUDEZsVASiI4Lh6umHTHYpS6DJUA8nF4oU8ZqPQnkgMPiI3hROjo7InFlvTxRFURQlo6J3AYqiKBkMCg1RoVeMIWgPV88Aq/XfcXByhZ29gyTfZDlTRVEURVEURXkQqEihKIqS0bh6FeFB5xAXHSm5KTLbOVgzbo+9gzMyZc6M4EvHzdTVpEZFURRFURRFuc+oSKEoqYQde/ajz7sfY9ioiVaLojw44uNiEBF6Efb2TnB0/Y/cFJkyw87RGQnxsYiJCLUaFUVRFEVRFOX+oyKFoqQSLl0Owso1m7F+006rRVEeLCGXT0noh7Obl+ScuB12dvZwcvFETGQYEhMSrFZFURRFURRFuf+oSKEoipJBiY+JQsilk3B0dkNmO3ur9f9h6VF7RyeEBp0xUxrqoSiKoiiKojw4VKRQFEXJwESEXMTVq1fh5pPdTLG+wv/j6Ooh4SGxESFWi6LcfxISEnD42EkcPHwcEZFRVquiKIqiKBkNFSkURVEyMHHRESJUuLj5iMfErXB08UB0RAgS4uOtFkW5/0RERmPQsE/x5sAR2LP/sNWqKIqiKEpGQ0UKRVGUDExiYgIigi/g6tUEuHr6Wa3XsXNyhb2DC+JiInA1UUUK5cFx9WoigoJDcSUwGLFxcVaroiiKoigZDRUpFEVRMjjRkSGIj42Gk5v3/3lTuHn6i4ARGxUmYSGKoiiKoiiK8iDJZG469a4zjXHu6HacObTZmkq/ZMqcGR7eAf+a0C89sXTlOvQfMhZZ/X2xcPYkq1VRHg4evjkRkKckwgPPIiL4omm5KhU/suQogquJieaas1FKkCrKgyIkNAxtOvWWv2OH90fNKuWtORkPO3sH8/9b54hRFCWNYEyshAR6IKY+Uys6MhTR6bikuIu7D4pUag4HR2erRUlrqEiRBlGRIn2iIoXyKOH3LXfRavI++MJRJJobK3snV/hkK4TI0Iu4cHyXzFOUB4WKFNfJVuAxOJjvn6IoaZfYyDBcPrMfCfGpL3xNRQoltaPhHoqiKIp4S4QGnYWjs7skyiSOTixNaofI8ECZVhTl4SDfQyd3ZMqUWV/60lcafFFkTBIa1dRSlLtBPSnSIOpJkT5RTwrlUcN8FNkLljPvMiH4/BF4+OWWpxHH96xEQmxM0kKK8oBQT4rr5ClRUwwdfg+Z3FZRlLSFV9b8zEwt9+wJ8anv91M9KZTUjsp7iqIoipAQF4OosEA4OrvByfzA8ylQZOhlFSgU5VFw9aoIFFf1pS99pbkXv7+Kotw9KlIoiqIoAktAUpRgPgqPLLlgZ+eIkMunrbmKoiiKoiiK8uBRkUJRFEW5RlTYFUSal52dHRIT4xAXE2nNURRFURRFUZQHj4oUiqIoyjWYpigs8Ky8p0CRqGVHFUVRFEVRlIeIihSKoijKDTDkIyoiSPJTJCSkvtJpiqIoiqIoSvpFRQpFSSW4ODshezZ/BPhnsVoU5RFx9SoundqLKJYe1eRfiqIoiqIoykNERQpFSSWUL1sSX306FB8P7Wu1KMqjIzYqHNHhwdaUoiiKoiiKojwcVKRQlFQCPSlyZAtA1gBfq0VRHiFXr0q1D0VRFEVRFEV5mKhIoSiKoiiKko4IDQvHqTPn/vUVGByC0NAweX8lMMj65MMhOjoGZ85dwFnziom9fXLe8xcu4fTZ8wiPiLBaHg43b5djxL7Gx8fLNImJicW58xdx1rzi4xOs1tsj6zTrCQu/vs4zZhvJ1/kwYABfVFQ0Ll66Iv25eOkyoqKjk2ZaxMXFX+tfQsJ/75uiKMr9JtNVpnJX0hTnjm7HmUObran0S6bMmeHhHYDMdvZWi6IoipJeiY6JwfSffzMGUyxaPF4X+XLntOZkPPKUqIlM5l/guUO4mnjnRuI302bhqykzrKlb82TzxvD3y4Jvps5Eo/q18NHgftacB8/a9Zsx5KOxcHCwx6gPBqF0yWLWnBt59sXXxZB+s3tntG3d3Gp98Fzbbg+z3VbNUbluS3h7e+LbL0Yjd87siIuPx/BPvsCy5avh6emJyRNGIGf2rNanbw3XefLUGbz+aic8166VrNPNzRVTJ41Bnod4ru/cewDjv/gWJ06eRlhYONzd3WT73V5+HpUrlJVljh4/Kf11dXHBzz9MRICfenjeKd7ZCopHIu/ZE+JjrNbUQ3RkKKIjQq2p9IeLuw+KVGoOB0dnq0VJa6gnhaIot2TC5OkoXKGpNfVwqNfyJdnuvUDd9cDh4xj12bdo2LoLStdohbpPdMIHn3yJ3fsO3dFTKz5tenvIGHR+/R2ZTkhIlKePbH/YcL9GTfgWk76bhfh7fLKVmHgVIaFhxhhM2Y3ToSMn5Fzg3/vFT3P+wBPPdMP5i5cRERmFvu+OQlFzQ1Gq+pPXXo2eehlfTZuNy1ce7lPeO6FZ29fw/GsD5H2Hrm+jXosX5QkxqVy/HYpVvr5PPBcfb/Mqps36FZcuB8oy98LZcxfRsFVnbN62x2q5ey4HBqHjq/2xZ99hq+Xh4+zkhJefb4s3unbI0ALF/SA+IV68FfgKj4jEqdNn5RUdHX2tnYa2eFKY9isP+TvGayif0p85+++eFJxH8ep+Ps2ncV63aTu07/yGeDfcivMXLoonQbjl9cDxoueE7bne3yvW4qef5+PkqbNwcnJE5kyZpP3fsK3T5kkhx8HsW+JDfFa4btNWtGjzEv78a4V4ivA3gMd/8dKV6Pr62zKf+yieFKb9zNlz6kmhKMojQUUKRVFuSanihfHMU49bUw+HJ5rUke3eLby5WrthK954+0OsWrsFj9eviUF9XkHLZvWxZdte9BwwHMtWrRex4W64EhiMwR99hqUr11stDwfu15Yde7Fl+160eLwe7O3srDl3B40WikHLV2+wWlIHhQvkwbtvvXbtVaPyY/jx5wX4cMzkFAsqqY0yJYui/5tdZH/4t3L5Upj83WyMN+NPl/x7wdXVGc0a14G/n4/Vcvf4ZfHBk+Z7MmLcVyLEKWmbls0a4duJo+X1wXvXkzFP/mzktfYXO7QBUmBcP0o+eO8tTJowAvXr1LBa7p2Y2DgcOHQUx46fTLFozfH6dNRQBPj7yfTeA4fk+5s3T058PGyAab9zTwOu84sxHyJbVn+r5cHC35Fvvp+JuLg4VK9SAeNGDsY3E0dh1EfvoPxjpUU4nfbj3IceWqMoinIrVKRQFOWW1K5e0RhW3ayph8PrXZ+T7d4tl64EYtzEafJEdtT7fdG7Rye0f7oZer7SEeNHDkTunNkw8duZOHfhovWJOyM2Nha79x/GxfvwFPxOiIiIwmfGqC1XthhyZg+wWu8ePmU9dOTkQ9+P/yJHdn88+1TTa68BvV9B545PY9U/m7Fg8QprqbRFgXy50ObJxrI/Hdu1wKC+r6Dv652wcMkqrNu0w1rq7vDy9ECPl9vLeX0/aFS3Oo6fPIuNW3ZZLUpaJUfWAFQqX0ZepYoXtVqBisYYtbXny5PLak0yYPcdOIyPRn+OYSPHY//BI9Jmg8Lm7F8WYuCQj2X+xq07JLfBvxEZGYWff/kDb783wly/vseRYyetOTdCAXLWvAWy7iV/r0asMaJt/LFoGWbN/g0HDx21WpL6suivFeg/eAQGfzgWK9feKLay2ydPn8XEr6fhrUEfYtK303Hh4mWZt37TVoz57Gt5T+8R7svuvQdk+t/4cdZ8zJ3/B8LDw7F0xRosXLxcxofXUG7nSlCwTFP8+PSLb2W7X0/9CUHBt3en5zpnm/1myAWFg1lzf0fv/sPMdWEbtu3aK+Ewo8dPxpHjJ/9vrNebZUaM+UKWn23GmN5o/wU9NhjG4ejoiOaP18fjDeugcvmyeLJZI/Tq0QWFC+VHmNm/yMgbPQXpQfLLgiXo9+5HmPPbIkTelL+Cnm5Tf5wjx++baTPFQ4ZcvHgFb73zEfoO+gBnzyd5l63+ZyP6mbaRYyZe8wic8sPP1/abUCSZ99uf8tlB74/CtJnzVDhVlAyI3VCD9V5JI4QHnUdY4FlrKv2SKVMmODm7SW6KjACf6PBGg26Wjo4OVuujgyET6zZtR/EiBRAYFIIVazbB1c0FR46exAZjxNDV3NHJER5urnKsGEJwytycrN+809zgHhVDmK6623ftR9YAP0RGReGPv1aJkU33WBu/LFgqrrJ+vj5YtmI9EhIT4G/enzx9DnsOHIGzs5O5Id6F2Ng4+Pp4yQ3Rtp37sHXnXpw6fV5imj3c3WRdc35djAV/rkAfYwTWrlbxmgtuZnMOeXt5mJv1Ipgx+3cUL1oQBfPnxl6zfrrrXjX//tm4HfvNDSYTiPl4ecLe3k6OCfebfW9Ypxr+WvGPucnaIv0P8MuCAP8sst8cq01bd8v66MrrY7bl4JB0DJeuXIfgkDCEmvZ1ZhvHTpyGq4uzbHPTtt0yPiFhYbJN22duZo8xHn6Y9buIOKwAQ5ioLWm7u2S8I6OikcWMD70sEhMTcfLMOWzZvgc7dx/ECXPDzjZPD3f5+4cxkP/ZuA1XExJlX3LmyGpu2IOxxYzpjt0HzE3xKTEcPD3d4GBvL8d/xuwF6ND2Cfhm8ZabXboK07Nj556DkoCNT/W5XzwXeLPOm3N6f2wzLyaWc3V1kWVpYPD47t57CLv2HhQvFydz07x89UYRgegpYoPHIFfOrPhr+T/YbMaq9RMN//O7wfX/vXoD7MxnTxiDe8OWnXLTzNhvN9MH9m+fGa+DZuw4/c+GbWY7DuYccsWpM+exmWO254B4zbibz7iYfbJBQ4T92GrOv6R9dsEvfyyVv0+Zvs37/S85/k+1aCRj/fXU2cifLxfq1qwk40jszd9s5vvA407X76YNa0n7v8G+8Fzhec/vnbOzo/SNx2j1ui3w8Tbnjlkvl+F3hfuX/EUDiLkHEsyxP2wMxU3b9mDP/kPmvAyHlzlXnawx5XctKCQEu/YcQs2q5eW7pTxcMmW2g7t3ANx9spvvagKiwwOTrO57gEkxv58xW973fv1l2CXzxPpnwxasMy9+L2bPX4i//l6NzVt3ilhQpVI5OVcPHT2BV97ob4zJmdiz75C55uwwBvsiY7zGoGK5MnJOJ4fXmG079+Cl7v3ww49zzTVonxin837/03znXEU0YcjFoiXL5dzcvmsPZsz8RT7z+8Klcq2sVtmcf2a97w4bLfkrypQqhnJlSuLS5St470NjvH86yfTlALbu2C2G/rGTp1C9cgW4ODtj6YrVpr8DzG/BMnMu78fKNesxfdYvyJMrp4S5zZzzu4Rx8Lfmollf3VrVkD9vbqv3SXC8gkNCzbyqst2XuvXFiVNn0KZVM/nt+X3hX/Jbzesw18n8HstXrUO3XoOwbOVaHDh0BMuWr8UvZp8rVyyH7Fn9ZZ1BxtiuXaOKjBvXefjYCbRt/YT5PruZPs7DT7N/hYO5HjJnxIrV681vxlasWbcZ1atWFG8nXt8+/vRLEUE2b9uFAweP4I/Ff5vv80GzncfkunNbzGnE/jAvBgUC5plgKAev10ULFUCXF57BUy2byrXFds7wOkph4/PJ32PHrn34c0lSmEjtGpXN76qdnCedu7+FX3770xzHvVi+8h/8+scS8Q7JlTO7CC2bzPlUs1pl5M2dEz+Y4/zttFkSRtK4YR24u7vL53ft3m+2/TiczfV2wJCPMWHiFPNbecoc44P4c/FyOZZlShc3v39Z5VxNCzi7Z5G/vGe/m7wyD5r4uBh5pVccHF3gm7OIud7p71haRUWKNIiKFOmTXebm79NJP4ghUqdGJav10cGcAR+NmYyer3YUY3jA++PE2KPBePzkGfy+eIUYoFUrlZWbml3G6Bw4bJwYcWfPXzI3L2vFCF1hjM8GdaqKEfxSj3fQqlkDMXRttOrwuogYlcqVQtdeQ+BoDPUqFcvg71UbxcijMT1/wVIxbLmddz78VMSCS5eDsHLtJqxYsxGPlSkuCb7m/vaXuOC+P/D1G27Er3MVGzbvNMbhBTzeoKa5Kfwdc35bLE/qaczxCTLX4WOM/aKF88sNnE2kqFerill2ibkpPCbGXkCAr1kmH35duByjxn8rhv3R46fN9N84e+ESqpp9YB9e7/cRNu/YI8Ywx+2PJStFCOBT9GUr18vYzpy3SG4aK5QtaW78brwB4w3//D/+FgO/3xudxXBnv+Yt+Atjv/gex0+dNTfEx2Wa/SpbspgYqkNGfG7Opf2mLxfNtrfj10V/i4jBp+7TZ/0mRnp0bCzsjSHKsX1v+ASsMuN54dJlERfm/b5EvnslixaSm3CbSMF1bDc3q4OHf471W3binDnWFD1o3DNUhwZzYHCohA3MMWNJY3672d9VazfLceP+8PimRKQgFD4OHD6Gw0dPoUHdqrL9f+OMMeLfenc0Dpmb/xWrN+GkuRleumK99K9cmWJyE89z+5cFy4yBsxc/zlmA4kULiMHy3vDPpI1CwKK/VmOb2c9qlR+T8sAXjDEz9OOJ+M0cX4oGnLdj1wE5fuxTSkUKQtFs7/4jIlTQu+LfoMD1rjk2f5tz5YIZS57za825VOGxEoiNicNb741CxcdKwc/X2+znP1hvzisKYTwXFy9bbYySpfA18yqa79efS9dg+NivsP/QMWNwncVvi5bjqFm2utlHm6HJ4zdlxi9yDfqvsVbuL3YOTvDJlh9ZshUyRk0iIkIuIj420pp796REpODT86qVy6OJMRxpnJ8w5wWN0eZN6otnwJJlq1ChXFkxZEsUK2y+j8ex03wHahljNXvWG727jp88jR693zXXmGOoVOExMezz5c2Nw2aaRmzhQvnk+0CRgmKBr28WMdS5zHFjmG7cvM18Jwub62uBZGJBNRELvpk6C1OmzUQxc116pXMHlC9bSvrJvjAUI1++3Oj82ls4f/4iateqitYtHhdh5Nixk+Z6cwBPPdlUvEj+MEZvgPndGfn+AOkjv+PJuVmkGDPhKxEsmfCyuNn/QDOm9MCgN8rIYQPgYb7v3d4cJNdxLtOqRRPre34IR8y1iOP448/zbxApuE56NXR89im5Xvy96h8RVc6cO4/a1SujXp3qUj0kKSwlAQ3r1sDMub9jwpffme+plzkWz6Jpk7oIMv1cv3Gr9LueGad/g9enjVu248jRE3JMf1+0DKvXbRLPGYpOPBYcC9s5k5AQL+GRbZ96Arlz5xRRhH3i/gUGB+OtgR/irBn/erWro0XThvLbuXffQezcvR+NGtSW9zwfKjxWWjw1Zs79TfKAUOCpaI6Ds4uTCBL+fr7o1KGNnIufm/17zPwWDh7wprnm1xRhhv3jQ4NaZlx4j5AWUJHi0aIiRdpHwz0UJZXAeNCVxiCmkZEaSXJlPY733u6G0cPewvsDekgixWMnzsgT3bnGqLXLbIcJH7+DkUP6SAz+qn+2yE3b3ULhwNPTHWM+7I9mjWpj/OQfcOLkOQzp3wMfD+2D0R/0E6Pqi29+EhdhChSlShS+7U0MhYxcxkjn00Abe/YfRrtWj0t4yOej30HBAnlEiIkwN0bJocHW9YU2sj32pW3LxpL0cfykaebGsDI+MX0ZPawvXjbL/G6Mvx17rrsQ0+ODBv5I0+de3V6Qcbl8Jdjs19sY+1F/lC1VDIv/XiteHDfDseWTTBrYzpYHyoEjx812f5B+jH7/LYwy233C3Kx++8NcnDh9TvJucNzGjRiAj82x+GzUOyiQN5cYuBT/+vTohEL588hnenRpL8IY3ZRHmePKY/fp8AFo/3Rz8XLhDXByeMM49adfJdM9l/t4aF+MG95fvBYYksEbSQpLNOCHWOcKx7ZCuRJmG8estdwZDJng8Q0ODrNa/hv2h+cq95/jTmGB+2Nj34EjcHJyMOfrIGMwlMSQkV9I+AT3X87ft1+Tffjks+8kweCUH+ZJUsmhA3nu9cXwd3vBxdX5X925bwe/J25uLjhz9r/Djv5ctlq8lz56r5fpV2/ZF36nKJ4lhyFOHdu1xIjBveXV9/UXxTgrYgzCp55oJK73Yz7/TnJijDHnKo/1G692FO+llf9crxbFMaC3Cr1KlIeHk6snsuYvA++AfIiLiUTwhWOIDrtyz14UKaWAuR6MGNofA/p0Q6/uXcSLZs0/G8WopicDvbw+HzMMr7z0HPr37oYXjGFNQ3bub4usNVxn87adEm7Bp+kffzAAb5vl33+nN5o0qiPXuLm/LhRPMuLm7oYeXV/AoL7dzTJ9xLCldxoTOd4KigsUOIaZZV/r3AG9e7yMF557WhJxsp/fTf9Ztl2tagV8PGwg+r35Kj4a0g81q1cSkeHcuQsishBeT8uWKi5ebHdCDrNfOaxKHvSiKlOyGObMX2iu6YFoXL8W3u71Gl7q0FaMbFYC2bv/IDZYoQwpoWjhghg+5G0M7NsDz7ZtKW3bduyWJJtbt++S36aG9Wqi7xtdze/Ns+aa1AseHm7iBfNv8NrP4zZ+1FARlzhmrGCydt0mfP3dj+g9YBiGjfhUxBkb9Jb48L23zLX0DXPNGCD7zfn0bOQxogDzWJmScm7wvPj04yGoW7uaeJ3MM+fGk080kfXs3LNPQkkOHT6Gzi88I/vCkq4USwgFKXpTMukwxfbYuHj4+HijaeN6GPl+f3w57kM81/bJ23obKoqS/lCRQlGUlGFulls90QBFCuYTQ6Zgvtzy9Ic3TAwHWLt+m7kBaolcObKa+e4oWawQ2rZKukG5W3Jk80ef7p2MgV4cZ85flPCC59o2E68Lbjt/nlyoY262+ESeWerjzI2TzZC/FQz/4A0uDVYbDJ9oULsqfM0NUVZ/PzRrWFv2hzdhyeFTMVdnZ/EuYIgEXeP55JwGJ43ArP6+8DY3u/VrVRaPDwodNug5Qvd5bzNuHD96Qrz4XCsJffEz8woXzGtuGJnB/v8TevKmnk+u6LVhg94e3G7DutVk3ex7k/o1ZBtxsbGoWaUc3uj6HLKY/vDG1PwnITGxsfEiNvHGmk9TuR8MeShWOD+GDOiBPLmyy37SgOB6pU/xN4pMfLK/a89BdGz7hCzPY120UH5zXJpj6Yp1uGLGbtrM38Twf6x0cTlX6KbctuXj4op9N9zsTp4S6AlQxIwrzxMKMmVKFsGipWusuUn5At9+swvKlymBYyfP4PCRk3i6RSPkzZ1DPlO5XGm0al4fa9ZvxdFjp8Tr4bHSxVDpsVKyz1kDfNGqWX1k8bkzA0cw25ZQpBudZm4JPVV4w04BjmIJ+zf6g754vGFNa4kkeJz5BJTHmTfys35ZJB49b3Z7Xo7TTDPNz9PLI7v5XvFcrF2tgoQtURy1wXAhJ/P5IHMclQcPrydu3lmRLf9jcHb1RnR4EEIvnbwvHhR3QsH8ecVI5Pff9pfXKXo6HD5yTKqCVKnbEjkKV0Ke4tUw9vNv5HNr1/1/OXQavjSAC5lrXTFjcPNc9/LwEK8HXnNOnjp3TXzh+VqqRFG5HlEs4DI8fxnKcSvoaUAD9+kOr0pfchergo9GfSbz+ER/9rw/pO8lixVBtgB/+V4wzGDGtxOw7PcfxavjQbBo8d9ybf153gIULVdX+larcRsJlQgNDZewhZRCwYieGXZmP3y9k7wOE81vA3+TbL9d9MrIU7wqsheqiCefeRkh5rrMMI7/gkLNE483wKzvv8DGVQswbtQQPNumpRyD4OBQ/PbHX9h/4Ii1tFneXFNKFC8s12APd3d5cT8JvVf4vlKFsvLbRy9AXu+rV6ko7es2bEW1yuXE64MPBijohpp+tmreWLxeKIAxtI7Hq4K53vKz7IeXWdeu3fvwVPuuqFTnCYwx55qd2X7hAvnTjBeFoij3jooUiqKkGBo7t4I3pHzyWrhAXqsliZJFzA3qTeELdwJvWmxPTo4YQ5FP8em5wcoUfH321XSsWbcFgYFJogLzDvzbE2A+jacAQXdjGxQUeON8N1A0YS4IhoHY+kQDnS61e/ddv9FjzD/DFpJDMccGDcXbER+XYAzUiBtuzhj6wafdyd3xCxXIgw8G9TR/85qb3NzYufcQho3+UsI+GKqzcu3/GxM28ubJIck5R4z9Cu9/PBEDh32KL6fMNDea/y+aMM8IbzZtuTFs0Hi3HaPdew9KLHtyF2rmBKFhfzdcuHjFnAf24h2SUlgpxEbSZz2MwXDKamGbw7UnqMfNOUWxJl+eG8teVipfGrExsRJmQXGGhn1yV/mi5jyy5UO5E+jKH23WyzH6L55u2VgEsP5Dx6L3oI/NOT/DGGOXxCi4FTQOVq7diCXL1qLbS+1Qr2ZlaV+zbqskwPv9zxXXztVvpzMhXaiEhtjg/tErIyg05V4r9wsaxfsOHpFSwfwOpXfsHJyRJXthBOQtZYzpzAi9fEoEisSEGwXSR4mdXWY5H/jd6/NGV/Tt+coNr+efbW0teR0KA4ShXcnLa3Kak2ZXb8C2vGBpdwyDuBW8jtKA7/pi+//rC8MsbKuyGdKEnhk0iJnPIiUJJu8GGtb8rWMeD4bUJO9XHzPNEJN7hePEcD/SuEHtG7bBF5Nf/hsck6kz5kj4zvade+X68+xTLTDqw0H4ftIYc332F1E8ODRl3mEUFwhD5ZJDTwjC+fx9LWh+kxgmwrwZ7h5uIpT4m2saxfftO/fIMsWLFpLla1WrhNGmPy2aN0LuXDnkd33uL39IKM2kKdOlbKuiKBkDFSkURUkxN9xMJoOGDRMn2m5abMgT+8y3yg2RMrg12xZpRPOpPp8GR0ZFXnvlyO6Hdq0bSwJAlmJkbgzGKN8KGvs0VJkjwMat9yhlMPyAN358ymjrT1R0FFo/UR91a92YV+R2Y0f+bR69GpLfcJOI8EjpuC0xKOHYU2wJj4zEp19Ow+z5i1GkcH40bVQLr730jLn5K28teSO86ZtijFV+Jouvj4SuvPz80+jepb21xE2YrrBPNx9rCgFJRshVORY37xOnGSpzp9BwpRjEvBXMu5BSPM3NcHLYG94MX4ceJkl9pAcL3ycXIAj3iSPPfXI075OPN6FnyN2c3/SMYALYfHlvFEVuBYXBT0cMkPCqKhVLS2LYXgNHiIfHrWBizI/GfCV5Pyhw2I4Tc8LIuRqT7Fw1r+aNa6Jh3aqyTHIcHkEcb0RkNIaM+AL9Bn8ioV7pGXsnZxEnvAPyIj7WGIYXGd4RaI7R3ZVHflC4urpKrgjmP2nd8nG8ZYxhvmpWryyicMEC1wVfG0xuSEP0mLnWHjqSFOLFcKMdu/dLoswc2VmNJum7RE885lwgFLtZYYTX+KJFCknbzbCdhmuDejWv9YWhC+yLn38WyavB6xDzINjC55hnp1f/99Glx9sSEvIgqFe7mjl2QM4c2dC96/PSr64vtZeQF+ZpyHaTqHs3UKimVwLJ4uMtogS38/xzT8v+/1cpU37/f1/0F0aPnyT5JmwhjfQupCjE3wJ6TKTU461E8SLyl4lWk7PKqrZCYcZ2/jAMkElRPT08ZP1M1Ll73wHz2R0iIBcx04TJN5lQuFnjevh52kRMnTwWLZo1MteGSMm7Qc8eRVEyBipSKIpyz7AyAsMY1lrJu2wcPHJCbjiTwxtIG0wWmlKyZ/OTEAuGOAzo9cq1V+eObdCkQS1xJ6aLP5+IM0cFPRySw0RdzJVA19s61e6+zGly6L3AJ4yvvNjuWn/69uhsDL+691RKNTm8aaRxnTy3R6mShREXGy9P922wssigD8dj6/Y9kihySP/uePHZJ6WsJMNjbvdkksby74tW4IN3eqJn1w6S56JKhTKSM+FW8BjQHZxx38lZtW4zihUpIOJAzSrlJSEjvSps8AnmocNJ8cd3Ar1GaHDUqFoOWawb9JSw/+D1/Bd0D6ehUrpk0k31zRQplNecL1GSad8mCPE8Ze4QeoOw+gmrYzDkiJ4kNigIUBS6U+jtw5wl1SuXs1puDW/sWR2G3j88n3p0eQ6zvx+HHKY/TAB7M5fMsRwx9msRdBh6xbAVGyWKF4K7uxs6d3j62rna740uaPF4fdSqVsFaynxPzDbDzbHi9+hhQwOdXjp0aU9ehjI9weodbl7+yF20OlzcfRAdFoTg80cQH8Pz6EYxMjVAb62a5roaFx+H517qidnz/5Byod17DcIn4yff8B23Qfd/VtJgouX+743AtJ/mYeS4L6UiBr0yWj3R5JpAyDCmSVNmSJ4Klgqd9+siEdaaN7kxga6NFs0ayvfizX5D8fMvCyQnBrcx4pPPsXPnPrzapaMYvUuXr8GnE6fgjyV/S56Fv1eslb7yiT03ze3TSN+8fZfk1rhXXuzYDr5ZfPDrgiUY+9k3WPjXcnzw8Wd45/3RmD5r/l2FrN0Mr73lHyst380//1qJL7/+AX8uXSmVPj4YOR4r12yQvBhdX++Puk3b4Qcz7slhaFGj+rXh4OAoZUuff6UXhowYh/5DRuLx1s+bYxGGgvnzIO9NHmW3g2EjXHbLtl1o3/kNTP1pLjr36IdVa9bLNeq5Z1rJ9TNvnlxyTJeZY8JrKQWsqubax3ARloGlNxqTmJKj5po6fPRnUgqXghWTKWfKnCQoM6mnw39Ud1IUJf2gIoWiKPcMkyjSO4G5Eg4ePS7GM8shzpy30FqC7rt8CuSJdZt3ICQ0XMpiTvzmp/97en07KjxWUvIyfDfjF6n2EBYWIcbeF9/8iE8+/15uXCtXKG2MrrpSNYPhCvSaoBF++OhJfDt9LkZPmGJu0qpLxYW7wrqxpgDCp05tnmwsxveSFf9IeUpWwWBJyD7vjJJSrPcDV8tIPpjMwGcpThrLS5ab7RqDjgk8Z81bhI1mmwyRodsxXWnpMs/9/3PZGil/yjHiU0juBXeF3imsec+bQB4P9p9GIst2Tv7uZ3kyyLCE5DAfQ6lihSSshdVKaGTs3n9Ijn2dGhUlDKFNq8ZSvWL1+i2yTlb4mDJjHkLMsv8Gc2awv7YXn7x+NXW23MS++mI7aylIiVGKMvSyuB08JhQCuH0uS7GjZdP61twbKVG0IEoaI37Or0uu7RPL7/65dDXq1a4i3gyN69eQJKtSUtas89yFS1KVhQLCv0GBhMeI+8OKNExSOvqzKbJP9WtXlvnrzXeCZWZvJj4h0Yzzrxg3caqUcZXjaQwqPo2maJccng+sVLJz70H06NoeObNnleX54jaef6aFHPtFZp8oZvA7yHP0rfdGm31ab60lyauEQkXyCjzK/SGpekdBBOQtTUUGoVdOm9fJVJn53wYFr3atn0CNapUQEhKKfu98hLfNi+dS+7ZPShWKm2EOiKGDektCRVbAGDB4BKb9OEeMeIYltGza0FoSErpBAXaQMebHfp4ksHV4trX5Pfl/7x5CgYPJGPkdYF/69B8mCRhZlYRGcdGC+dH3jVckweOUabPweu/3pIoF82Nw20xkybwKnM+8K1zHtl17rbXfPQwFG/hWD9n376bPRvde72LerwuR21w7GP7B7d4rNNSfatkEzz/XBvYOdhj72dd47c1BYEWM6lUriGcFq4BQ1GUi5JvFF173O5nP9jbL5cmVQ0I+vp7yo5R/5XWydMliGNC3h5QOTQm8LnJ5Jr3cYK6XAwePxHJzfWR4x1s9X5VtUJyoyHwTVngavWjoSUHPCXqqEYbIeJrrIWlQt4Yc38iISPR8a4h4vyz9e7W5PhfB8+2fkuumoigZg0xXbY+NlDTDuaPbcebQg3FZTE1Q9ffwDkDmDFI+iMZP/yFjJf584exJVuujIynnwwwc2rJIkgZ27zsMH7zbU5JMkgvGMH6552CpVsESoxQMeg4YLp4KDLs4feaC5DrgzezEMYMllvj9UROlLGShArnlqVbdWpUxf8EytH+6Gbp1fhb1Wr6E1s0bSNlTloj8yRhd/Cyf3BMaYBQAeLOVLcBXhAHGG7OSCJNGEm7/+5nzxYh2c3GRXAhJxl2wiAoMfWAOCD4pHzdxmjHet2HOtPHyWUJjm0kHJ37ynjyxYtUHPp2a8vlH5m8wOnUbYPoeJUbfM081xaz5i/D9jF+RPaufJB3kOFQoVxJDB7wOH7PtZm1fE68EPgEnrIjSrN1rWPjzJEmYSX6au1BCLuZM/VREgOSwn19+N0uM1ZULpsqTSHqF/Dh3Ab6eOkdyQzAMJig0FIP7dRMxZ/Dwz6QMacF8ecQ91tPLXSpkLFyyGk82q483XumAQR98im079slTdE9PNxnvAvmS3HJpqDZuUB3TfvrN9DEP3u372rU+03uExjpd8hl7zPKlp80+58ubCx++01NKnFK4GfP59yKOMNEjw2Hoyk/DnhVSeHxZBpRlTb/57AO58WSfKT7kTZb35HJgCNzN2A1+uzuqVSorN+mkYr22xtCph7d7dpGni8lhzpIXuw+SMaf7OJNEnrtwWUp2vtP3VclDwXN7xuw/sGHpT9angP3mpv7tIWNEGMji7YmTp8+jVPFCGD64lxggFGtYVvWv5euQP09O8aCgdwXLldKg/2HSSHTo+raICdO/+lhEgsr128mz8exZ/UU44rnKc5bC3IghvVGtYlnJd9G97weoWL4U3unzSlJnLPjzzDEZMNRcFwL85HyiwMCEsvwuZrqaCS+Y83HkkL7ynWvzYm8pI1imVDHYWWNFalWviA5tmmPOgr/w1XezzfnvI6FBLMVbvGh+c9zevJYXhR4w/F5/9en7KJQ/t7Q9LGgotenUW/6OHd5fPHLSC/aODO8oDRc3H3NNjEDYpdOIj4sSseJBw/FkuU/S7qknxHC0QRGBLxrX1aokedScv3gJq9duFBGQSRV5Hl4y18CDh46ZeRcZKIU85ntdrEhBMfhvB8WDA4ePSi4Idzc35M+bWxJ0UrDmvPWbtkmOBZYbpWEdZL4bDBUpW6bENWOUHgHHTpwS0eOljklCJatLsLzpqdNnpW8sgcrkjhRIeY3g03eGmRw5dlLEZIroNIptRjOvqQwrYLlT/j4xXCSnhKBch+MVZn6jWH60cMF8mDnnN/OdcUKjejXFI8k2bgy/YPlN7hPFPYa4sOIFEzlTMOZ26UnA3B6yTnM9Llu6uFTw4DqZG4cVQRgauXX7bvlsoQL5pDwn4X7QU4H79nijutLG6yuXY5nYiKgoye/ABKXZzW9BjNnfVf9sEAGmTMniMi43w30+dvIUTp48I2NJLw9ewxi6w5ARJuy0nTMUElhhg5WxyJ9/rZDPsI37x98LhmewSkdQSIi0FTC/O9xnW9ll9vfvlWsl5KdkiaLmulpExmHp8tWSJ4eJNnk+2eD6KbKcPX9BkmEztIXlSymesG9pBe9sBeX7zXv2hPjUl0sjOjIU0RF3Xp0qrUBPtSKVmsPBXHuVtIndUIP1XkkjsOZyWOCNrtbpEd5sODm7iViREaBxwOoIdO3v0O4Jq/XRwfwNTPjYqF51cb1mHf3K5UuLYUZoyPJGhhUP2Ebjml4Mjk4OcuPVvWt75DE3Fay80bxJHRELKpXj53mTHo9mjWrhWWPkBwaHoWzJouYGNhcuGGOyjHlf0BhH9FbgzRONSz5dIxRwnmxeX0QKbp8VJFj9o7T5jM0ko/HFfiaFfjhLHG/5siXQr+dLaPcka+Zfd2PnPjJco3KF60nNeCPFm6vyZrvcDz5Vp4HIdTDvBkMDJGa6cH6pisEKFnwSz8/xRrJDuxZ4pVPba/kPGGbAZJbsE+GTLt6E1a2ZVAWE8CbOwdys0xC3PV2ywe8B2/5cusZsx9zwmps53vCWMjef3C4/S0+LN7u9IIkeWd2kakXGAruIeNGwXjW8+drzMo7GRkaO7AGoULakVdYz3ox7DrzwbCsxfFnutHzZ4lL1ouJjJeHi4mTGy1XCP6712d0VAeY4NG5QQ8aJN41NG9dB3x4vSqUSW5/5mSIF88iNfoliBTGgz8v4beHfUk2jYrlS4sXB8WVJTN7g88k+RSVWArG9alUvjz5mvaXNvtoECrJxyy64urmgdrWK/+dGTS+e+X8sQ8dnWsj5GGaOX4vH66Fzh6dEbCA87tw3niM2KIRxWvJQmBvLNi0bofvL7eFhHSMaUzWqlJNxoxBWtlRRvN71OREceJ5THKIhlytHNlSr/Ji4OVOw4DSFHO4Pz986NSth6IAecu5wn/gUec/+QxJTbhPabHA+S8c2bVhTjAFx165TTfrFSjT8LLP6czz5dPL8hUuSvJZPJXlu2V6sxMNzhd8t9pviDQ2tdq2boMfLz10bF/LLH0vlu0QRiMflbuF3hIaak6PTDcfu36DB8vP8xfK3SYOa8qQ2rSPVO7z8kb1AeTg4uUreidBLJ5AYf6OH0oOEwiarJvB187FglQW2M0mhDQoKfHLNdsLP8DpAQ5LlO/miUW+7Lt8OeklQmOC6ChfML78TNs85zmPoBY11MZDz55Hl8uTOKetlwk16AjBUgkIrn7CXLV1CPkthkrkfbH1hv3j+2/aN2+B+cd1cJ4URm4BB+JcGPcUR7mPysCgb7C8/a/Mo4nLsry1szjZuFBRs+yTVOMz3nKKGzDN/mY/Cljzatk4/36TfUC7D/vM3i+IJ94lttvKmhOuzrcsGf9P4m0QPBs4rYMaY+8D94vWLfWI7xYtbwf7yesRxYX+4XxQVuA5b3h3bOcP+8Tptg/1gO+cT9ptCDSuSsKIK10lRIbmYwP7a+srfDsJjzO2yjTmMksPjy+tm8SKFpH9cN4/fzTmBUjvO7knHmffsqdFbKj4uRl7pFQdHF/jmLGLO94zxoDM9op4UaRD1pEifpDZPivsBjUU+Lac3BA015e5gvoQ3B4yQp/PMNWG72U6tMD8FEx+2f6q55Kjgz8yhoyfxwmsD0P/NLmC4yr2w8K9VUjaUISD0XkmOzZOia6c26NiuhdWaeuFT3fkL/xbPjyb1alitjwYKcu1f7ifeLk82a2DOM2vGXcDjzzAVipz1a1WR3Ab/dd6mN08KOwdHePnnhadvLlrGiAg6lyqTY6ZGwiMiMPyTLzBj1i9wcXHBhNHvi8eBoqQV1JPi0aKeFGkfzUmhKIqSyqGr7ds9O2P77v04efqc1Zp64VPNH2b+hk8+/w4r1m7C9NkL8M4HSaEsfOp/r7CyxRNN6vyfQJEWCQoJxZlzF/BYqWJWy6ODeUtI9Srl7kmgIPTMYYWR8ZOmo0e/D/DnstXi+ZFRcHT1RNa8ZeCTNb8xUGIRfP4ookKvqECRQuhxxjACehg99eTjqFyhrDVHURRFyQioSKEoygODeSjExTeZ66dyd9CFuHH96pKYk0/fUzNlShRB545PS8LK90d+gZlzFiJrgC++Hv++5Ky4V4a/1wt5k7mnJ4dhM9my+l0LpUnt+Pp4442uHcSD6lHCkK5lqzZgQO+u1/JT3AuMTe9izoG5P3wquQBGjP0Gfd8dhU3bdyOcJXTTKZkyZYarlz+y5SudVL0jPAghF48hPoalE9VxNaXQvf+Hr8Zh76ZlGD74bZlWFEVRMg4a7pEG0XCP9El6DPdgmAKTTNIQYx4F5d5g3gvmkaBHQmoP+eBTc4YPMJcJ46S9PNz/L8nlg4C5Gy5dCQbL4qYVoSI1wBwvrBxCgeJ+n1tM1MfcNL/8sQxbduwREatt68dRqmihG86JtB7uweodnn654e2fRzwmIoIvIDo8EFdTuaioKMr9R8M9Hi0a7pH2UatBUZQHBsMUaPSoQHF/YDJMJiBN7QIFYShGFm8v5MqRVYS3hyFQECbSZKUVFSjuDH5HeZwexLnFBJxMLMrqJSMG9zYtmdBn0McYOGwc9h08Yu7j0/6zEibFzJq3FLJkLYCEhHgEXziOqLArqUqgYDWK3v2HYcxnX4kQdL9gZZw9+w/Ke3p5bdi8HYFBwTKt3AiF+6+//0mOw19/r8bFy1cwbOSnePvd4Vi3cau11J1BQXj5mvXo/94IfDT6c6mcoSiKktZRT4o0iHpSpE9snhQ06uf/+JnVqiiKkr5gactlK9dj6k+/SmlgliBuUr8mWG6WiTvTkicFf6ec3X3gn6uElBmNiQxB6KWTqSKb/+FjJ3Dk6HH4+/mifNlS+HPpSrz0Wl+ULlUM074ah2wB/taSd8+uPfsx6P3R6N/7NdSsVgnrN23HmAmTMW7kYCkZqdwIqyS98dZgLF2+Bv37dEeLpg3wTKceUsnkw/feQodnWltLppy/V61D19f7S6lnljyd/cPEaxVElEeHelI8WtSTIu2jIkUaREWK9IlNpOCDzKaNNIu5oijpG5ZP3bn3IC5cuIJ8eXPi1Zfa4bPJM+RJcFoQKezsWb0jt1TwICw1mBTekToShH468VuM/2IK6tWtjilfjH4gIsUrPQcgR47sePXF9lLWc8jwceLx9forL0jZUuVGoqKi8NOc3zF5ygy82b0zGtWrha++/xF//Pk3evfogratm1tLppy+gz7Ejz/PR7XKFdCpw9NoXL82XFzUMHvUqEjxaFGRIu2jIkUaREWK9IlNpHBxdkLv7p2sVkVRlPTJ0ROnMHPuIsTFxaPHK+1Rt3ol9Oj3oeQySe0ihb2TCwJyl5Qb4djYSIRfPoM485dGSWrhkwlfYYx5NaxXEz98/ekDESnqNXsGFy8Hot+br4qB3Pzpl3D0+En8OvMbFC1cwFpKscFb7oOHj6Fnv6H4fvIYcwz8cPLMOXR7cxA+Gf4uShQtZC2Zcrr0eBsLF/+NN157EYPeet1qVR41KlI8WlSkSPuoSJEGUZFCURRFSYvwloNG7ap1mzHp21nInSsbenfrhLKliqaJxJms3uHimQX+uUrC3sHJ3OQHI+zKaSQmxFlLpA7e7P8+fp77uzUFlC1TAs+1eRL9B49A0SIF0fHZpzBzzm84ceIU6tWpgV49OqN4kcLiycfxnzN/Ieb8uhA7du5FzhzZ0OHZ1nj26RbIGuCP5FlLnn3xdZw4dQY9ur5glmmFjl3exKEjxzH92/HImzsnlq5YiynTZmLd+i1wdXNFyeJFZNtNGtSGp4c7oqNjsMAY2OzL2nWb4Ovrgzatm0tfWdGIHTpw6Ai++f4n/L5wqeS2eaVzB3h7e2PlmvVo8Xh9HDbbG/XpJNStVRUTx30EH28vLDPbff2t9+Dk6Iipk8eibOkSuGTOu1nzfsdcs28UCvLlyYUXOrRBm1bNJLkzBZfDR0/gpefbmfV7YuqMOWZfM+G5Z1qj8/Nt4ZfFR/b5zNnz+MmM7ex5C3DWvC9u9ul5Mz5NG9WFr1mGYTZTfvgZi/9agXPnL6JihbJ4udOzaFy/ljFWE/DpxCkokD8Pnmv7JIKCQ9B34Ido0awhWrdoIutPzsEjx6S/839fjAsXL6Na1QpmW0+hbs2qCI+IQMtnXsaJk6etpWG+Tzkwa+oXyJ83t9UC7N1/EA2eeA61alRG65ZN8fWUH3Hm3Hk8+URjvPpSB/z8ywJ8P302cmTLile7dMCTzRtJGemo6Gis/meTzNu4ZbvkrWncoA5efuEZlCpRVMrELlm+2uzrLKzfsFXKxbL9+fb05qgJd3d3Eax47H774y9zXoUijzknmjVpgPZtWqKgGQPmMFm/aRu+NeO1ctU6RMfEyDnCMW/7ZFM4uzhj+849GPfFt2YbWxAQ4CfrP3nqLKb9OEeWXTz/B1wJDJb94DnPY5vXHNvn2j2JZ8w56++bBecvXMKPc3418xfIeGU166lRtRJeNMe6nPluPIhy1ipSPFpUpEj72A01WO+VNAJdSsMCz1pT6RcmcHNydhOxQlEURUnbREZFY826LZgweboxenbhpQ6t0b1LezFmaRzHxMTi5/mL5W+TBjWRJ1fqymmQ2c4B3gF54ZujiPldyoQI81scEXweVxPjrSVSDyFh4Th37oIYthQZnjaGOBPZLjKGc5Q5Dlu27ZRKOHHmtXvPfuw0r4Z1a8DFxQWjJkzG55O+lySPhQvll/CbZcYYPXT4OGrXrCIJkW3UqFYRTxvDlyKAs5OTMfzMtNlW7pzZsdYYlX0GDpN8CxRC/PyyyLaW/L3KGLBueKxMScyc87skjjx//hKKFSkoRusKY6zu3L0PVSqWk8owL77aB6vXbhDDmZ6GG7fswO69+7HOrJ/9o3D0z4bNyJc3F5o/3kCWO3b8FBYuWS7GJ41/bvvdD0ZjyrSfTa8zoVCBvCJa/GX6ctn8rV29soRMXL4ShFOnz2Lnrn3y2eDgEBFPKK7VqVlVxuL1voMx2xjEiaYti4+3GMCL/1qJS+azOXJklSSYS5auhI+Zx3P70JFjZvzWwN8/KTcIX4+VLonM5t7G0cFBxJUypYqb6RuT1u49cAjde72LxWZdTAjsYcaMggw9YhLMOFUoV1oqPvE4U1gqWaIomjaqh+pVK9xwjC5dvmIM+rlSZnjz1p3ymbDwcGzdvhtbd+w247hV+nHcGO8bN29H1Url5Jz5w4zfgMEjcOzEKRF0HBwcZf723XvRwBxPfrbvoA9kjOrVri4C067d+2VMWYKYY9yt1yAsXb5WxISSJYohJCRUEobu3X8I9etUx6kz58S7Z8++g8ifP7eIEMfN9rhMFrO+q+bfm/2Gmr7ukvAhu8x2WLV2PY4cPYGIyEgRG1o90cQc208wZepMJJrlCxfMjyvmWPy9ci2CzPaqV6kowtCkb6bLMahaqbwcz5VrNmCb2Ye6taqJsHW/cXZPygvCe/bUEgKWnPi4GHmlVxwcXeCbswjs9EFnmkWtP0VRFEVRHhh01zxijMaBH4zD+6O+RImiBfHpiIFo07IxfLw8RaBI7Tg4uyFr/tLIkq0QEhJiEXLhOCJDL6VK44M83eJx1DeGIylSuAC6de4oRi6hENC7x8uY88MkvN37NTH+jpvjQ6OYXgvfTZ0FL3NcPvtkGKZOGmv+fmAM0CzGwN0hT7WTkz1rgDy9p1cEyZbVH3nMtIMxemmo01hs1/oJjB3xHr4Y+yFef+1FSah58dIVmTfpmx/EcB08qBemfTUWX3/+sRjIu/ccwNIVqzH310U4eOgo8ubJjc/HfoA50ydjQN/uuGQ+fyew4sgvv/0pHgyTxg/Hd5PGYNzHQ+BtjNPlq9dh78HDshzHholGPx01FD9P+xKtWj4u7WvXJ3mvrlizHmvWbZTElJ+az8+ZPgnv9HtD8nD8tWwVPh4zUZKJ5sieDd9OHC37NMjMp4hAI5lCnYcZK3v7pCf3dnZ2YiDfXAErOiYW4z7/BvvMMalWpbyEhsw223rt5Y6SePbneQtw8vQ59H79ZZQoVlg+U6dGFfR9o6t4hdyKwMAgDOjTHT//MBFtWjUXkeTk6TP4cPBbmPn95yKU0LODZYJDQsMxf8ES8VDo17sbpn41Dj98Mw4tmjeSY7P479VY8Ocys85gPNv2STm+E8d+hNe6Po+cObNJ1RKKHhQB8ufLjZHvD8D4jwdjzPD3UKlCWRFM6HHz98p1ci5Q7Jo8fiSmTh6Hzi88I/2dOftXLFi0VLwx6BkyecIIGe8BfXuIQGFzBN+xay9Wrl4votDnYz7E9+bYfmHOldy5coq3C8WIJebYJJrv6gfv9pW+fvvFaDRuWFvGn/usKErqQ0UKRVEURVHuOzQiaOT8+scy9BowwhiWgRg+uBd6dXtBvCRuLnfqYG+P6pUfQ+0aFW9raD1sksI7fJEt/2NwdfeT6h0UKOKiw8WVO7Xi4GAPO5shzCf2jg4SOkEoKjzeqK54HvCpvpsxsGmcxxrDmE/HY2Jjpe3osZMSUnH27Dkx3MMjIuUJdkrx9vGSY/zDzHkYPuYLrF67EdWrVsS8GV9hyIA3EWcM1XMXLorRHhoSJsbk/gOHTf+yixF7+sx5rFq9TtbR0hjH9GTImycn2j31BEoUL2JtJWUsNUY1c5+4ODmJ6LHKbItGu7eXJ4KCgiWshdBwr1G1gjkPy0k4QsVypeHk5IiYmKQnzr8aw53ndYdnn0LjBrXFw6DVE43x7ts90e3l50Vc4HboYbFn7wHZp5joaPEyOH3mnBj1KSE8PByHDh8TI7pW9SooV6akGOo9Xu1kjP484h2xbccuCWfJbJYhFD7Y19uVEaZwUrF8abNfec34FZblGcLStHE9CQFqWD8pYTc9bYKDg7F5yw7x4MhkTvN/1m/Glq27ZHmun6EWWbJ4y/up02dj5NgvRbypW7MKfjHH9523XpexdXRwlGP6zrBR+MWMHUNIKO5wmepVKkiozW+zp+CNV19CELe5bSf2HzwiQgzL2J46dVbGu3q1iqhRrZIc/7bmMwwZse3nPrN+hpIw3OT8+QtyztL7w9PDTTxxlq1YLZ4dCQmJph+j8f2MOSLI9e/VDb/O+ka+A4qipD5UpFAURVEU5b5z8MhxDBw2DlN/mo/n2jbH56PfRQ1j/N3OiGJFgnf6voqP3n0TRQvls1ofHaze4Z01P7LlK2uMNUeEXjmNkEvHkRgfay2RNmFeh5uf3NuwPVVmzoIvv/4Bo8dPlhdd+rNn9RcjPqUwDISu9AyboCHbs98QvNC1F3r0fRfrNm0TMYTCCMN7vp0289q2mG8gV45scHV2xtnzF0Vw8TfGMcUWwr/lypaU9ynlwsVL8pf5CiZM+u7atmiQZ/X3E5HGRmaOzW3O0aPHTpgxsIOHMYgzW8vQGH++/VPo+lJ7FMqfV4xq5j2wbePbabMkBCXAzxeJV69v599gvgeOC0WHrP6+174zHBNvT08RQoKD7z2fANdry8cQYLZjgyIRRQOKBV9//+O1fVm0ZLlUcYk385nvgeE/XMd3P8zCG28lHV+Gw2zYskOWe9mMCT1jNpnpQUNGokv3fmj/0uv4ZupMESwiIyPx1Xc/olf/oXjz7ffxidnGETPG3F2KCsxRQRg+ZBtvezt7Mwbu1w5RWFi4jAcFCls/P5v0vYTz0GvHzc0NXTo9iwLm2Jw+fRYjx3yBV98YKH0d/elk9aRQlFSKihSKoiiKotx36IVAr4hxwwegbavHJSfCv0Fjh0/85enwHRjDDwImxfTPUxJZshUQN/HgSycQFXYZV5MZsw8SeydXuHoFyBg+TBjGQEqXLI7vJn2CeTMmX3vNNS96MaQUPrGfMHoopnz5ibj703sjJjpWvBhmzPpF8mFQMOE2vxz30f9ti6EN2bL5i8EeGh4uxj9hPobdew/I+9tB45ZGro2cxlglNatXwoxvx//ftlK6XxQkxOsk9nqi1OCQUPxg9oeGNyvW8DyuU6vqDduwbSdn9mzWp/4dm1cEhYoLl65c2/dIY9gHh4aKcMOQnAcFv4N+fr5yfL6aMPL/9uWn779A4QL5JCSIx3fE+/3FsyQqOgYrVq+TUA0et97du0glmc/HfICXX3wO2bNlxfETpzHx66mSC4MCzh+LlqFs6eIYO/I9s+yneK5tK7P/DiKkOTsnJT1k7grmACE8/hGRUWZMZFKSnPK6waSdN/eTL/aB3i7Tv/kUX44fLiEy9BzhOqf+OEc8MRRFSX2oSKEoiqIoyn2nSMG86Ni2BfLlyXntaW1qh4maXTyyIEfhynDz9JMM+IFnDyAuKuyBhndQjLBzcIKTuze8sxWCb85icGHiPdvj4nuABjUrQaREYGG+AHq0HD1+QrwYHI2xGhwahj6DPsCrbw6UZIsphckK23R8DYuXrcITTRti5LABaN60gRjcTN5IF/xcubLj7Lnz2LZrr+Sx4BP8twePwEvd3pKcBzWrVxZR4HdjyK76Z6NUEpn32yJJbGnD28tD/nLeXmNwMlElXf6joqKknTRrXF8M7wOHjorR7+jkKFVmeg14X6qA7D90xFry32FIBPvPvm3ZvgvnL16S6iQfjhwvVSzojUCDmaESl64EwsnJCbv2HsDzXXuZMfxQvAdSAitjFCqYXzwZ1pj93rZzr4QwTPxqGo4dPynhN0yc+aDIksUH1SpXEE+TRctWynlI4ZBVTV54tTf+MPs8avwktDXHd/mqdWjZrBFGfTBIqn/Yji/DhZq3eRHvDhstIUbMl/HBu30k9CU6OhahYWGS64MhJcyHUbZUCXOMHHD0xEkJBaJAwcSj3O4/6zZjrXmdNMeYiTlZvcUm3FCc8PbywhGzvR179ss5Gxgcgvc+GoMXX+uLVes2SvLVzt3fkq9w1xfb49svR0syVX436NHD78dis598cZ8VRXn0qEihKKkEZlpn5nDG/SqKoigPl8z2rN6RD1nzlYWdec8qWqGXTuCqMRQfDMbws7OHo6sX3H1zwidbQXj554O9g6OZd++CCCthMKfBjt378MmEr6Xix39RIG8eKfEZER6JPsaA72SMu6493sb6jdvMmNij8B2E4ZQvW1JykjB/wWu9BqHnW0OkyoWrizPKP1ZKSkN279pJxIrRn04SQ55GJXNX0MuiVIlieKrF41LBg3kNuvV6R0SPDz6ecM1AJfXqsLJEFpw4eQbdzXaefekNESm47zbKlCompU1ZPvT1Pu9JRYlX3uiPjZt3wMfbG0UK5reW/HeefrIpihcrJNUoKNqwvx+N+kwM3dZPNkOv7l1QumQxnLtwCa/2HCiG8VuDPpQkl1Url4e7m6u1pn/H2ckRfV5/GcWKFpLKJS+91gftnu+GL7/5QYz2tq2fQImiSQkzHwTsZ/Mm9aWkKkuWdnqlNzq+/CYmfjUVcbHxUpmjUvmyUg2F3hA8vm/0G4xVZtyZz+Qxc+xz5cxm1uMmeSZ69X8fvQcMw4ejP5MwlZIliqCi+TyrfvDehyVoBw39GK/3fU8qpRAHezsRP4oWLiACzas9B+Bpc/wHmuUoQNn0O66D+UooevR/d7gIXAwrWb7iHxFH6tSoiiKFC0o+lYFDRkrYUXdzLjGEqWCBvMidMwfOnruI13oOkher0SiK8ujREqRpEC1Bmj7Ztms/ho/7WkrzNapbzWpVFEVRHjR2Do7ImrcMPHxzIjExHiEXj0uSTKQwh8CdktneEW7e2eDmkx2uXn5wcnFHbEwkAs8dRvDFY+LFQaLCA+/ag4NVO5iDgeU46aFAo3bp8jVStrG1Mf5pQLJ8JpNBxickSDgGBQGKAzlzZcdpY9CzpKSLixM6PNsa/Xt3k8od/G1OCTmyZ5Wn3OHhEVL6kt4ZdLPv/UZXtDEGPStiFCyQT6qPMC/Ath17xGBt9nh9vNuvpwgLDGlgSUyGVBw8fFSekrP6A3M7cL+qVamAZo3roUSxIuJJwaf39DBgxYlt2/eIIcsSpMyP8FjZUrLvrDpBkYHhRy+/2B49u70ongl0/aeows/Xql5ZRA5W6vh75T8S5vFix7ZigFcx/aGItHvvIZw5c94Y3IXRt+creL5da9kOvVG8zLoprBw4eEQM4Z7dX0LHZ1pLmdaUwj6xsgfLwtLAZkWTKpXLyXF49ukWEopBflv4l3iPsF/s983YSpCykkm7p5rD08MD23buSaqIYdq4X4RiFs8PJjetYcY1T+4cUtaU3h88D2jUN25YR7ZfslhhMe5LlCgiOSF4fFkhpphp72OOL8UljhnLfbq5u2Hf/kOSl4LeLO3btRIBhh5WZcz6LwcFi2cMPVy4/krlykhVEIp4bVo3s8JIouXYUqB5vv3T8M3iLZVoAvz90Pn5Z2TMmRj01Nlzcsx4bvHYvtmti3i3lCxeGDlyZJfypixnygdCXO/bvV4T0YlJOhmuw+8BPS0onN0rWoL00aIlSNM+ma4ml6OVNMG5o9tx5lBSOaz0DMUJD+8AedKUEVi6ch36DxkrSbIWzp5ktSqKoigPChrczh5Z4J+rhNzURkcEI+zKKSQmxFtL3CfMdvhbZu/gYowXb7h6+kn4RXx8DGIiQ802zyAy9PI1D4E8JWoaEy0TAs8dSpUGzqOmW593MP+3xWIQ93vzVatVSU8wB8W58xdFQHB1dUb+PLlFpIiIiMQ7H3yCn+f+job1akrOi/vBydNnxZtn1tQvkC3A32q9e7yzFRSBkffsCeZ7ntpgKFt0xL0nX02tuLj7oEil5ua6npTXREl7aLiHoiiKoigZjsx2DvBieEeeUlLJIyzoLEIvn7yvAkUmO3s4OLvD3ScHfLIWlGohji6eiAi5hMtnDuDs4a24cHynTOszI0W5TmJCAubMXyhVOF55Y6CUsl3y92pM/u5HrFi1ThKLdn7hWWvpeyMiMlK2VbxoIfEuURTl0aMihaIoiqIojxxm7T955iyOnzotVQweJA5OrgjIWwq+2QsnVe+4cBSRIRfvm9cCvSZYnYPChE+2AnD3ySbegUFmO+eOUpjYhZBLpxAXHS4eFYqi3AgTarZs1hD58ubGvv0H8f7wTyWfxKdffCvhP2+89hJqVatkLX1vMBeYlEB++w0JSVEU5dGjIoWiKIqiKI8c5i7o8vpgtHuxL7bu2Gu13mcY3uGeBVnzlYGblz9iokIl/wTFgrvN/WCDwgS9Jtyy5IBvrhLw8M0lbQwhuXhyD07sWY2g80cRExGCxASWsFTPibulWqXyUja0VPEiVouSHsmfNzd+njYRX38+Gh3bP4XHG9bBgD7d8Of8aejdo4uUKb0fZPX3Q7cuHZE7R1KpWkVRHj0qUiiKoiiKku5hSIeXf15ky19GPCmYgJoCRcI9JI9j6VB7Jxe4emeFV9b8UqHD1cMPsdFhkk+CXhPnj+1A6OVTuPqAknBmRF5o/zTGjxqKpo3rWS1KesXB3h7Nm9TDsHf64NOPh6B71xdQrHBB89279/K8iqKkXlSkUBRFURQlXWPn4AS/3MXhl6Ow5H4Ivnj8nsI7pPqUuw+8slGYKASPLDlh7+CM4MsncN4SJoLOH5OkmPc9CaeiKIqipHNUpFAURVEUJV1CTwdW08hesDzcvQIQGxOBoLOHEBcVdsfhHZky28HeyVW8Jvxyl4JP1vxwcHRFbHQEAs8fxsl9axF45hCiwoMs7wwN57hTWBr053kLsHrdJqtFURRFyYioSKEoiqIoSrojqXpHHmTL/5iICWFB5xB8/qiVDyKFZMoMOwdnuHj6SyUQek24e2dDfFw0gi4cw/lj28VzIujckXsKG3kQ7Ny9D9NnzsPyVeuslgfHrj37MX3WL1iweBmiY+5+HBb9tQJvvj0UX3/3o9Vy9/y+aCl+nP0rDhw6arVcH5PV/6gIoiiKkppRkUJRFEVRlHRFZnsHBOQtgSzZCiExMRHBF++wekemTHB09YRXQF4RJjz9csHZzRsRoRdFmGCuicCzhxAVFoiE+DsQPR4if6/6B+99OAY/zJpntTw4Vqxeh8EfjMEXk6chMjLKan20fDbpe7w/fBw2bN5mtVwfk9nzF1gtiqIoSmpERQpFURRFUdIFzBXh4uGDXEWqwM0rK2KjwxFy/ijiov67egdLhNo7Okv1jyw5iog44ejigYT4GIRcOolju5fj4vFdiAy9jPjYaMltkVoJDApGYGAwoqNjEBoajgsXLyMhIUmgiY2NxaXLgTh95hyuBAaJiJOcU6fP4uy5C4iPj0doWDjOnD0v67sdXOYKtxUTg4iICJy/cEk+ayMiItK0XZR1hoaGWa3/TUxMLM5fvIRz5y/e0juD/eZ2uR/cnxizXyQhIVH2l9uNMvt/+UqQLHfp8pVrYxISEibTtn3nti5euiLrCgwKueWY2PYrKDhExiTE2heOJ/vI+ffiRaIoiqJcx26owXqvpBHCg85LVvL0jiQmc3aTG8eMwNETp7F0xTq4u7miQ7snrFZFUZSMAQ3Fn+cvlr9NGtREnlx3Vg6Q5T69/HLDL2dR894RESEXze/l2f8M78hs7wgnV08RNRjKQY8JVuLgb23QheMIvnBM1nX1ISbA9PLPg0zmX1R44F2VRh01fjJmzflNxvKyMeAPHTmG2jWqICgkFF999xO++Hoqvp8xGyvXbsTlwCAp9ejm6iKfbdSyA/5avgZenh7ijTD52xlmufWIiY1DoQJ54eDgIMvZmDVvAb785gcx0MPCI7B1x27Uq1PdrM8V6zZuxfgvp2DylB8x+5eF4tVg72Bvjm0O2NvbW2u4zj8btmCdeWUN8BcRYMSYiZjzyx84c/YCihYuCHd3N1mOfZ7241zp37fTZmLZyrUiMOQz+5FgjlP/wSOxfecexMcnYO/+Q9KvxctW4feFf8mYnLtwEWfOXUCNqhVx+ux5TPp2uhmTafjhp7lYs34TwiMizL7mg5Ojo2yPY8J94f3I2M+/xrdTZ2Ljlu3ImSMbFi1ZgQ8+noD5fywWoaNEscJwcXGWzykZF4qdhNeRu03Q+yCJj4uRV3rFwdEFvjmLwM78LihpExUp0iAqUqRPVKRQFCUjcy8ihT2rd+QqIcY9q2mEXD6JaBr4Nz0RT46dkyvcfbLDwzsbXDx8JSlmdGQIAs8dEWEiPPg84qLDH4mBca8iRbAx8E+cPCPeCzmyZ0Wrlo8jb+4c6NZrEBYsWiaeAcEhofKXxvex4ydRt1Y1ODs5YfCHY8SbYO2Gzdi5a594UZw8dQabtu5AkUL55ZWcsMhI7D94WLbl4+2FJ5o2RPUq5bFj9z706v8+NmzaJsY7vTYOHz0OJsX08HBHmVLFkPmm33ebSEFvBfaLwsPlK4HYvnOv9OPxRnVl3tvvDse0n+bi2IlTsh/0bNi6fRfWm2093qgeYuPjsWXbLvFyKF+uDBo1qIWAAD+cP39J+pkndy48+URjeJv+dntzIJYsW2Xaz8u6Tpw8jbXrN+OE2ed6tavDwcE+aUxM/9f8swn79h+SPhw5egIr12zEitXrZfvcx2079sDT7Fvlio9Ze6RkVFSkeLSoSJH20XAPRVEURVHSJBSz6fmQrUA5uPskhXdQYLhV9Q5W+mApUi7vla0g/HIWg4u7DxIT4yWp5pmDG3D20CZjVJxDXEykMSxuL3Ckdlo1a4Q6NavIe4oKXV94BkuXrxHDnaLFj99/jpP712Pcx0Pg4uyEVWs34u+V/8jyJC4uDrlz5sCGlb9h7dJ5qFShLIKNYf7rH0vEKyE5NatUQL1a1eRYZA3ww6udn0MWH298PnmqiAz169TAtn/+xK4Nf6HNU80RFBSM+QsWixByO+zt7PDRkLdxZNcafPBePzg6OmDW3N+x/+ARrFm3CatNfymojBk5RPZj5rSJZr+yiffEwiV/4+Xn2yHAL4sYKM0a18VTTzTB8+1aXRuT0iWL4vlnWmPGzF/E04JjtPCXaTi+9x8MHthLxJMVq9Zh87adsjxh6Ei3V14wfVqNV7p0kGWCgoPR542XcWLfOjRtXE9EkVVrN1ifUBRFUe4WFSkURVEURUlzSPUO/zwiUDg4uYq4EHLhGBLioq0lSCYJA3F09YK7b074ZC8Ez4B84nlBT4lLp/bi7NGtuHRyD6Ijbp93IT2weOlKMayfbN4YtapWhIO9vXnfCEUKFzQGeLR4VdjybLi6uuCjwW8hd47sKJAvDzq/8Iy079pzACEhofL+v2DYB8Meer/+MrIF+MHP1wdDBvSSkI39B45ILovbUaFcGbRu0QSu5vMtmjUwfSwg7fRwOGn6GRkVJW2tn2gk+1GjcnnxjOD+UYxJKfTQsLOzQ/PHG6BMiaIS3vH8s61RuGB+6d++A4etJSEeEk0b1TV9ckGJooVFJPHzzYJmTerD0cFB/pJ4K/eHoiiKcveoSKEoiqIoSprCzsERfrmKSYJLwsSWEcEXbnCrZq4J9yzZ4Z29ILyz5oOrpz/i42JFmDh3JEmYYOhkfEzUNeM8PXPx0mXxUAjw972WD8LF2Rm5cmaTpJrR0dfFHYYdenl7WVNAzmxZxVMiPDwixUY4k2R6enqIOGHDL4sPsmTxlpwPyZNr3kzePDnF8Cf86+PlKe8l8WVUtPSXHiHsP+H+UAixt7fD5ctXpC0lhIaFSTgHPUAoVhB3Nzf4mzFi/8KTCSmZMmdCZjMGJLN5D/MfRRFb3goPj6R8GYqiKMq9oyKFoqQS6HKbI5u/uVnytVoURVGU5DBkw8nNE9kLlIdHluxStePKmQOIjUwKHWDpUZYO9fTPA/88JeHmFSCfYUWOc0e34cyBdQi7cgaxUWGSuyIj4eubBQmJCZIbwiY0MNklK1PY0dg2v0E2YmPjEB11vZRocGiS94SfX5ZrRvl/wbwTYWERkr/BRqB5z7ARJtWkoHA7mN/BVo2EfyOjkgQUbt/Z2VkEBVbTiLGqaXB/WOGDlT2yZLkuivwXHu5uiI+Ll+SiCVZ4T0RkFK5cCRLhw81K1KkoiqI8XFSkUJRUQvmyJTH506EYOaSP1aIoiqLYYNiGp19uZM9fDg7ObpKQLuTSceBqopl2lySY3lkLwjsgP5xcvBAZdgWXzhzA2cNbcOH4TkSyQkcG8Ji4mdi4OPFcaNKwjhjxC/5chqUr1khiyDm/LpI8D66urlLhg94ShAkkJ0yaiqPHT8r8qT/OlfZyZUrCy8tD3t8KigXhEZFSwrNyxbKIjIzExK+mYc/+Q9h38DCGj/5cSqIWL1YInh63Xw8rZ/y5dKWUIF2ybDX2HzgMJycn1KxeCfny5pJKJAcPHcXs+QslQeiyFWvx+6KlImg0blDbWgvTklwVgYPhIcmRcqmmbxXLlZE+/7l0hSTtZCLOqT/OkWooDO9gpbviHGcAAKN2SURBVI67ZefufZg+c570S1EURbkzVKRQlFRCkidFgHpSKIqi3AQFCv88peCbwxiNme0QcvEYosKuwNnDF97ZGM5RAO4+2ZKSGV44irNHk4SJ0EsnERcdkaaTYN4tDJPgeLDixLCRE9CgTnVUr1IBh48cR58Bw9Cm42v4YOR4CcuoU6sq6tSsan3SDLH53IJFf6FDlzfxUre+kkTS28tT8i64uCSVKk0Oc0/Y2WXGqVNnpRIGQ0tef+VFKdG5cMlydDTr6dC5J36et0C8KNq2ag4fn+vhJDfD49V/8Ag899IbGDpinCTrfPnF9iiYLw9qVq2EurWrSYlS9r/N86/J/rDaRuVKj6Fd6+ayDvaTIRssKzr5u5+kjeEuFGLWrd+C0eO/wjNtWqJUiaKSa6N7r3fQ7oXuGPvZ1xLWwkoiFcuVls/dDX+v+gfvmbFgmVRFURTlzlCRQlEURVGU1IkxKJ3cvJGjUEW4e2c1RmeMhGs4OrvDN2dReGTJYYxjB8REhuDCiT04sXcNgs4fRUxECBLj46yVZEyqV62AapXLw8fbExcuXRbPhW++GIUXO7ZFrpxm3DJnRsH8ecT4nzB6KLw8r3s2ODs7YdzHQ5E9a4BMlyxeBD27d0btGpWZiuH/oJdGg7o1pcwnwy7i4hOkIsiY4e+hXu1q8PR0l2SclSqUwYj3+6Nj+6dEMLgZ9iF3rhx4ulVztGv9hDneCZLHok3r5ni507MintCTY/yooXi1S0cULJBP9iNnzmx44bmn8f2XY6QMKuF08aKFkJh4VcqXksfKlpSknNwOS5syj8V35jNtWjW7lpeCn3m7dzfT93clSSZhn3Jmz3YtlweFllw5siN7toBruSyYH4PLMZ8F4TL+fr5S6URRFEW5MzJdzYi+j2mcc0e348yhzdZU+iWTufHw8A6QJ2iKoihK+oYVJiZ//7OUemz7ZBMUKZgf7r454BOQX6p3sFRoQnyciBK8dWG50ciQS4gMuywlQ9NTjok8JWoik/kXeO7QDclA7wSGXDBsgzkWHB3spRIFDWqWyQwJDZeQB1bP8DZGPQ19G9kLVYSbmysWzp0qhntYWLiIFll8fCAJI28DPRu4LH+7syZLzsnwD7bzmHG9ycWQm+E6+GKuCG4zODhU9oOGPr01ksN25rtgOIezk6Mk6UyeL4MCx5WgIMTGxEo4i28WbwntYE6MKPMZho8wqSeFjxizTEhoqOTioJhCrxG222BFEY4Rx4P7xVCRoKAQc3/CfU0SN3j+UqBh1Q8mJ7XtCxNz2sQeJeNADy9z0ss9e0J8Uu6U1ER0ZCiiI1JWqSctwvLSRSo1h4PjjdcNJe2gIkUaREUKRVEUJb3Bm5E4YyReNf9cXN3hn6sY3LyzGmPx+hP3hHhjTF45haiQy8b4jERCXKxpTX+3MfdDpLhbkosURQrlt1oVRbkTVKR4tKhIkfbRcA9FURRFUR45fEbv6OgAdw9vZMtfRkI5+DSbwkRUeBCunD2EE/vWIPDMIZlOiOONvz5nURRFUZT0hooUiqIoiqKkGhja4eTiiZioUARdOI7zx7bj3NGtCDp/BIniOaE8SPr2fAU9u70k4RGKoiiK8ijQcI80iIZ7KIqiKOkVXvMdXTwQHxsl4RxXr2a8yhyPMtxDUZR7R8M9Hi0a7pH2UU8KRUkl7NizH33e/RjDRk20WhRFUTIeTIAZHR6E+NjoDClQKIqiKEpGR0UKRUklXLochJVrNmP9pp1Wi6IoiqIoiqIoSsZCRQpFURRFURRFURRFUVIFKlIoiqIoivLISUhIwOFjJ3Hw8HFEREZZrYqiKIqiZDRUpFAURVEU5ZETERmNQcM+xZsDR2DP/sNWq6IoiqIoGQ0VKRRFURRFeeQwSWZQcCiuBAYjNi7OalUURVEUJaOhJUjTIFqCNH2ydOU69B8yFln9fbFw9iSrVVEUJWMQEhqGNp16y9+xw/ujZpXy1pyMB0uQZrZzQGTIBVxN1AonipLWcPUKQEJcjJYgfURoCdK0j4oUaRAVKdInKlIoipKRUZHiOrmKVoWDs5s1pShKWiQmIgQXju9EQnys1ZJ6UJFCSe2oSJEGUZEifaIihaIoGRkVKa7j5OplfgPtrClFUdIiiQnxiIsOl1C21IaKFEpqR0WKNIiKFOkTFSkURcnIqEihKIrycFCRQkntaOJMRVEURVEURVEURVFSBSpSKIqiKIqiKIqiKIqSKlCRQlEURVEURVEURVGUVIGKFIqiKIqiKIqiKIqipApUpFAURVEURVEURVEUJVWgIoWiKIqiKIqiKIqiKKkCFSkUJZXg4uyE7Nn8EeCfxWpRFEVRFEVRFEXJWKhIoSiphPJlS+KrT4fi46F9rRZFURRFURRFUZSMhYoUipJKoCdFjmwByBrga7UoiqIoiqIoiqJkLFSkUBRFURRFURRFURQlVaAihaIoiqIojxwnJ0c881QTPP9sS+TKkdVqVRRFURQlo5HpqsF6r6QRzh3djjOHNltT6ZdMmTPDwzsAme3srRZFURRFURRFUe6F6MhQREeEWlPpDxd3HxSp1BwOjs5Wi5LWUE8KRVEURVEURVEURVFSBSpSKIqiKIqiKIqiKIqSKlCRQlFSCfHx8QgLj0B4RKTVoiiKoiiKoiiKkrFQkUJRUgl7DhzBkJFfYOwXU60WRVEURVEURVGUjIWKFIqSSrh0ORAr12zC+k07rBZFURRFURRFUZSMhYoUiqIoiqIoiqIoiqKkClSkUBRFURTlkZOQkIB9B49g975Dkp9HURRFUZSMiYoUiqIoiqI8ciIiozFkxBfoN/gT7Dt41GpVFEVRFCWjoSKFoiiKoiiPnKtXExEUHIorgcGIjYuzWhVFURRFyWioSKEoiqIoiqIoiqIoSqpARQpFURRFURRFURRFUVIFKlIoiqIoiqIoiqIoipIqUJFCUdI4iYlXERcXb00piqIoiqIoiqKkXVSkUJQ0TFhEJD6dNA3zFy5DYmKi1aooiqIoiqIoipI2UZFCUdIgly4H4rc//0bHrm9j1dpNsLOzQ4KKFIqiKIqiKIqipHFUpFCUNMLVq1elNN8vC5ai/5Ax+HneYjzdshG+Hj8MrZrVh4O9vbWkoiiKoiiKoihK2kRFCkVJI6xYuxFvDhiOcROnoWG96hg5tDc6tmsBf78syJxZv8qKoiiKoiiKoqR91LJRlFRMZFQ0tu7ch96DRmLoyIkoVCAPfvvpCzzXpjly5cim4oSiKIqiKIqiKOmKTFfpQ66kKc4d3Y4zhzZbU+mXTMYA9/AOQGa7jBHGsHTlOvQfMhZZ/X0xb/p47D1wBPN+X4odu/ejTMmiaN28AYoUygcnR0frEykgE+Dg4IDMmcybW8Cvf1xcnPlrNdwhdnaZYf8vYSasOnK3CT0zmT47ONjL31vBHBzx91DVxM7eDvZ2dtbUjSSNS7z8vStMl//tOCUkJCDevHCXq+e43E6gkr7Hm74n3t3KM5tj+m+hQ+x3Qrzp+93A89Gs+9/6HhsbZ03dOZkyZ4KjOd9vx72cj8TR0eG25yPXy3G/22Nqb85H5pa5FTwN48267/q7ZMaF4/5Avktmlfwe3a7vhMc0Jd+lkLBwPPdyP/k79qO3UatqBWuOoiiKcj+JjgxFdESoNZX+cHH3QZFKzeHg6Gy1KGkNFSnSICpSpE9sIgUN0Lo1K2Hdpu2oUqGMGI0XLwXC2ekOxAkLGiW9ur2AwgXyWi03cvHSFYyZ+D3CwiKsljujZrXyaPvk47c1aid9Pws7dx+wpu4MLy8P9OjSXjxGbsXGrTvx/Y/zrak7p0Gdqni6RWNr6kaCgkMwduJUyQFyN9BQ/ui9XnBzdbFarsNLLkN3flmwTAzPu6FrpzYoV7qENXUjwSGh+PybH3H23EWr5c4oV6Y4OrZrCRdnJ6vlRuYtWIqlK/6xpu4MF2dnPP9sSzxWqpjVciMnTp3Fx+O/sabunHx5cqLXay+ImHAzFFcmfTcLe/cftlrunCEDeiCrn681dSNbd+7F9J9/R3R0jNVyZ7Rt1Rj1ala1pm4kPCISU6bPxf5Dx6yWOyN3zuzo1uVZeHt6WC03snbjNswwfb8bKDg1b1wHTerXuKX4xPEYNvpLOS//C4pIG7fsQqL5jrzXrxvatWpizVEURVHuJypSKKkdFSnSICpSpG+CQ8Pw3Yxf8Nui5ciRzR85cwQgMjIabi7/b/D+F3yC+sqLbVEgb26r5UYuXwnCl1NmITz87kSKKhXLoEXTercVKab+NN8YhUesqTvD09MdnTu0RvZsAVbLjdAonDV3kTV159SqXgFPNKlrTd1IcEiYGLRBQSFWy53h4GiPQX1ehavL//848pK7dsM2LPxr1V17JHQ0hn7p4oWtqRsJMefPlOm/4PyFS1bLnVG6RGG0ebIJnG8jUvyxZCVWrb276w/X2dYYnqVu0/fTZ8/js8kzrKk7J3eu7HjVnO/0HroZeq9Q1Dp4+LjVcuf069kZfr4+1tSN7NpzEHN+XYLomLsTKVo0q4uaVW7tORARGYUf5yzA4SMnrZY7I0f2ALxkvkueHu5Wy41s3LoLc03f7wYKEw3rVUO9WlVu6bEVHROLMV98j1DznfovYuPisWLNRjlWg/t3R5uWtxYR0zNnzl3AqTMXrClFUe4VXpZ8vDyRN0+OO/NETeeoSKGkdlSkSIOoSJH+odv44aMnJNxjw+adKFGsIDq0feLOwz0URVHSCBTY2nTqLX/HDu+PmlXKW3MyDl9Pmy3CsaIo90Ym88+JYruxcpydHVG7WgW0bFYPxQsXgMstHiBkNFSkUFI7KlKkQVSkyDjExMRiz/7DmPrTr5KbokmDGnj95Q7w8HCzllAURUkfqEgBfP7NDIz/cro1pSjKvcBcOc899xyio6Pxyy+/wDeLl4TRdu74FEoWK2QtlTFRkUJJ7WhpAEVJxTg5OaJ82RIYP3Iger7aEZu37cHTL/aSUJArQcEpSkanKIqSFmDYWPXKj6F2jYrw9fG2WjMm/fv3l+u7vvSlrzt/RUREoEuXLhI6VrRoUUybNg0TJkxA9hy5sWT5OrR7sQ9Gjvsau/YeRNRd5hFSFOXBYjfUYL1X0gjhQecRFnjWmkq/MOmjk7ObeFQoQLEiBVCrWgWJt5/7+19Yt3E7HB0dkT3A75aJAhVFUdISrBRUo0p51K9dBQF+WeQ3IKPB/CAM8atZsyYaNmxotSqKciewatmiRYuwbds21K9fX16VKlVC06ZN4evri+PHj2P5qnVYvnoDjp88I/l6vL08/7U6VHojPi5GXukVB0cX+OYsArsM7I2d1lHrT1HSCLxhZwK8Lh2fwtgP+6Fokfz4aMxkDBw2DidPn7OWUhRFSZvwGkfBlXl3blemVlEU5W7Jmzcv+vTpg/nz5+P9999HZFSsJDzuNXAE+g8Zg03bdllLKoryqNG7AEVJY/DmPW/unOjTrRM+H/2uPAG4XSUGRVEURVEUJQl6oBYvXhyDBg3C4sWL0axZMyQkZsLiv9fi+VcH4t2PxmPbzn1S+llRlEeHihSKkkqIj49HWHjEHf0wlilRBIPf7g7/25RFVBRFURRFUW6EnlvVqlXDjBkz8MMPP6BVq1bw8PDAz78sRre+wzB4+GdYtW4zQsPCJc+FoigPFxUpFCWVsGPPQfR9bzQ+GD3JakkZdI/OiLHbiqIoiqIo94K3t7fkqpgyZQpmzZqFxo0bIyg4FL//uQL93vsEfd8dJWKFoigPFxUpFCWVEBQcgi3b9mDXnoNWi5IW+HPZGuw7eNSaergkJCTirxX/YNuOvVbLf8PyjivWbMTSlesRFRVttaYu6E3EcT167JTVoihKRmL69Ok4cOCANfXw+fXXX+WVEhITE7F3717Mnj0bmzdvlunUChNJzps3T0pyKtfhgx4fHx8RKHjcv/32W1SvXh3xCVexcu1mdO05BG8OHIFNW3eJZ4WiKA8eFSkURVHugUnfzcLaDVvl/dHjp7HMGP/RMQ8nYzZDhL79Ya4Y9Cll0nc/o//Qsfh71XpEPaR+poQDh47h5/l/yns+xeK4bt25T6YVRclYvPPOO9iwYYO8//rrr7FlyxZ5/7AYO3asvFLCmTNn8OKLL0oixj179qQ6kYLiCV+EORhGjRqFsLAwmVb+HycnJzmeFCu+/PJLNG/eHF5eXlj012p0f+sDDBz2qTwcCA4J1TAQRXmAqEihKIpyD4x6vy+ebFpf3m/ftR/f/zgfERFRMv2gcXB0wIfv9ESn51pZLf/NmnVb4OXpgbd7doG3p6fV+ujZsGUnho/5St5n9feVca1fu7JMKxmDBGPcnTxzFsdPnUakPunN0NBAZEJD0rt3b/z5Z5KA+bCgccpXSrh06ZIIFa+//jratWsnpXRTEyNHjpQXeeGFF8RLgF4Dyr/j5+eH9u3b47vvvhORp0WLFggLj8SSv9di4Pvj8OaAEfhz2WpraUVR7jcqUiiKotwDnu7ucHJylHCdK4FBEqpw9vwlxMbFyXw+aaFnwNnzF3HxciDi4uKlncTFx+PCxSviEWFbhslTCb0xzl+8jAuXrlxb180wE4mHuxtcnJ1lmsteCQqW5fme64uITBJM+HTv0pUgs95Y6VOM/E2U99ym9M98hvNtxMcn4PyFy4iKjkFkVLSsMz4hAZfNejgtfbxwST7H0JNEs65AMw5nzyXtx81PmTg23KczZn5wSNi1J45RxiC9EhgifeI8TnNcmYXdBpflujmf+8gxsxFubhy5Xm6fT7fOnLsg45mYqE+50hLh5pzp8vpgtHuxL7beQQiTkv6gEW1nZ4fTp08jKioKly9fxtmzZ625QGxsLM6fP48TJ07gypUrVmsSFA0CAwPN9SRGxAOug8vzehQaGoqTJ0/K+hLMtex28Mk5X1yGnw8PD0dERIR89ty5c7Juwr+c5vWI62cYhe26F2euwxcvXrzWx5s9LNhOjwaul/3kMtwWl+N7zg8KCpJl2X8uwzHg++Rwee4Pl+fnuT72ge0cC26DL87jNZX7lTyPVWRkpKyb+8bxSX7dZjvXwf3i+1OnTsn6k8Ox4fpv3r/0AMeJYkXDhg0xZ84c/PTTT6hfvz4yZbbHuk070LP/CHR54z38s2Gb/OYoinL/sBtqsN4raYTwoPMIC7z+Y51e4Y+Dk7Ob+THIGFra0ROnsXTFOri7uaJDuyesViW106XneyI8bNy6C7N++RPnjNG+ZfseVKlQRo7l74tX4rOvZ2Dub39h8bI1CDQGdoH8ueHq4oxTp89hwPtjER0bh29+mINZ8xZJ6bM8ubJj9q+L8c20ufht4XIRGooVzg9HBwdrq0lQjOjZf7gY7tWrlMMbb3+EzWbbFy8G4stvZ+KXBUux/9AxFC9aQG48P/n8O+kbxYITp86gSsWy2HvgMMZPmo6f5v6Bv1asx0nTpwL5c8HDzc3sy2X0eWckXJyd8OvCv80yC1GzanmMmjAFQSGhWLhkFabM+EUSjNnZZca5i5fx2VczJGxju9mPYkUKwNvLU7a9ffd+jP/yBxmj3xctxz+btpvvNpA/Ty4J65gw+QfpFz8XY27CJ377E1xcXFDcrIP7Od9sf6LZp7m/LcHKfzYjwhguRQrmg4O9vZm3DOMmTkPO7AEYZ7bx05w/sGbDVri7uyFv7uxStldJ/VCk+nn+YvnbpEFN+R5kNHgd2bB5J2rWrCmGUUalatWq4pHwxRdfSG4KGuAMpaCnAg1lhmKMGTNGqjIsWbIEzs7OKFSokAgbLC25Zs0abNy4EaNHj5b8FsHBweLGz5CMzz//XDwzsmfPjvz5899gsNto27ateHM8/vjjePbZZ8UQnzt3rmyTxmpISAjKlCmDgwcPiqcH+8e8FNxGxYoVxainJ8bHH3+MqVOnYunSpXIdLFGixLXrEXMesL98Sj9x4kQROz755BMULFgQ7733nvTzn3/+QZYsWaQCBefRSKY4U6NGDfksRZRvvvlGtsMn/uzb7t27UaRIEbi6uspnuK8UH/bv3499+/bJelu2bCnzjx8/jhEjRmD8+PH48ccfJcQmV65c8iIcB7ZxP4cPHy5jyXVUqlQJbuY3gvTv31/2j/vD45AaoEC0aJH5Pd22TUSF2rVrW3PuHo53yZIlZex47ClMUcDZZ35DGea5Z/8hc2wzwc/XR8rC3+q8Sk3Ex8XIK73i4OgC35xFzHFLXZ5NSsrROzdFUZR7gJ4G9Bpo0bQenni8DnLlzIaerz6PgABf/L54BUaM/Qq5c2XDWz1fwnNtm2ParN/EEOMNDsWNnXsOilHdsmldvNi+tRgovd/5GKfPXMAbrzyHZo1qYfrPv+P4qf8XJnnTe/7iFfHiIPTKWPXPFuzadwgvd2qDlzo+hU3bduO7H3+BqzH4O7ZrIeVq+XrlxXa4dDkQA4aOQ1x8HPq8/iKef6aFhF1QTCDsI4WKb6fPw7Zd+1G5Qmlx3+DnKBjQm6LnKx3M/mXHyHHfYOI3P6Fxvero3qU9Dh89hclTf5b10Etj2MdfIiwiEt1ffhZvv9kFBfLmwqcTf8DFy1dEgGlUt7rcvPfv1QVlShYRwSPCLE8ohoybOBWlixfGgF5dUbtaBUz+7mepa0/oSbH/0FGM+eJ71K1Zyay/Mxzs7fDV9z8jUJ9uKUqag0Y/jcJ3331XrgtNmjRBv3795Cn+uHHjMGnSJAldYH4Fig2ct2nTJvnshQsX8P3334towM8zGSKN9Zdffhm5c+cWg57eCPzszV4YNug1wBevgfRAoFhCLwSGTdDtn59dvXq1iBw9evSAp6cnOnXqJAYs+00xgYb/k08+KdumcTtgwAD89ttv1haAI0eOiJBBQ7pevXqynxQYKHpQoKJ4sHPnTnTs2BFbt27F4MGDxdjm/v/xxx+yjoULF2LYsGEi6rBPffv2lfwdffr0EcGEn82WLZu8mOeDcH8obvD3gwIDxRxu86OPPhIxhvvBvhGOAbfFaY5lt27dsGDBAhl/G3/99ZcIRTd7eKRX6OXTunVrfPXVVyJcPffcc/JbuGLNJrw3/DN07/cB5i34y1paUZS7RUUKRVGU+wCN7vx5cor3xGOli0ooBp+u1KxWHu/3fx01KpdDq2YN0PWFNli3cRtCrbAOPjXu8vzTaNGkHlo2rSeeB8xp0al9K9SoUh7NGtcWT4bAwGBZ/r+wMze67Z9qino1K6N5o9rGoK+IOb8ugYODPUoULSihIXzR4J8++3d54jP47e6oabbVtGEttH+6KZYs/wf7jNFvw83VBZPGDMYbXTuINwdvbv2z+GDogB6oXaMS3nrjJURHx6Bpg5po3bwBGtapinq1K2Pur0k3avQucXd3lfwZdWtURvXKj+GZ1o9LaEZUVAyyeHshd85s4IOniuVKIcDfVz5HGOIx6fufpe/dujyLKhXL4IVnW6Htk03wyYQp18JjOI71alZBu1aPo2bVCnipw1PYs/8wQkM1E7uipEUoClSunJSXJl++fPKeRjwFCBqIXbp0QYMGDcTQ9/f3F48EW1gHDUk++ae40bVrVxER6Gnx4Ycfymc47++//5ZwjJRQtGhRERv42c6dO6N48eLYsWOHhE7wqToFAbYVKFBAhA+KBFzutddeQ926dUGnZQoVQ4YMkVAUwr4ylIDeD5yfI0cOCR/hNl599VVJ2EjRw8PDA5999pkIF/Sw4HI//5wkAFMcoHAxcOBAETratGkj5TQpXlAsKVasmHg88FWlShXxTrNBUYceEMyl8dRTT4mYQ08Rjl9yEcLBXPO5DL1Knn/+eekXRRsbPCb00ggICLBa0j/0kqCHS61atcSbh0IOc6g4Oblg2459Iv63e6kPNm/bLaGQiqLcOSpSKIqiPABCjHG8e+8hlCtdXHIk2F70tDh6/IwIEYRP/BnSQOzN+8zm5sfT3Q3FiuSXNt6oU7hIKd5eHihTqqi8pzDh5ekungY3w3wYBw+dkJAJvyxJSdR441XXGPo+Znszfl4gbYTeCf5+WaypJBrXr3Et/IT95bYoLvBpIF9cJ/eHlC5eBB+9+ybCwsOxdsM2/LZoOWb+suiG/Be3Y+/+IyLQ0PPDycpRwfWWLlkEzJlx4vR1D5NOzz1pvQN8fbyNERCXLuOkFSWjQs+CrFmziqHOUAW+mKeBBuLhw4fFE4BUq1ZNPCwIQxB4TWKohQ0amBQuUkr58uWtd9Y12dtbBIVbQfGC22TIji2JJsUBelxIeMC+61WLuAyFiuTQu4H9JQzJoEBCoYJQbGDfbVD0oIfF9u3bRZhg2Mjy5ctFaPgv6JHBdVH8sIUm0NOE3iH0rrDBcbKNHcUYjj/DZ9IKDL1hfx/Ei2E/DKWhAESxbMKECeI9w/ODoZsMfWT4oqIod46KFIqiKA8APtlnokyGQHR8pf+11wejvpRwCc4XzM2hk+ONuSZ4w2hvl2TgU7SwGfspIXOmzP+Xu+JWXE1MSpjp7uYC5pOw4ZfFW8SAI8dOWi3mBvsWccYebq7WOwvTz+QxuBQtbDfa3N9PPpsiSRE/GD0Ji5aulpwW15e+PSEhYRIWkz9vTqslCXp3kOSVVJhHQ1GU9AtDOY4dOya5Keg5YHvROKdXhE04oHFPT4LkJK+6wWvTnVThoDCRUugpQe8Delkkh14WzJVA49YGxYub+0mvkORw/o3X1uvXd+beYEgHPS7ojcGwkJRCDwiKDslFEu4n+2Tz9iAcqzvZ/9QG83kwPONBvxgmQw8fetQwJIhI8uYUCEaKovw/KlIoiqI8ADJlThIXur/cHl+NH3rt9fWE9/HTt6ORK0dWa8lHA2963dxcJEwjubdBSGiY5KjIkyuH1XJvcN1/LluDrTv24YN33sDvM7/Al2MGo9uLz9xws307PD3dZByZbyM57DdhAlJFUTIGvGYwbGPatGmSG8H2ohfB119/DV/f66Fijwo+RWcuC1bNSA49PiiM2Lwi7hXm7WBYSc6cObF27VpJcMnyohRtUgKTa1I0oSeADU5T6OE+pGX4+8ZzhR4tTEi6fv36h/LiMaC3zJ146SiKcmtUpFAURXkAJIVsFBBvigJ5c6NwgXzyunQpSCplsDrFo8TewR6lihfGvkPHcPrsBfBZT0JiIpas+AesBd++TbOkBe8Ruh2zNFvWAF/JscFqHBQujp1ISkr3XxQtXADZs/njyymzpPoHYelTJgRlnovcOTNeBQhFyagw7IAu9vQA4HvmeaBowdwMixcvFiP7UcMcFfR+YL4Hm2cHvSdYVYPhFMwTcT9g2VGuv1WrVteqlHBsjh69nk/o3+jZs6csT4GH12Reqw8dOiRJMlmpI6WkxhKkFCieeeYZqQLzsF/t27dP054nipJaUJFCURTlPsFyuRcvXZHyl7xhrF29Aub8uhjvj/pSvAnGfTkNw0Z/Kckinc1N9qOECTZffuFpidcdMvJz07/VmD7rN6ma0bBONZQtmZTX4l7hOHh7e+LUmfP48ruZWLJ8LYaP+0oqcTg4OmDrjr2SGZ3eElz2xzl/4PTZ89anIZVIunV+FmvNmLL06dJV66XSx4I/V+Ct11+UHByKoqRfGH7AJ9QsKUnjmeUvX3nlFSkvymSZTE7JShoMW0gNJTCZs4FJNll6lCVPWcqU1Ufo7fDBBx/8XzjH3cL9pVgzefJk2daUKVPw0ksvyXboscEqH4QGc1BQEObPny/VUWwwHwaTdLI6CBNlcizfeOMNCe9gosyU0qtXL/kcBY/UAvefCUtZjeRhv+jJciehRIqi3BoVKRRFUe6BbFn94OnhLu+ZAJM10r/8dqZ4D/R4+Tl0fKYlduzaj1Hjv8XSFetQpUIZ9Or2vORUYN6GnNkDbrihoccBXzZ4w8iklbcSNWjUc1mKAOTmzxL2LWey0JLky+TJmR0fv99X8lN8MuE7KY1Kb4de3V+QdbNf2QL8pGKJDfaH++jmfmNbjmwBcLXyRBDuH9s4r3nj2qhVvQJ+/WMZxn4xDcdPnsW7/V5Du9ZN8NW02Th05DhqVauAapXKYtrMX7H3wFHZLsNR2I8m9WvgzVc7mvYjGP7JZGzaulvKqdatlZT5nx4VObPfGD4jY2v2m38VRUlb5M2b91pYBEtrMg8F4/0ZzsESoqVLl5YqHyzryUSUb731Fjp06CAeDKwyweV47SBsy5Ur1w0hDLy25cmT57ZPvJmYky8ud/NneU3jNmxtFAq4DPNgEG6XOSJY3YMeHgzJ2LNnjwgXrJBh6xcrliTPW8H95X4nh9vgtrhNGywnSoGCy7LKBvtIMYTv2Q/+ZSUUJtQk3D7Xw8SOXA+X4ZjwRaGH5UuZ02PQoEEi8rB8Kj0+iG0cksM+J+/nyZMncerUqVTlSaEoSton09WUpABWUhXnjm7HmUObran0C59Ke3ibH2e7jGFkLF25Dv2HjEVWf18snH29/JeSumF5TRrkFAN4kxYYHCql5QL8ssjNY3xCAoJNGzN8M9TBy8vzWqJMVti4eCnQHPOkZYkt94JNSOA6rwSFwMPdDc5ON95Q8/J9wXye6/Px9vy/z5LQsHDziriWA+PmZbgOhlFwGXozsBqITRBh9YxLV4LMtl2vCRW2/rAsavK2cxcuSx9sOSIizDqDQ8NFhCFR0dEICg4zN8mZZKy4HLfLKij+fj6S7JMlSSMjo83NupuZF/V/2w0OCZP1sH/sp23MmACU60me54Njy33lfnLcldQP86G06dRb/o4d3l/K4mY0Pv9mBsZ/OV0qPIwcOdJqzXiwageFBhruDAs7f/68CAq2Mpf0CKB3AOex4gWNdpvxz5wAfG8TKhLMNZh5Cdzd3a8JCwwLYRsrgNwqN86ZM2fkLwWBmz/LaxG3QXGCbQy5YNJOVspgX2zwd4B9jIqKks9zfnKxgcILS6Xa1suQCZYvpXhhg5/neuh9Yfssx4ICg80jg5/hZ+lxYkuCaSutyv3j/ts+w2smvefYzmnC3BncDpejAMF8CraxtI0D817YsFW2sPWTy/B3JPk6Mzpvv/22CEBPNquPYQNfv0HATy1ER4YiOuJ6PpL0hou7D4pUag4HR81blVZRkSINoiJF+kRFCkVRMjIqUqhIoSjpARUpHj0qUqR9NNxDUVIJfDKdI5v/DU/BFeWRYj1NUxRFURRFUZSHhYoUipJKKF+2JCZ/OhQjh/SxWhTl0WHn6ARHl6RcG4qiKIqiKIrysFCRQlFSCUmeFAHqSaGkCrz888LN4/5koVcURVEURVGUlKIihaIoinIDdo7OyJK1AJzcvDJMThhFUf4bJkxkUstHAZNV2hI53g3s+4ULFyTxZWqFCUFZKYPJMjMiTGjK84t/FUXJ2KhIoSiKotyAZ5akknNOLh6ws791iT5Fud84OjqgeZPaaN2ioZSgVVIfU6dORb169ayph8sHH3yAl156SSpJpARWsaCwYTN42XeW2WQljNTK8uXL0bZtWxw8eNBqSf+wQsvly5eluggFCp5fNiEsPDxchCVFUTIeKlIoiqIo17B3cIK7T3Z5b2feq0ihPCycnZ3RvXN79OneCQXy5rJaldTEo/SkqFy5Mho3bmxN/Tdr1qxBx44dcejQIZkuUaIEatSoccuSo6mFXLlyoXnz5lKaNKNw+PBhvPDCC1ImleVP27RpI3/JjBkz0LRpU3mvKErGQkUKRVEU5RpuXgFwdHKV8mRXExPg4qVPtJWHA2vJ0JvCydERmTPr7YlyIxQc3nrrLWRKYdUhCiq7du1CZGSkTDdq1AidO3eGq6urTKdGHnvsMbz33nvImTOn1ZL+4fHZs2ePhLhkzZpVSnfyL6FwsW3bNnmvKErGwm6owXqvpBHCg84jLPCsNZV+4Y2Ik7MbMunNqqI8FJh/wss/D+wdXRFy8TgcnFzh4p4FIZdPAil0sVYU5e7ZuHUXNmzeiZo1a6Jhw4ZW66OBYRIrV67EnDlzsGHDBnHHP3DgAFavXg3brWNgYCD+/PNP/Prrr9i0aRPs7e0REBAAOzs7yf3AsAV+ftGiRTh9+jSyZcsGNzc3+SzXRxFh9uzZWLZsGa5cuSLz6VHDMI3JkyejQIEC+Pvvv2W5rVu3indExYoVZdmJEyfKutifefPmiUFLTwQnJyesX79ewjt2794t2ylSpIis459//kGhQoWkn/QI+f333/Hbb7/Je19fX3mCz3uPvXv3Yvr06dJm2z+GHbB/KRE5GFLCz7N/+/btw8yZM7Fjxw7xkOCL2wgKCsK3336LggULYsuWLVi1ahWioqIwa9Ys5M+fHx4eHtJ3fp7b5xje3IeQkBAZu/nz52PdunUy5jTwuX8p4ejRo7K9v/76S8Iuzp49ix9++AG1a9fG/v378c0336B48eLXtsfj/cUXX6Bw4cKyb+wfPVW4/YULF8o+UmD09/eXc4DHccqUKdJnzud4c6wpwnCdPL94nLj/MTExcHR0xLRp01CyZEkcOXIEkyZNkuXp/cJjsnjxYumP7RxiSA+P/dq1a1GhQgVpSw1wPHmuFSucH/VqVU6V3jvxcTHySq84OLrAN2cRcx5qXq20iooUaRAVKRRFeRDYO5kf9eyFER0ViuiwK7B3dIKzmxciQy8jPjbaWkpRlAdFahEp+FT7/fffx5AhQ3DixAkxqGkwMnHluXPnRKSg6PDaa69JOxM+0lD86aefRChgaAWNV3o/0ABlbgEawzTE27VrJwYsjfju3bvj2LFjIjB8+eWXsp7q1avLdnr06CFGOLdFo58ixdKlS9GtWzecPHlS1k1hhAIKRQuGBmzevFnCJWjQUlxgHyk8cDxpONLIbdGiBUJDQyW/xYIFC8TQpghAY7d+/foiTKxYsQJ9+/aVbdLYZH9obDM04cknn/xPTx/2Z8CAAdI37if3n4b8H3/8gfLly4uRTkHgzTffFFGGHiIcLy8vL4wZM0b6mD17djHiX3zxRRFY2GcKCBR+WrVqJXkcOH4TJkyQ40OPA87n50qXLi33UP8Gx+bpp5+W40ZxhMfOdgzfffddEYT69esn48wxIexzly5dJCSDYhQFkldeeUWOK0WtJUuW4Mcff5T9KFu2rJw77CPHkGPPz1OEoADCfaSowePC5XicsmTJgrfffhudOnUSTxieMxQ6KHJwDClcUYwoVqyY9OfixYt44403RNThMU4tqEjx6FGRIu2j1p+ipBJ27NmPPu9+jGGjJlotivJw8fTLLd4UFCiAq4iLiZQnc64eWhZXUTISNHi/++47yRXAJ/Q0sGls0ygkvC7QA4Lz+GSdRhkFAno50DuARjqN1Rw5coiwQBGAIgKNVC67ceNGDBw4EHXr1pX5FBQ++eQT2Y4tUSLXwc9x/WPHjhXPguQwTIDGPg1/ig0USygu0HODBnDPnj3h7e2NDz/88Ian7BQlGFJBrwA+2ac4wc/QCH7nnXfkiT7hNPvP9bPPNNxtwkdKoNBDkYFGOfeDYg3HjYa3bRsUBygEsa8cbz+/6+F1FGbYTlGDYsAvv/wi/Z47d670g3/Zr+HDh8t+03ukSZMmIvZwnP8Nbvf5558XYYFjzhc9Snh8bX37L7h/TPRJYWH79u3SP3qulCpVSvpFwYmwWgmXoaDE/Xj99dflL8eGIsnHH38s+/3555+jTp068hlSq1YtEbQIz51evXqJkMHjZUueSnGGx5HnkaIo6QsVKRQllXDpchBWrtmM9Zt2Wi2K8vDIbOcAD++siI4MQXxslLTFx0TiakI8nNyYxC1lceCKoqR9aHTSAORTcNtTYD6dZxgAoWHI8AMakXyqT7gcPQJoxPMpOL0gaOgzRITrKleunBjszLtAEYRiAUUBWygBEySysoWLi4tM05WfXhTt27dHvnz5xPsiOfxcy5YtRYgg9MBgmAGN7X+D4gef+Hft2lXCFghDCPr06SPeA7YcCPQGeO655yQ8g54TfFpPkcFmfKeEl19+WfaXcD00tCl62IQYigSsONK7d28JSUn+xJ3CAT04OCYUaLj/zz77rHhf0JuF4ROPP/64CEmE8+mFQHGDnib/BoUDhnpwbG1jQG+FOzH2OSbcPquuUDTg8aZHDNdDAYNjRdgver8wDIfvOc4USf5LSLmZPHnyiNhEMYbbITxePP4ZKYeHomQUVKRQFEVRJBeFnb0TYqPCJWEmSUyIN4ZEnIRdOTin3mRziqLcX2hE84l6cuOPeQAoFhCKFPSGYDgEjX0mpORr5MiRYljTCKUBzPcMDaCQwfARPjHnOunCz/wDyT0HmEuBngK2pImEIQO3g2IGQ0ts8Ck7jXzmMvg3KJhQaKCXhC0kgn/pWcCQCoYiEBrVFD1s3GkyV/aFwklyKNSwfxRvbND74WYBhtDbgOIEQ2ds/XR3d5cxYmgDvRYoNDDcwjb+FH0oYFCI+TcoKFAgsQkUhGEnzI+R0nwWXI75Peg1QfGEXhEUmph/IznsO0NDbHA7JKWlZG1wPCnC8NxkWApzaIwaNUpKllIYURQlfaEihaIoSgaHZUc9fXMiMSEOsVFhVitvIhMRExEipUg15EN50PDJ+uFjJ3Hw8HFERCZ58yiPBhqENC6TG5KcthmwPFYMt6C3Aw1i24uGL70taFxXqVJF8hAwtwOfdjPXAUuAUgTgU3au22Z8E07z88m3+W/CAOcl9zywfc5mBN8ryft2N7B/FGKSw3Fj/5KLErcSKAjHln24uR8cIwpInH/z+HO6WrVq13JI3A4eR67X5u1gg8ft30SK5MeGgg5FAx5Xep0whwpDT5iz4kFBTwoKZTyH6O1DsYxCUPLzQFGU9IGKFIqiKBkcJzdv2Nk7IioiCAlxNybIjAq/IjemDk5u5qZWfzKUB0dEZDQGDfsUbw4cgT37D1utyqOAoQ30nGCohg0awDYXfc7jMsz9wCfnthfzQjDEgTkI+JSbT+wZysB5rBTBMADmZ2DoA5+Ec74Nhokw2aTNlf+/uDlkgIkkabz/V5UHbpv953ZsRjf/MucGvTFsSRnvFe7rzp03hm+yUgn7xz78FxR56PHBxKI26IFCYYC5IOiRwkSfFAls48/knvSssHm83A56iNAThXkybGPA/jJ55805KSiK2KAoYJvP8WNODyb6ZD4NHjt6UtwsfNxPKKAwb4Wt0gfPM1s4jaIo6Qu941QURcnAZM5sBzcvf6miExUWaLVeJzE+DnGxUXB0dkXm2zzxU5T7AT13goJDcSUwGLHJDCPl4cMEmHwaz4SVzHFA+OSaSS4J3esZwsGEhsxvQIOXL1aXGDZsmIRU0HCl4UyjlvPoMUBPAuYWYHJFGsfjx48XsYF8/fXXUk6Uy6QEGvBMokhxguti2AFDAZjD4d/gfjVu3FgqRbBaB+GTee4rwyhSavTSoOc2GV5xK9gnVt6gEECYJ+Krr75Cs2bN/tPTgTD8hF4XHEOGh1BE4BhRTKGhznwQFCj27NlzbfyZvJIiBsUMfoZ5Q2zhK8nh8WOVEiYMZUJLQjGECTltogWFFHqCcBkeE26fyS1t5wOXoyBBjxrbseWyPCYPEh5fJmzl+VW0aFHkzp3bmqMoSnpCRQpFUZQMjIOTK9y8AhAdEYIEK2HmzcRGhsLJ1QuZ7W90XVYUJX3CXANMcMi8CEymSMOaxiFzQNBwpvHKPATM60DDnmU/mT+CRjmTadIIZulMihYMA6CgwTAAih/MXcCQEFZ5oAHeoEEDcdlnVRCWBWUJzZTAcAqWeeTnuX1WC+nQocO15J7sA70/uB8UWGzQoKaQQiOcn2N/+GIizo8++ijF4SKsXsIxSL7um6G3A8eNeSdYrYJ9euKJJ24b4pEc5uuglwK9LziGTz31FCZOnCgiRJkyZaQ0KJOZch+4/sqVK0u+CuYCYRJOlvXkcaPnys3QI4FjQAOfiTfZp0aNGt2QK4PbYHjOZ599JvN4jCi02PJYMHcI843wOPKY06uD3jP8Sw8SCjIpgeNNAeTVV1+VRJjJKVCggHhLcJ08Fwm3z/OQ+8fKKBrqoSjpE7uhTJ2spCnCg84jLPDOsiKnRRgvyYR9fMKbETh64jSWrlgHdzdXdGj3hNWqKA8WT79ccHHPgrDLpyQnxa1gmIerpz9iosIQGxVqtSrK/SUmJhY/z18sf5s0qIk8uVJmrKYnNm7dhQ2bd4rhT8P0UVKpUiUxrPnUn8Y1jVE+vacnBIUAttE4pqDBMAkaySyZSUGChifDGhiywHlMnEiDnvkpmPeAAgNzJ1C0YD4DGtVcv+2z/P1nSAYFEv61UbJkSekXvSdsXhvsIwUHChw0dJnwkrB/DHvgX/aFeTE4TcOe2+Q+cJoeCDaRg9O2PBAMiaBhzv4StnEseGxsfWK4CfeRCSeTQ28DejmwEgcNeG6DoTGsfsJlbdtgO7eRfB85Vrbtcly4PfaXogCrZDzzzDMiEtF45/GgNwHHmCJRjx49RBSxVUyhpwiNevbxZrgOig8UhTh+FJWYmJNeCjQN2DcmpeT6OXY81m+88Yb0j8eN2+dfhv1wWQoJ/fr1k5AP9pfLUehgX+j5YdtH275z/LlttnPcuY2qVauKcGI77uw7hQoeCx5D/qXAQ2GI4ULsJ9eV2qCHDQW0YoXzo16tyqlSSImPi5FXesXB0QW+OYuY8yVliWCV1Eemqza/LiXNcO7odpw5tNmaSr9QnPDwDkDmDHKBWbpyHfoPGYus/r5YOHuS1aooDw5+t/KUrIWE2BiEXDwm1TxuBT0ofLIXQmx0BM4d2UI/X2uOotw/QkLD0KZTb/k7dnh/1KxS3pqTcfj8mxkY/+V09O/fXyplKLdm37598pT/+++/lzKkjwpWNqGnBkuYJofiBUUJ5mn4r/CTBwk9LyjsUCRICazAQsM/NZsGzIvRqVMnEblYvjU1Qm+X0aNH48lm9TFs4OtwdU0qq5uaiI4MRXRE+n3o4OLugyKVmsPB8f4k0lUePhruoSiKkkGhF4WdnSNiokJvK1AQzouNDoeTi7vksFAURcnoMP8DPRD4pD81wvKvLFFKkSI9wNwl9E5gzgsmdGWoiaIo6RcVKRRFUTIg9KJw88qKhPgYxEQEW6234WoiEmKjRdBwdE1yfVYURXlU0H2eYQG2sIZHAXNh0PPAFl6SHIYkMF9H8jCOhw3DLd55550UJem0wTCNvHnzWlOpC4bQMGcIc1306tUr1fZTUZT7g4oUiqIoGRBXTz84uXggNioMCXGxVuvtiY+NAqsvePvlsVoURVEeDTRQWf6SuRseFcwDwVwMt4JJL1k9JKVhFg8CCjn09LiTnA3MS7FixQprKnVBsYVjOnfuXHTu3PmW4pCiKOkHFSkURVEyGEllRwOQKXMmRIZcMi3/HX8cHxuNxMR4qfJh56A3h4qiPDpogDOB56P0pPg3UoMnxd1gSy6aGuGYsqoHPWhSWoFFUZS0i4oUiqIoGQw7B0c4u3kjKjxYPCRSAit/0OuCYSKOzmnrxltRFEVRFEVJO6hIoSiKksFw88kOe0dnRIcFWi0pIzoiWLwwHJxUpFAURVEURVEeDCpSKIqiZCAy2zvAJyCflBONj420WlNGfEyUBIY4uXpIiWBFURRFURRFud/oXaaipBJcnJ2QPZs/AvyzWC2Kcv9x8/IXb4iY8KB/LTt6KyTkIzoCLu6+sLPXvBSKoiiKoijK/UdFCkVJJZQvWxJffToUHw/ta7Uoyv3Fzt4BXv55kZiYiNjocKv1zogKuwIHJxc4OKfOhHWKoiiKoihK2ibTVYP1XkkjnDu6HWcObbam0i90J/fwDpBEfYqi3Dtu5vuUNW9pREeFIfTiceAuLv+s7JElR1EEXTiK4AvHrFZFuXdCQsPQplNv+Tt2eH/UrFLempNx+PybGRj/5XS8+eabGDp0qNWqKEpaYvDgwfjss8/wZLP6GDbwdbi63rpU7aMkOjIU0RGh1lT6w8XdB0UqNYeDo1aCSauoSJEGUZFCUZQ7JVOmzMiSszC8fHPjytmDSEhhVY+b4ffRK2sBCRU5c3CD1aoo946KFNdFisKFC6NEiRJWq6IoaYk9e/bg8OHDKlI8QlSkSPuoSJEGUZFCUZQ7xd7JFTkLV0ZCfAyCzx22Wu+cTJkywcMvN1w8/HBy32rERd9Z8k1FuR3RMTGY/vNviIqORYvH6yJf7pzWnIyDTaRQFCXtoyLFo0NFirSPihRpEBUpFEW5U7wD8sE3ZxEEnTuC2Kh7uzFx8fSDp19uXD57CCEa8qEo941lK9dhyd//WFNKmiJTJji5esLR2R1XExMQGXYFifFx1kwlI1KubHE89URDODo6Wi2pBxUplNSOihRpEBUpFEW5ExjqkatYNfPuqogKd1rV42aYl8InexHERAbjvLkeXb2aaM1RFEXJmLC8c9Z8ZeDq4SeVkM4f34Go0CvWXEVJXahIoaR2tLqHoihKOsfDN4c83YuNCkdiYoLVevckxMeaVzQcnN3kxlxRFCWj42iuhy7uWRAbHSYPVxyd3K05iqIoyp2iIoWipBLi4+MRFh6B8AiN8VfuH5Lo0i+3PNmLiQy5q4oe/4dZR1xMJOztneDs5m01KoqiZFzcfbLLtTE8+AIymX9Orh7IlNnOmqsoiqLcCSpSKEoqYc+BIxgy8guM/WKq1aIo946TqxfsHV0QExmK+Jj7J4DFRITIDbizu7ck01QURcmoMKTOzSsg6TobHYHYmAjJT2Fnp55miqIod4OKFIqSSrh0ORAr12zC+k07rBZFuTeY18XNO0BulKPCA63W+0OcuQlPiIsRl+ZMmTVvjKIoGRf3LNlg7+CE+NhISZoZEXrJTLtI/h5FURTlzlGRQlEUJZ1iZ+8kSdxiosMRFxVmtd4nrl5FdESQxGFrcltFUTIqmTPbwSdrQSQmJEjeH0JvCnqYadI+RVGUu0NFCkVRlHQKQzH4dC8i+ILVcn+JMzfifFLo4JT6asAraY8EY+TtO3gEu/cdkvw8ipIWcHBxF6E2lmKwFVLHwnkJCXFw8fKXaUVRFOXOUJFCURQlHZLJzg5+OYogIT5GXJAfBPFxMbiamAhPv9xWi6LcPRGR0Rgy4gv0G/wJ9h08arUqSurG2c0HdvYOiJaQuqTExAz5YDich3dWJqyQNkVRFCXlqEihKIqSDnHz9Ie9gzOiI4KRGB9ntd5fWDGETw/dvPw15EO5Z65eTURQcCiuBAYjNu7BnLOKcj+xs3c01z8/EWtjk4XU8VyOj40y10UHOLt6Wa2KoihKSlGRQlEUJZ3BhJkeWXIiISFess0/KPi0MC46HJnMT4mji4fVqiiKkjFwcHKFk4sXwkPOy/XwGlevIj4mStpcPHytRkVRFCWlqEihKIqSznBx94Wzm7c8yUuIjbZaHwzxcdHy1NDVU2OvFUXJWLh4ZpG/MeEh8jc5cbGRIhQ7urhbLYqiKEpKUZFCURQlHcF6/a6evshsZ4fwoHMiIDxIGHctIoWHLzJltrNaFUVR0jcMcftfe/cBGEW1RgH4pPdOSOi9SVOKiIB0VMSOoiJYHmLvvWHD3lFBpUixoSiKIIp0pPcmvfcSkpDe35ybWYwxgQSTsBvO59uX3dnZ2Zk7m7D3n//+N7RiTRMMzsnOtJf+LTsr0wyJ8/EL0t9GEZFiUpBCRMoUp2vz9PbTrZRuHHbhFxSeW2neupW2rMx0E6jgDB8MVBS0T0598/I1UwWKiBRHQGiU9e+Zl/W3NsFMP5ofh3pkpqeaqaD9AsPspSIiUhRuOZwnSVzKge2rsG/LMvtR+WXG1YdWPGsK8k2fsxBPvvAeoiIj8Ov3n9pLy59A64tdRNWG9iMpaW7Wf5x2NO7wDqQmxtpLS5dPUDjCKtZEVkYGsnP+/WXdmTHAcnDHKtOZkDMr/ngCet/ysPn53mtPon2bFvYzIs4nuvZ5JvgQe2CryaYoiLd/CMIr1cGxg9txbP9Wa4m+cotzSE0+jtSk0qtZdabxd7N+68vg5e1rLxFXo0wKESlTbu6e5uo18UqTbiV7y87OREpSHNJTSj+LwiE9Mc584cnKSi9wn5z15u7mrkwKESk2L99AM2sHg5sMdBYmIyXB+pucY/7OuLvrK7eISFEpk8IFKZOifDpbMik460RktUaIP7LrH1O2SUnKsTrhpVuLIj9XHHPtb/198QsIt/6eLkZGWsFXQqXsKJNCXAGDmmHRdcyN/46lJsTYzxQstFJdExQ9aH134/A4EWegTApxdgrrisgZkf+qtm4leSvbAAUVvB/OfbP+z957EZGiYTagj3+wCTikFWFIHWsDefkEnDUXXERESoKCFCIiIiIiRcCaP77+oUhJPFak2ZMy0pLNa7z8AuwlIiJyKgpSiIiIiIgUQVBEZZMVUdThiqxZwayLoNDK9hIRETkVBSlERERERE6BwYmgsEpIS00odEaP/LKzMsyU0L4BIS5Zu0dE5ExQkELESXTr2BbLZ39frotmioiIuCof/xB4ePogPTkeOVmZ9tKTY42gzLRk63XeZtiHiIicmoIUIiIiIiInwRnHQivWRE5OVrFnA8rKzDCzgvgGhtlLRETkZBSkEBERERE5CW/fIDOrR2ZGuimGWRyZGWnIzsk29SxEROTUFKQQEaeXlZ2NlavX47uJU/DjpKnYtXuv/YyIlBdenp648PxzcVG7VogIC7WXijgHBihYkyIp/lCxpy/Oykg1w0O8vP3h6e1rLxURkcIoSCEiTi8xMQkffTYaDz7+Ah54/EVMmDQVWVlZ9rNnHvfll1//wDcTJmHr9l320pKzZt0GfPntj5g+e769RKT88fPzxbOP3olXn3sQDerWtJeKnHkMTvgFhSMnO6vIs3rkZV6Xmgh3dw94+2gqUhGRU1GQQkSc3uEjMViyfJW5z4DAoiUrEBdf/C+KpSXT2qcPh32Bl9/4ECtWr7WXlpyZcxfg+cHvYszXE+wlIuUPx+x7e3vBx9vb6szp64k4Dy/fAAQEV0RqYmyRC2bmx9fyc+3h7WcvERGRwuhbgIg4vT9mzkNMTCwqV442jzdu2obDR46a+5SenoE9e/fjyNFjyMzMRMyxWOzbfxDxxxOQY69TmOzsbByLjTPrHzkag7S0dPsZICcnxzzHbcfGxdtLgYTERLPs0OGjJkBx8NARJCUlIzU11ewD35c/uU5SsrU8LQ37Dx4ywZaMjAx7K7DuZ5p1Dhw6bC/JfU/uC5fzeb7vsWNx1rbTkJCQaN4rfxYJj5mv2bvvgHlNXPxx7LUe8ye3l269J1/HG+/nxecTEpNOvP4428xa5sD1ud9mPw8exnFrH7LzPM/2c7wft3HUOk/cn7xyz4nVjtb2uY5jvxx4n+3ENtp/4BBSrGNNTkkx78lz6Xg/bsdxPrgvbFcRkdLmHxwBNzcgJfGYvaT4MjnkA27w8vFjRM5eKiIiBXGzvhye6ju8OJkD21dh35Zl9qPyi5W0g0IrmjRLKT+CwqsgslojxB3aXqS0WXaCr735LpM98diDd+Kr8RNNMOGjd1/BVZf1MOts2LQVt9z5CM5veS5atzoXkyb/boIYderUxMDb+qJt6/PMVdr82Pn+8ZffMHPOfNN5Dg8PRevzmuPG669EnVo1kGZ1gt96/1NM+X0mrr+mFx57YKB53dff/YwPho5Ek0b18dqLT+LeR57D0uWrTcAiLDQE9wy8BZu3bMNCa58H3Hojdu7agwWLlyMgwB9dO7ZDvxuuQWSFcGzfuRs33HofqlerggnjhpltMxhxeZ/bER+fgG9Hf4wJP0/FqDHfmsCHr68P2rZpiQ/eeAEVIyPM+rTb6rTfdtejSEtPx0P3/g8/T56G7Tt2o2GDuvjfLTdgybJVmPLbDLNuF+v97x3YH8FBgSY4MN/ar6++nYi16zeatm5gvea6q3riku6dTBuO+eoHzJ2/2LR5oLX/dWrXRB+rLTp2uMBsb9bcBaY9tmzdYR5HVayAdhe2Rt/rr0J0xUgTvBk/cTKmTpuNPXv2wdPLE7VqVseVl3XHFT27w9vLC5ut1w4b+SVWrl5npuvrdNGFqFe3JoYM/QI9unTAM4/dZ4JN306YZAJWbLegwAC0atkct/W9Dg3q1S7w/J5KQFgU/AIrWH9PFxe7Wr+InB34t6Vawwutv0E5iD+0A9mnmUnBwERElYbISE/BoR2rkZX5d0BcpKylJh9HatJx+1H54xcYhvqtL4OXasC4LI8XLfZ9cRGJsQeRcGy//aj84hcDH98AE6yQ8sPHLxgBIZHWP46xRfqSdjwpCa+88aFJk33msXsRFh6GuX8uMh3oG6+70qyz/8BBDB0+1ixjh3rrtp04FhuPbdt3Yf2GzejUoS1CQ4LMug5JySl47+PhGPb5WNOhZ8YCr+KvWr0e23ftQaf2beFldagnT52BhVZHvpHVeWeAgRhwmDTlD9PRv6H3FYiNP441Vic/MzPDBEl6dLsI8xcsweq1G7Bx01bMX7gMR2OOmav/y1euMdtt3aKZyS4YMmyU9dgL/+vfx2ybmRDvDPncZGn0v/Fa6x9YL2v/9ph9i46qiKsvvwTnNW8MHx9vsz4x2+DTEV+a41+6Yo0JOPB4tu3YZfZ99ryFJgjDoAzfn9kibJPFy1bhvscG2fvkZarPM1DA/a1WrQp+nTYLn436EhmZmWhp7S/blNvj69pd0Mpkizz0xItYs+4vNGvaCCEhwVi+Yi0WLV4BT08PnG+1xdQ/ZuOFwe9i6/adiIgIM9v4yzonK9esR/Om56BihQjcfs9jmDF7Po5a22ObrLHabdPm7di1Zx9qWPvRvUsHfPHl93jXapct23ZY5zIYh49ax7p8NdZZ27rwgpZmWXF5+wWaQnYJx/adfsdDRMo1f+vfq9CKNZCWHG9u/4WHpw/8giKQGHcQWRkKUsiZwxlneCuvvLz9EFGlPjx0odNlqfcnIk6LV8/Hff2DuRrfrElDVKkUha4XtTUF9thB3WRfvXdgtsHt/a7HjvULMOSdlxEUGIhdu/aajnd+q9b+hdFWx5fBjzdfeRrb183Hd+OGIio6EnPmLcKc+YvtNU8uJDgId93eFxWsDjg7+lf07Gbt44X2sxY3N/w8fiTWLZ2O667pZQIELIB5LM/wkZPp2a0TOrZvY+4zu4PvxeBIQbKzsnHT9Vdh69o/cc/A/iYzgh3/F55+GJtXzcG1V/U0Qyf+mDXPBFbY8T948DAu79kd86Z9j7m/T0C/G681wzFeePVdzJoz3wylefGZh/Hx2y9j6o9j0Ms6vojwMBw6dATbtu8wwZPOHS/E50PewNcjh+DDt19C/fp1zNCS5OQULFq20jpffnjovgH4c9oPWDBjIpo3O8e8ftmKNZi/eBlWrFqH8LBQc852bViIN1991pxLh6PH4vDxZ1+Y4R7MoFk862dM/GY4qlerjHV/bcScPxf/Y/iIiEhJcHNzR2hkDRPETE2M49g0+5nTk5ocb7bp7Vvw33AREcmlIIWIOC3WYJg46TcTSGjepBF8fHxMBkFUxUjz/PSZ88xPh+ioSDMsw9dap+k5DRAYGGA66nnrTDisWLnWdHrZYWbH3s/XBx3ano+Bt/e1ns0xGQQlgUMjmDXBKRWff/JBBPj7Y9u2nUhMLN48+0Xh7uFhhkcE+Pmi7fktzDJmLzDIwaEarc5rZoZX8Hs2h7JwGAozlliH4rNRX2PYiHGIiTkGD6u9GRhKTkk12/jwk5F4+c0PMeGnX3Fzn6vx2Yevo33b1uZ8cN1FS1bisWdfxSefj4WXtyfef+N5PPfkAyaAc9vN1+GNV5427/3b9DkY89UEHDkSY4IKbH8GirgPPS/ujMsv6Wr279orLkGbVueZ96Z9+/Zb+5NihoqsWrPeZJpM+W2mCQoxiHLw0GFznkVESpKnjx+8fPyRkZZs3ZLspacvJzMdWRlpJqNQREQKpyCFiDgtDhFgIUb2qjmM44HHX8Cgwe8hzs5C+HPRUvPTgQEML8/c1D53dzcmMRQqLi53LGa1qpXgaXXuHapWirZe64EdO3bbS/6bGtWr2veAyIgwhIQGmaKQpTWFqodH7p91Xq0jU03euhGHmbhZ7ULZ2Tkm04Gdew4H4VAK3jjEg8UyA/z90LfPVYisEIGNm7dh1NjxeP7ld8zwjnc++hyJSclo3bI5el7SBSkpqZg0ZRrefH8oHnnyZTzy1CtYvmqdCT4cPhyDj4Z9YS17CQ89+ZKZSpWBBQcWweQ+RkaEm/0jBipq1Khi7hODJWwvTkU7csy3Zj/f+2i4GdbD/WfBUmVSiEhJ8w+uAE9vX5MB8V+zKCg7OwuZmWmmEKeIiBROQQoRcUr8Orh+wxYcT0gwQxRYXPH36XNMoUYORyDWLdi4ZZu5X1zBIbnptvsPHP5HwIDDFNjxZTHLvDIy/+5YOzIMisIRUCF27NmhDw0NMR1xB76/o5Odmp6OzIzSr4/AwEBwcKAp5vnRuy9j/5alOLB1GbatnYc1i6bhj0lf4cbeV2Dit8Px4rOP4LJLuqBxo/omaMTsFgaNggMDMOiph/DpkNdN/Yz2bc832RWsiTFs+FgcPRaLdz8aboZk9OjaERO+/NQMKWH2igPbme0dExtnal8Q24O1KRyCAgLg6emJZk0aYfmfv5r93G/d1i+dbvb18QfvMs+LiJQUFu32Cww3f5s5fWhJyMnJRnZGusmk8PDysZeKiEh+ClKIiFPiVf6lK1abYQl169TEow8MPHG7vV8f08FmMcpZcxZandziX+FqcW5T+Pv7meED302cgu0792DWvIUYMeZbeHh44H+33gh3N3f4Wp1uZgSsXrPBFGlk0cypf8yyt/JP/DLLgpycQtPhux+nmKKazBhghz02Nt7MRhEYZHW8rffhPjAw8sesP03GwsefjTbBjIIww4HZBKdzvPmxU1+/bm3Tzr/8OsMUGeUUoCPHjseA+57AE8+/hucHv2syJ1gD47UXnsA7rz+PKpWjzXGmpKZi0dJVuPuhZ6zX/4EH77kd77z2HG7qk1vMlMNFMjOzsHrtenOMN5kZU6pj05Zt2Llrr1mH+va52mS9/PbHbEz6dboplslhIfMX/p0lw6lnK0SEm9dyppVDh49gw6YtePSZwbjLev+ZcxecCPKIiJQEd09v+PgHIyXhKHJKqrCu9XfKTEVq/QwMq2QvFBGR/BSkEBGnxJkqOJME+56sGcHpPx23R+6/A9WrVrE6wRkmwyI1rfgVqls2b4Ibel9phgo8/8o76NP/btz78HPYsXM32nCGjs7tzcwa1atXMR36vzZuRr8BD2HgA0/h8OGj9lZycVgJMyNY+2LkmPH4/qdf7WeAXbv34tY7H8FN/3sAX4wbb7bFeg6cjYKBivr1aptAzINPvIibbn/ATAcaGBBgvzqXj7e3yXxYt36jCRxw5o7/isNCBv6vr5mRY7bVye9/58O4+X8PYsjQUaaQZY9unVC5UhRWrl6PwW99hDvufwqPPPmSKZTJqVobN2pgplFlwIH1ITgF7P2PPo9vvv/ZBHl4jJyOlbNzsP7GU4Nex50PPI17H3ke+/YdsPcC6NiuDVq3PNcEap5/+W1cd/NdePy510ywx4HbeeLhu839t98fhhtuvR//u/txMx0pZy2pV6eWCSSJiJQUzsLh4emNtKS/s7pKQlpqginE6R8Ubv3d0tdwEZGCaApSF6QpSMWVFXUKUgYfZs5ZgCCrI//A3bebqSodWHti7bqNZoYKdmCbNzkHi5auQNXKlXDZpV1NJ/94QiL+XLAU3ta6nS9qa7IG8mLRxZbnNkFWFmsapCEtPQMVKoShS8d2GPT0Q6gcHQV36zN4TsN6SEhMMtvz9vbCec2bmKAJpxatVbMarurVw3xW4+ITcCTmGNLT09GoQT3s2bsPO6wO/E19WJTT1wQWOCvG1VdcivvvutUs8/fzNcGKg4ePmiKSVSpH4YVnHsZeq+NNfa7tZY7P19cHu3bvM9vm8Vzc9SIzTMOB+8e24vauvfJSk3XAYpILl6wwgYbLL+1miohyatX1f21GVMUKZipT1t9o07qFyUzg/jNYUrNGNTx83wAz1OPcZo3NUAwWMOUwD9aSOKdhXTz96L1o16alqVfRuHFDHDsWa4Zn8HxUsI7x0h6dTWYFMzBq16qO7Tt3m6lHefWQ7VW1amXTHrVrVjdTmbLNjxyNMbU6rMZEW2vbta223WC1ccP6ddDDOl6+L7fHWiJx8fEmgMQpTN98+Wk0ts7R6dAUpCJSEDd3D1Su29IUuUyOP2L97Sq5wrzMyvANDDWFjhNiDyDH+hsrUtY0Bak4OzfrS6NyZF3Mge2rsG/LMvtR+cXgRFBoRTMuVMqPoPAqiKzWCHGHtiM95e9pJvNj3QfONEGVoqPg6fl3cUs6FhtnhkWwUGZoSBCOWJ1o3o+MjDDDKDIyMk3Hl51sdvTzdurzYpCCNS44fIHZEJyRgkGQvDjMIsbafo71X3hoqNkm6y0ww4EdfrNOerrpiGdY67Izfc/Dz2Lm3IV47ME7cc+AfqZTzmyIsLAQ8zoH/gmOtTreScnJZuaPEOtYmKnB+gyVoiqaYpIc3hF//PiJ42UGA7MVHBjgYKCDX3ajoiLNcTBD5PDRY6bdKkZWMG3C17NGBl/L/eb+8F8ABgfirTbIsl7PWUDYBnyO/m6fFHPVLyjQH4GBgSaAQ9x/Du1goCQzK8vMksLAi6NGBNuKr2dmBJ9j5gaDHtwXDqXhe+7bb31Rt9ZlIIr7ye0/Oeg1TJryh5mthUNNOGSE24o/nmi9X5L1d8EdIUFBhZ7XoggIi4JfYAXr7+liZKT9nbkhImc3v+AIVK7TComxB5AUd9AM0yhJwZHV4e0XjAPbliMtObfGkkhZSrU+d6lJ5fez5xcYhvqtL4OXt6+9RFyNghQuSEEKcWVFDVK4ur63338iSPHo/XfYSyW/pSvX4n93PwY/P1/0vqqnyd5Yv2EzRoz+xgRmHrx3AB665/Z/zMBSUhSkEJGCVKzZFIEhFRF7cDsyUhPtpSXHNygCIZHVcXTvRsQfKZmZpESKQ0EKcXbKoxcRkTOmeeOGZnhHYlIShgz7Av3veAjvfzzcZE1wmMdNva8olQCFiEhBvHwD4B8YboaAZWUUfSan4mDgw836j0PONKRVROTflEnhgpRJIa7sbMmk+OHnqdixa4+pudD2/Bb2UilI/PEEM8vKhs3bkJyUbKZoZb0P1gwJDgqy1yp5yqQQkX9yQ0hkNVSo0sDU/kqOP2wvL3nhVRohKyMFB3esPml9JpHSoEwKcXYKUrggBSnElZ0tQQpxfgpSiEheLJjJf58CQiri6O71JVowM7+AsErwDQiz/v4sQWa6/v5I2VKQQpydcsxERERE5Kzn6eML/+AKJoBemgEK4pAPDy9veHh62UtERMRBQQoREREROesFBFeEh4c3UhJzZ5YqTWba45xsBIRG2UtERMRBQQoREREROesFhkYhPS0JmWnJ9pLSk52VgYz0FIREVIWbPaWziIjkUk0KF6SaFOLKVJNCnIVqUkh55+XrDw9PjckuCn7nqFynBZLiDiEx9gBQ2l+P3dwQGF4ZgaHROLhjFTIzVDzTeeSY7ycm26WcUk0KcXYKUrggBSnElSlIIc5CQQop7ypUa2j+5sqpcUpQiju8E+nJ8eZ+afMNikBIheqm/kWO9Z84CatrtH/bcqQllc3n4ExQkEKcnYIULkhBCnFlClKIs1CQQsq7ijUaIzCssplKMysjzV4qhWGwIC05HjnZpVs008Hd0wvevkEa7uFE3D29rd+ZaOvfhSVITYyzl5Y/ClKIs1OQwgUpSCGuTEEKcRYKUkh5xyBFQGg0Yg9sQ2Zakr1URArj6e2HiKoNFaRwcQpSuD4VzhQRERERERERp6BMChekTApxZcyk4NU9TvGm9GM5k7x8A+Hp6aNMCim3lEkhUjzKpCgflEnh+hSkcEEKUogrCwqvjIrVm9iPRM6szIxU6+/pUmSmK0gh5Y+CFCLFoyBF+aAghetTkMIFKUghrszLJwB+QeH2I5EzKyc7C0nxh8v1VHNy9lKQQqR4FKQoHxSkcH0KUrggBSlERETkVBSkECkeBSnKBwUpXJ8KZ4qIiIiIiIiIU1CQQkREREREREScgoIUIiIiIiIiIuIUFKQQERERkVNKTU3Dhk1bMW3mXHz342T8Nn02Vq5ej6SkZHuN/yY2Lh6//DodP03+HfsPHrKXlo3fps/BdxOnYPXav5CdnW0vlZKya89e85mZNXeBveTk4o8nmPV/nTbTXiIiZxMVznRBKpwpIiIip1KShTPZafxs1FeY8NOvOHI0xgQsfHy8ERIcjG6d2+P+u25FzepV7bWLZvJvMxAXF4/WLc9Fg3q1sXb9RvQf+LDZ9pB3XkL3zh3sNUtf5559sHnrDgy8/SY8/ei98Pbysp8peavXbcBa61a5UjTatW0FH29v+5miizkWi9nzFiIrOxvtLmiNKpWi7Gec0w8/T8V9jz6PC85vgYlff24vLdymLdvR6dLrUbNmNSycPtFeWvpUOLN8UOFM16dMChERERE5qdfe+QRDh4/Dnr37Uatmddza/3pc0LqFCViM/2ESnhr0hr1m0X3y2Rg8P/hdLF620jyuUCEc/W7qjdv690HN6tXMsvJo5uz55rjHfvMDUlJS7aXFs2//Qbz1/qd43TovW7Zut5eWH+FhIbjrjn7oe/3V9hIROZsoSCEiIiIihVq+ai3GWR3q7Ows3Pm/vvj9p3F4fdAT+OaLj/Dm4GcQGBCAOX8uwvDR34IJugcPHcGefQdM9kVqWhr2HziEQ4ePIiMjw2wvMzMTBw4eRmJSssmaOBpzDIePHEV4aChuuKYX+l53JapWiTbrUnp6Oo4cPYa91jZjjsX9azgGAyd8D243ITHRdOC5zex8ycKZmVk4FhtntsN1YuOOm/0tipTUVPMa7ne6dRzHYuPNduLij//rfZjdcDQm1jzPn1yf+F4c0hJj7QOP+3hCIvbuP2D2m7Kyss12He+TnJxilueXZrXHQas9k1NSzY1t6xhyw/c4npBg2uPgocNISi7aUJzklJTc82a1JduIx8DbvgMHzTLuN2VlZZl9M8usfeX78T73mecpMTHJes0hk+mRnX3yts3IyDxxXrm/bA/H+QgNCcHtfa/DtVdcYh5z21yHNx4/zx1fx/3S8ByR8sfjRYt9X1xEYuxBJBzbbz8qv9zc3ODjG2CGfYiIiEjxBIRWhLdvIFITrQ5jVm5H+XSM+WoCFi9diYb16+DlZx9BWGiIWc5/p2vVqIYNm7dhy9YdpiN5ec9uuP/RQfj8i69x1Oqozl+0FO8OGW6GdjBwUb9eHdMZvefhZ7HReh07mBs2bsXWHbtQs0ZVPPzUS2ZICYd/VK9WxXR+ua1Pho/F6K++x5z5i02ggtkc/v5+Zj+6X9EXM+bMR7WqlfHeR8MxbMSX5nGS1clvWL8uvLw8TYf/u4mT8f7HIzBi9Ddm+MGCJcutDm8G6tWpia/GTzTbbXleU3S48Hx4eHiYbTssWrICDz35EqZOm4X0zEx8/Olos50ly1ejYmQF895u1nrs1I8cOx4ffz4GX4z7DrP/XGSCCLWt/fX29sLHn43B19/9hLS0dBNI+WPmXFx6cRd4Wu/33Y+/4IOhIzFyzLf4afI0/LVpKypEhCE6KtK0tcP6DZvw+LOvmu2yzZetXIMaVtvxXPxq7d+QT7/AZ6O+xs9T/sCa9RsQZnX4o6xteBTwfYpBgXUbNuPtDz/D56O+wthvfsSf1jljQInt/+pbH+E9q824ziXdOmHHrj2495Hn8aXVXr5+vmjWuBEuvqofpljnNyAwACOsfR/6+VjMnLvAtHldq205nIW1TLhvVatUwg3XXo7DR2Lw+eivTTvyvE6c9DuWr1oHP2ubNaz33bNvP67vfw/mL1yKPtb6fP39jw3CpKnTTVBo2Ihx+HTkl1iweDmCgoNRx2rfvG10utw9vOAfXMH6nr0Pmemnl+XiCjIz0sytvPLisJ0q9a3fYw0Zd1UKUrggBSlERETkVEoqSMEAwa7de3Fx907odWlXeHr+/cXfw9MD6/7ahGUrVlsdTD9cffnFGP3lBGzdvhNbtm3HkmWrTIf00OEjWL5yLY4fT0DXju1wPDEJ663XcbhDqxbN0aXjhVZnPwJfjf/JXKHv3qUDQkNDcPvdj2HybzPN1XpmLfAnAwbbd+xGpw4XwNfHB4MGv2teM3fBYqxYue5EtgSLYDZr0sh03qfPno+nX3zTBFNCQoLNtjZs3IJVa9ahaeOGJhPkZEGKTVu2YfyPk00QgsfBTjO3sW3HLsz9czGu6NndHMujzwzGtxMmndhf7seyFWtMe1xsdfKZkbF95x4cOHgIlaKjzHG2b9saP/3yO15/dyi2bd8FX19fHDpyxNq39SZ4061TewQE+Nt7wqyCDOzdf8hs083NHe3bnW+2s9Q6B8++/DbWrN1g2oBDcRgAWrRsJRo1qGs6//lttI7rkacHmyEoDJz4WO3J2iAMSlWKrmidl3aYaO3b2nUbUTGqggks/ThpKoKCAvH4g3ciPCzUtD+Pdeny1VixKrf99+zlca9GrZrVrPeu948gxbVXXooxX0/AkE9GmayLwMAAk8Xx14bN1meG7dTRtOWQYaPg4eWJAf1vMAGuL7/90bQri7XyM8f33LlrL+YtWGLql0SEh9lHdfoUpCgfFKRwfer9iYiIiEihDh48bH5GRVYwQYG8mAEQYDIa3EwHPO/QBj+rsz1q2LvYvu5P3HfXrSa4MWP2n9i9dx8euvs2sz3q2aMTbut73b+KVU6c9BtWrF6HKpWj8O2YT7B74yK898YgqxPvYwISLBzpwCEAjerXw5I5k/HHL1+bLIC4uONYZ3W4adnKtWbfB97eFwtnTMTSeVNMwU4ON2AwoDiusTrZG1fOtvZpKMLCQkwAhh17XuVfsHgZgq0O/Ocfv4k9mxbj0yFvmKDItBlzrX1egssu7oKO7dqY7TDLgB19tuGvf8wyQyWefeJ+LJw5EXN/n2CCN0uWrsK8Rf8sll69amX0v+EaBFmde2Ye3HTdlWbZI0+9goSERAy49QZsWjkH8/74AW1anYtdu/dh4uRppuOfF4duTJsxDxs2bEbtWjUw9adxWDJ7El567lEz/IM1Q+pYyy/t3slkvHz4yUiM/foHM2zmrv/d/I9CqRyyElkhHHOnTTDnoP2FrU3GzM+/TjfDfvLifmzdvssEOh57cKB1vD9h1cLfULlSFDZs2mKOoTDcDwa01i2dbva3SuVoxMTEmkCFiJQfClKIiIiISKGYIUGso8CObV4MRjhqKrCz7RhS4G79vLRHZ7S/oJUJVtzc52ozAwWvsvOKe1FwqlNu58rLeqBdm1bw8vTEVb16oH692qajy6v1DgxcPPPYvahaOQqNG9YzQzjYoXUETfpc08vUz7iofRsz3egX48abmg1m//Md08kEBwWhp3VcIVYHu0HdWtb7VTLLk5NSsGfPPpPl0LBBXVzc9SLTHj27d8Q1V14CjkT49vufzbr5xR8/bjIVmL3BTJMhw77AN9a6ftYx0c+Tfzc/T4bBmLS0NDNjyO39+lj7GYC6tWrg8YfvNudk1pz5OHw0xl47F4MNDLDw+DlQ4oeJU/DOkM9N1gwzKg4dOYqU1BTcfOM1JhuF9SB2W8fYrUt79L6yZ+5GbJzp5clH7jbvWa1KNB6+d4A5nmXWueY5z4uBlQG33IDBLz6Bc5s2NkNbRoz5xtTPYF0O65QUKsDfH5d074Tw0BBUqxxthghRamr5zXoQORspSCEiIiIiheLVdNqybYcpdpkXO+XH4nILKDJtn51bcnd3M7UrPD1zh02EBAeZIQsslpj/ynphjhyJMa/nMBDHdhjw4NVzBkvydkzZEWdHmThcNP9wDXaUWf/gkSdfNrUlRn/5/YlCnsXB42JtCeL7MIhC2TnZVoc+zbQDO86OrBAv6yczRtzdPcxQhYKwTRic4P588MlIvDvkc3ObO3+xeX7fvr+DMYWJP56bfcA297eDSlQluiK8rP1lxgiHc+TFfU6z95nDVt79aLh531Fjx5tCnAxK8fye06Aumjc7x7yGbfzIvXecqAfi4O3tjQoR4fYjmKEi3l6e5lzz+PJyt9pt46atJjOD05I+8dyrpkaIj/c/s3QKwvbOe54d7S8i5Yt+s0VERESkUG0vaGl+Ll2+xhRQZKfWgTUa1qzbYO6zOKSj88p1mO3gmHmBHXgOyWDGQ6WoimbZqUREhJlgBAtwOrIdOFvIgYNH4OFhdVbtTIOiYOefNSo6X3Qhxo8digUzJuL8lufaz/537m7u8LU6z+w4M8PD0THPyMw0M3ywHTicoSA+3l7mWPn8zr8W4MDWZea2ZfVcrFn0O37+doS9ZuE49IOYlcFhNw4Hj+TOqsJ6DY7gigP3meeLQYO77+iPfVuWmvfds3GRed+1i/9AjepVsXFLbm0RYuDi7SGfmaKkefE8OWYYIQYnODtIdHSkOed5sT1GjfsOm7dsw/XXXo6pE8di3m/fm/oVIiKkIIWIiIiIFOriLh1Qt04txMXH44XB75qZHRYuXYFJv07HMy++ZXX+N6BChXDcM7D/iQwCpu3PnLPAzH6x/+AhfMeik/sPmpkwWrdqbtZxYP2Dgqbb7NG1o9nOlKkzMGP2fFNb4fuffjVFLP39/VGzRtE7tSy2yWEG/W+6BvWtY2FWyGbrVlKY6VG7VnWTSbJh42ZM/n0Gdu3Zh8nWvv80+Xdzxb9P7yvstXMxeMA6FIGBgabAJ4tHfvTpaFNsc/fe/Rj81hAMuO9JzJi7wH7Fv+VkZ5vgQL26tRAeHma18SF8/f3PpgAl63lwthNOBco6DqwZkRdrhDArhdkev/4+08wSwiEhU6bNwu33PI6nXnwdR48ew9DhY7H/wEEzowpnGmGRTc6U4ghAEc8fZ2Fhu/K9hw4fZwI1F7RqYYpr5sUpUjlDCTNr7rmjnwlacZpbvlZEhBSkEBEREZFCMY3//TeeN53w9Rs2Y9Dg9zDwvqfw2DODzawYvBr//FMPouk5DexXMBUfZggBp43sN+AhfPzZaNOR7dqp/YnhIwGBuTNWjP36R7z+3lCTbZHXdVf1xAXntzCd3oefehm9+92FwW98aIZGdOrQFhddeL695qnVqVPTev9kPPn867jzgacw8P6nsGvXXvvZ/87dwx29Lulm7e95OBYbj6dfeBO9b77L+vmGCc5wxgrOQEEMlhBn4bj/8ReQnJJqZvDgMAa2U9//PYAbbr3PTFXK4pPNGjc06+fFoAizNjj85r2Ph2PD5q14/cUnTLbE5yO/Mq+/7a7HMH/BUlPcs7fVlqznkBezUXpe0hV1atc0Q1HufvAZ9L39ATw16A2sXL0O5zZrgjV/bcQfM+aa4TNvvvI0buh9ham18emIL01wyoFBGH4WeK5vvesRTJ020wz/6dG1g11Y9W+5Q3YqISEhCbfd+SgG3PcE7rLeOzlZdSVEJJeCFCIiIiJyUq3Oa4YRn7yF3ldfZjIR2NGuXq2y6XyP/fx9XH/VZfaauTg1JqcrZZCBtRAqR0fhpuuvMsUVHcU17x7QD00aN+DYEBw8fAReXp5mPV7dZ0eW9RVGDX0bt/TtjapVos3r6tSugTtuuwlD3nrB1LmgalUro0qVSqawpkNkRLhZ7lhn8KDH0NI6Bs4cwSlRr72yp9ku1+GyYGu9atY2QkOCTRHJ/EzHulKUGZLh451bE4Gd/KiKFcw2WAeCmQpD3x+MPr0vNzNfsONes2Y1M5TivdefP1EIs+fFndGm9XkIDw/FgQOHzNCY/jddi6cfvRfnNWtshogwyHNR+wvwwtMPFTh1KGcv6Wg9X6tGVdO55+3S7p2t43wcrVs2N0MseCwdL2prZlhpd0Er+5X/VN065qEfvGrOI9uKwzT4fo89eBduvPYKfDr8SzM7SX+rrTq0bY3Le3Yz54xDROYvXn5iWAvP3aCnH0Q16zPBzA1OO3rvnbegR9eLTDCFgSy2E+uLsF7Fw/cNQNMmDa1zcRRJSSl48J7bTRtwnSXLV5nt8b5jaBDbnG3PzwanaCW2b8UKEWa9oMBAs0xEygc36w/jSWroijM6sH0V9m3553RU5ZGb9Y9PUGhFuGuOYxERkWKrWKMxAkKjEXtgGzLTkuyl/w1rQvAKOItW8so/U/bzX6Hv1usmc2WfU2E+ct8dZjgCO6pM+3cUPSTWLIg5FmuKN3pby0ODg039CX41jbA68AwMEGtZMHsiNS0d/n65wYu8BRM5NIKd5qioyBOBCg5TSLb2kR1v3jg0gR1wZh6wdkRoSIiZTYKZCuwAc4YSrsNpMbk+9zcv1teIiY0zwQNmlvA1rMNwJOaYKS7JZdw34nHFWusyM4SBCc4Ikr8eRFz8cTPUg8cazeKW1n7zPo/TUZw0JCQIgQG5tSYKwmEynGaV9TrYtoHWueA2EhITzTliGwUHB/7r/BSEbcxtpVs/GYAKsc6Fm7ubmX6W22SgglOr8pg56wdnBmFgJjwsBFXqn2/O67gRH+DcpudY7cw29TL75ChgyhoWPNdsew75YXvHWu/HzxMzLRhQ4flJsNqE64SFhuLAocOmXRjU4P4dtdoaVq+F9TUYhOH5Yn0LboOv5/79V57efoio2tD6nr0EqYn/nJWkPElNtto+6bj9qPzxCwxD/daXwcs793dSXI+CFC5IQQoRERE5ldIIUhRF3iDFs4/dZ2Z+kPKrUt1WJ4IUHdoWfQiOM1KQonxQkML1KUjhgs6WIIWIiIicvpqNOyCsUm0FKaRUlccgxaYlU5AYd8heKq5GQQrXp5oUIiIiIlJiWFvgkfvvQOcObU+k+0v59egDA/HQPf9Djar/rp0hInI6lEnhgpRJISIiIqdypjIpRFyVMinKB2VSuD5lUoiIiIiIiIiIU1CQQkRERETKldFffo8PPhmJlWvW20v+beHi5XhnyOf44edfkZKaai8tedt27MLHn43BsBFf4sDBw/bSM4dt8r7VNmyj1Wv/Mu00fPQ3ZsYRERFnoCCFiIiIiLgsTiM69psfMGzkl9h/IDdFf/RX35uO+KqTBCkWLFmOd4d8jgk/T0Vqapq9tORt274LH38+Gp+OHOc0QYoPPhlh2mgVgxRD7SBFnIIUIuIcFKQQEREREZcVGxeP9z8egZdf/wC79uy1l55anVo10aNbR7Q8rym8vLzspSUvMjICXTq2Q6cObRESEmQvdQ7VqlRGt84dcFG7NvD397OXioicWR4vWuz74iISYw8i4dh++5GIiIjIv4VWrAG/oDCkJsYiOyvDXnp6srOzcSw23rrFITExyTz29vaCm5ubvYa1Tk4OEhKScDTmGJKTU8zMHp5ennCsEXMszrpZ+2K9ls8dOXoMicnJ8Pbyhru7OxKs7fK1WVlZ8PHx+ce2MzIyERcfb7bBrAcva7ue1jbS0tOxZdtOTJoyzbwngwGVoivi6+8nmeELnTpcgPp1a+Oo9V7Jqanw9fUx70UVIyPQukVztGzeBKEhIYiN4/7Fme0COfb+pcDL03ovz3/OUpKQkGiOJTkl1Uy/mWr9PHTkKDIzM+Hv98/OfnBgIJo3bYS257dA5UpR1rY8sWffAbO/fr6+SLLaICYmFukZGdb++f7juPNLt46X5yDWOhdsO67LAMvJXpOYZG3f2tck66eHdRzr1m/CnD8XISw0xMzC0uLcJrig9XmmPRyzsXD4yzGrLeLi4q37aeb4ud8OeT8PPGae5xjr3DFgZO2M+Rl/PMHanjvS03L32dtqJ26f55fnJsZaxnZkDX9OU8tj4GvY7u7ubmY9njfuC593t7bF/eG2Wfaf7V7S3D284B9cATH7tiA9VcVmXZUXC6BWqW993v7+zIpr0eweLkize4iIiMiplNTsHllWh/TDoSMxfdZ8q+Maa3V0PRFldWivvPxi9L/hmhMd5Em/Tse4b3/EXqsDzk5lvTo1cd9dt+LcJo3M88+9/A6mzZyLzhddiAyrQ75i5VqrV+iGK3t2x9VXXILnX3kXW7btQHRUJO649UZc2r3TieAFh24sXLzMBBECAvzR3NrmA3ffZjrgt975CA4fiTGd2krRUbjnjn4Y89X32L33APr2ucp0kNkxZ6f2ovYX4JnH7jWBhxFjvsHnX3xjggcvP/co3nx/qDnGh+4bgD8XLsV66zXsLLc5/zw88+h9CA4KNJ3j+YuWYejwsSZrgwGWZk0boY3Vyf/g4xHo1rk9XnvhCXO8DvMWLMFLr39ggglvD34GTc5pgPM7XWG1YQW8aL3v2x8Mw549+832u3Zpjwfuus3a7r8zO47GxOKdIZ9hudVuHOLCdWpUr4oBt9xgHVcbqyn/HajYsXsvBg1+Bzt37TVt2fLcpiYYMWzEONSqUQ33W+/1/icjUCE8DB+/+wqqVqlkgj6vv/cJduzcg2SrfdnedWrXxHNP3I8a1XKnGf1y/ER88/3PJrhSoUI4el91GWb/uRAbNm7FnbffhGkz5pmhN9dfe7mpe3Hw0BG8/eozaFC3thleMmP2fHM83ONKlaLQ/6be1uegGz4b+RVGffkd+t14Lfbs3WfqhvCz1LfP1TinYT289s7H5nzyPD/x0F1o3aKZ2Z+Sotk9ygfN7uH6lEnhgpRJISIiIqdSUpkUX43/Ca+88aG54l29WmXTwd+waavVEZ2L5s0bo5bVUR791QQ8/ORLOHT4KHy9vZCSkoK1Vif/t2mzTVAiIiIcEyZOwZJlq7Db6nyyA8sr5Pv2HcC8hUuxbsMmbNy81WRJbLU6yewod+vSwXTE3/7wU4wY/Y21zTSEhYWaK/zLV64xV+OZofDXpi04ePAIMrOyTADgwgtaYuGSFSZ7YPPW7SbDISszC3v3H8DS5atRz+ooN6pfB7PmLcRvf8w2wzF69uiMSb/+YZ7fvGU7Nm/ehqzsLOzbf8jUtWCWSNs2Lc22Hn3mFSxausJkE7BNVq/5C+v/2oTde/ahetXKuPzSbnbL5dpkbWv8j7+YNuFzzPQYNPhdHE9IwISfppqfPO6du/eadm3W5BzUtNo0r7S0dLz5/jCMsdqZ2SMR4WEmE2PNug3WcR1E984d/jVcY//Bw+h72/2mrZiJ4uHubo5t8bKVSE/PsLYRisaN6mPSlD/M8V17ZU8EBQfiQes8zpj1p8lWCQ4JNueU78O27HVxV9Nu9z82yASGmE2TlJRiLVuAXbv2msBDy/OamffctmO3aTueawZgenTtiFl/LsSLr75vMiYYGMnOyTbtw0yYHt07WZ+ZjeZzdSwuHus3bDHZH2zXlWvW4dsJk0xwKy4uwQSzeBw9L+6MoMAA+4j/O2VSlA/KpHB9qkkhIiIiIoX6xeq8M93/xuuuwLAPXsPoT9/DQ/cOQIvmTbDM6tTv3L0Po8aNh6+PD27t2xvfjP4Eo4a9gy4dLzSBgicHvWHS+h0qR0eZq/Yjh75tdchzsyw4fOHzIW+Y7YeFhZiABWfFOGq9np1WZjC8/dqz+OaLjzDsw9dQsWIF07lmRsHg5x8/UevhoXtuNx1pdsgZRGhYvy4+tdYfN+IDdO3U3qwz5svvzc/C8LVDP3gVX40cggvOb2FtJ8dkFaSkpJoMC3akq1SOxodvv4RvrWN94dmHzdCF4kpKTkH3rh0w9vP38flHb6Ba1co4Hn8c66zt58chIfv2H0RERJjJBPlm1BCMHf6Bebxi1drcYRb5cF/3H2SAIAjPPfEAvh83DEPeeQl1atUwbVMQvsdfGzejSeMGVru9jq+tNnjo3v/Bz8/XPMfAx+vvfGKCMzy/PM9fWftySffOSEv/ZyCMmS3R0RXx7uvPY/jHb1rnvSK++2EyIiuE4/Z+faxz8iFGfPwWzm3WxKy/cNHfWcJpaWkY8cmb+Mz6TAQG+JvPB4NdX1r789iDA012x/HjidhlffZEpPxRkEJERERECsUOIa/EfzdxMp4a9AbGffuDqWHw2UevY+BtN5nhDHv2HrA6pJG49ebrzDCP85o1Rq9LuprO7Z69+0/MukF1a9dAk0b1Tep/rZrVzLLaNavj/JbNcVG78819doKZXcDsA3aOWQ9h2vS5ePPdYVZH9xeWjDA1HDZu2mqGcTiGnPDKvqN+BDM+Lu3RCW1anWcyBrh91khgbYuT6djhAnRs1waNGtQ9MZyAV/BzrI79dz/+Yjr4HN5wcdeLzLH2u+Ea02EvLrbNfXf0R7PGDU171qlV3QytSbU66PkFBQbi2cfvx5jP30cDkwWyCMO/+BqJickmKyJ/0CHH+u/AgYOmDRvUr4vrr7nMZGfwuK7q1cNkSRQkPCwUYz97D2++/LQJokyc/Dtmzp5v3sNko+zbbzJYuO+9Lu1mznNDa3/uG3iLCULkxfoTV17WHd07t0eVSlHmc/TqoMcx2to+23jpitUYb53L3XaxUwYmHM5pUA/nNW+Cdhe0RLT1Wrp3YH9reV3T1qEhweaY+RkQkfJHQQoRERERKdTdA/qZjiivXP8+fQ7e/uAzXHH97aaGREJSsqlTwYKOfn5+J1LvGTQIDw81neHs7CzTWXZwc7e+fjKmkKeEArMXHAUtWTTTgVkMDJCw3gKHcMxfvAwLFi83QQtmHpysYCTfx9/qTDtqNeRuv/D1HdgBd2CgIy8OZ6BKUZHmJ3H7VStXsh8VHffHcaw8jtyCnYXJwer1GzDgnsfRp989eP3dT0xGB4MuBTJBnEzTka8cHWmyXIjvyeKdPt5/t3FeDPJMnz0fffrfizvuewLDv/gGe/btt16X226OgAjrazCg4Wj/sNBgBOQbbsJ2CfD3P3Fe+ZjTnD72zKu48dZ78fzL75jPU2Zmlnk+r7wFV/nZoMCA3M8Wi4s6CnyKSPlUyF82ERERERGgTu0aeP+NQRg86HHce+ct6N6lA0KCgzDltxl4671hpnAisxlYIyH+eO6wDmZCsEPPTq2Hu4fV8S+4U3wq7LgzaMCCjuNHf4IJX36KCeM+xfCPODTkVVzV62J7zbLB/aC9Bw6anw6HDh+x75UOznjx0dBRpmjkc089iNGfvmuGsHA4RYHc3ODn62M686xZwfoflHtejhWagTBt5jwznWul6Ei8+sIT+Grkh3jmsfsQaAefeC4YGMmwzitn8+D2iMVNOQvIybCGxVMvvoHNW7fh+msuN0NAxnz+Hs5v1dxeQ0Qkl4IUIiIiIlKo197+GE8Oet3qiCbi0fsH4oM3X0Tvqy8zV9F37d6Ljh3aIjqqIg4cPIxR474zHdade/bhp19+R6rVOQ4NDUGV08g0IB+rox0VFYkdO3dj0dKVJnvC188Hg9/+CE+/8KYpsFmWrrr8EvPz+x8mY9qsP03H/MdffjPZB6WJs5iwEGVISDD+1+96M8xix869OJBnGE1ezEJguzF4xCKTM+csNMUxWedjvLXvzHwpyOSp083QlkYN66Fnj06mfsWGzVvN1LLEWTUYqGDQ46fJ07DLOs883yPHjP/HkJ6CcIaP2Ng4M+1q104XmiEuHAKyfeceew0RkVwKUoiIiIhIoZo1aYit23eZWRn6DXwIdz30DL76dqLprN7Wvw+qVY5G/5uuNR3ikWO+Qf1zO+LCLldhzp+LULlSND569yVT/PB0cAaIy3p0gYenBx5/7lW06Xg5zr/ocixYtNzUaahft5a5ss+OL7385kf4xepoZ2UVXBjyv7qobSu0btkch4/G4JY7HkLtJu1w/6PPIyendN7PwddqW04devjwUdx8x4O455HncPdDT5/IZMjMyjQ/8+LUqk0bNzTDdLhuhx7XovsVN5vMisKGSzRvco4ZyjFr7gI898o7GPjg0/h6/E/WMznmvTik48lH7jGzdXCdttZ55vn+ZsLPJghyMixuyiKeDGoM+XQMHn/+NVx5wx3Yuzd3xrrSOmci4noUpBARERGRQl1/TS+T+t/porbYv++gmTa0ndVZf/GZh3HZxZ3NOrfdfB3eeuUZXNq9E2rVrG4KVd7Q+woziweLIBKnvORwiYiwULi7uZtMDE6lWY3LrJ8OnP2B6zHw4Ovrg4G332Q6xhe2aQl3D3fUrlUDfftcjVeef9Ssy9f2veFqUzcjLjbOXLGPqlgBVStHn6hjQKyXUbVKNKIr5taTYIeZ7xMZEW7qJnA7fBwanDtTCAVZnXEuq2CtwxoX/Pn8kw+i99U90aBeHTSyju32/jfi4m6d7Ff8G4M5VSpFm1lNWPOBuE3OEOJlF/kkTtPK5SHWe+YXZe3zw5xR5dwm2L59t+nov/D0w2bGC76G03Xmx/d8a/CzuObKS1GrRjX4eHub+/fc0c9kSLAd2D5sp0pRFU3BUc7Ocs/A/mabS5auMkNGnn3yARO8YNYDszJ6XdwFr774BLp0ameKcZ7f8lw8cPdt1mui7XeG2XYVaxuOYSLE6VmffeJ+tG/b2gwV4VSz/W68Btdfe7l5PwZ+OIyI91nvwiE6KtIscxT75BAg1gRhbQ1HrQ0RKV/cchwhWHEZB7avwr4tf0/TJCIiIpJfzcYdEFapNmIPbENmWm66/uniVfLjxxOQlJRsHrPDyqvpjqKIxHU41Sg70MxuYIeTxTQdBRA5HSnrVvj7+yGMRRetZcdi461lyWa9ChG5gQrWLuBMDwwIsINPnPUiPv64eT2zADjsgUUxHTgjBqepZBHG4OBAs15mVhbCrPUcHWUOV4mLTzCBAQ5PibeOh8fEQAgDFHx9ckqKCUxw9gji81yPARMWAo21Xs+aDvz6HBwUYB1DboHQx559FRMmTsFt/a7Hay88YV7rwKERx47FmToRPEYGCzjjCYMe0RUrmCKgxLoTHB4TbLUb2y4/FhDlVKMcqsFj4noxMbHmNTwfeTv2eXGoCI+DQSGeM/5kbQsGJbgdFrNk8KdihQizL2nW9k1bZmVa+5HbzjwnmZmZ5n3irG2x1giLijLowkAB2+3G2+4zQz5efu5R9OjSARnWuQgNCTIZL3nxvTlzCNs0NDQYidbnhZ8bZnBw2fGEBPMZcQSuGHTiEBSeMwYqOLXpoSNHkZOdY6ZgLclAhae39b5VG2LTkilIjDv58BVxXn6BYajf+jJ4ef/9N0Jci4IULkhBChERETmVkgxSSK5vJ07G408PNkMX3hn8HIJDAnHgwBG88Oq7puP94Vsv4oqe3ey1yx9OP3pdv7vx14bNpoDqLTdfZ4ILU6fNwlfjfzIFN0cOfcdMFeqKFKQoHxSkcH0KUrggBSlERETkVBSkKHlHYo7h2Zfexrz5i01mA6fK5JV9fz8/XNWrBx65/44CsyDKC3YbZs9bhFff/sgUzeS0oswI4bSkzHzgsI8+1/T6R4aNK1GQonxQkML1KUjhghSkEBERkVNRkKLk8Wszh1xs2rIdBw8fMVNxsq5DpUpRqFen5mkXCHU1u/fux9btO3H06DEzbCc8IszUvahetYoZRuKqFKQoHxSkcH0KUrggBSlERETkVBSkECkeBSnKBwUpXJ9m9xARERERERERp6AghYiIiIiIiIg4BQUpRERERERERMQpKEghIiIiIiIiIk5BQQoRERERERERcQoKUoiIiIiIiIiIU1CQohTkZKQgY99K5GSm2T/T7WdEREREyo4bb27W/+umm25Fu4kUIG3zdGTF7UXG/lX2EilNbjkW+76UkMwjmxD3zS0I6/cdYsddj7BbJ8IjuJL97H93YPsq7NuyzH4kIiIi8m81G3dARJV6yEhNQnZ2lr1URArj5u4Bb98AbFoyBYlxh+yl4mr8AsNQv/Vl8PL2tZf8d0ffb4XAzo8j6c+PEHHfn/ZSKS0KUpSCzIPrcWzUFYi4azpiPu2GiHvmwiO0iv3sf6cghYiIiJxK1QZtEFGpjv1IRIqCXaNtq/5AUvxRe4m4mtIIUhx5oz4Cuz2PxBmvIvLJjfZSKS0KUpQCBSlERETkTPP2C4JnCX5JFzlbpCXFISszw34krkZBCtenIEUpUJBCRERERESk7ClI4fpUOFNEREREREREnIKCFCIiIiIiIiLiFBSkEBERERERERGnoCCFiIiIiIiIiDgFBSlERERERERExCkoSCEiIiIiIiIiTkFBChERERERERFxCgpSiIiIiIiIiIhTUJBCRERERERERJyCghQiIiIiIiIi4hQUpBARERERERERp6AghYiIiIiIiIg4BQUpRERERERERMQpKEghIiIiIiIiIk5BQQoRERERERERcQoKUoiIiIiIiIiIU1CQQkREREREREScgoIUIiIiIiIiIuIUFKQQEREREREREaegIIWIiIiIiIiIOAUFKURERERERETEKShIISIiIiIiIiJOQUEKEREREREREXEKClKIiIiIiIhIueDm7gF3d3VzXZnOngtys/4TERERERGRf3Jzs3pLburmujKdPRfk4eVt3xMREREREREHdw9Pk00hrktBChfk6eNv/b+yKURERERERPLyDwk32RTiuhSkcEE+vgFw89CpExERERERySskorp9T1yVerouyMvHH/5BEfYjERERERER8fDyQVBYtP1IXJWCFC7I09sPweGVWRXGXiIiIiIiInJ2CwipqHoU5YCCFC6IY6z8gsLg4eFpLxERERERETm7hVSoYt8TV6YghYvyD6pg0plERERERETOdt6+AQiOqGo/ElemIIWL8vEPRmjFmvYjERERERGRs5SbG8Kialp9pCB7gbgyBSlcFId8VKrd3NSnEBEREREROVt5enojKKIK3FWPolxQkMKFeXn7IapmE7i56TSKiIiIiMjZKTiyWu7EAlIuqHfr4ipUro9ATbMjIiIiIiJnIQ9vL1Sp0wLumlSg3FCQwsV5+fiiQrX68PRWEU0RERERETl7eHh5o1aTTqZen5QfClK4PDeER9VGVM2mGoMlIiIiIiJnBTer71OhSn0Eh2va0fJGQYpygDUpoqo3QaW651m/rDqlIiIiIiJSvgWGRyO6VnMN8yiH1KMtJ/jLWbFaY0RWbWiiiiIiIiIiIuUN+zqhUdVRp2lnM5GAlD8KUpQjHp5eqFynBaJrNTXjs0RERERERMoLXpiNrNoA1Ru1h6e3r71UyhsFKcoZ/rJWrn0eajS+CD4BKiAjIiIiIiKujxdhqzVqi8r1WsHbx99eKuWRghSlLCcjBVnxe+1HZYMpUOFRNVGneReEWT9zo4xuuU+KiIiIiIi4CAYnQiKron6rnois0gCenmWcMZ6Tbd+RsqIgRanJsf6XAzfPM5eG5B9UATWbdkTtZp0RXrkOvH0DTJFNERERERERp+XmBi8fP4REVkfNxh1Qq1kXBARXsJ8sW9lpicjJyrDuWf07c5PSph5rabB+qXIyM61PtHXz9EFOSpz9RNnz8PBCcEQV1GjUDnVb9ECNxu0QUrGaimuKiIiIiIhT4UyFQRGVUK3BBah7Xg/UatoRYVG1yj57Iq/MNHOhlxnyOZnp9kIpTW45Fvu+lJCs2F04Nro3Qm8ajfjxdyCg3b3wa9nXftY55ORk4XjMAaQmxyM9JRFZ6an2MyIiIiIiImXD3dMLnj5+8AsKR1BoNDy9fOxnnEPm0a049ll3BLR/AIlz3kHUoH32M1JaFKQoBdlJRxH3dX8E9ngBSTNfh1et9gjs+AhDg/YaIiIiIiIi4uzSdy6w+nY3w++8m5G66ltEPr3ZfkZKi3rNpcDNNwSeUQ2RvnUWPMJqIzvxCHI49ENERERERERcRvrupUz3QE5GMjyim9hLpTQpSFEK3Dy84FnxHKSu+RGe1VsiK263GcskIiIiIiIiLiInGxlbZ8LL6ttlJ8fAp3Z7+wkpTQpSlBLPyHrIOr4XHv4RyIrZjqzEo/YzIiIiIiIi4uwyY3Yg4+A6+Lboi+z4ffCMamQ/I6VJQYpS4hFRB24+AdYHexs8wqojffs8+xkRERERERFxbjnI2LsUbl5+uRegEw7DI7y2/ZyUJgUpSolHcLT1YW6I9G1z4FmpGdLW/mgtzc59UkRERERERJxWTlYGMvevhlfV1kjftcj6eR48Qqraz0ppUpCitLh7IrD788jYtxLuPsHIOLQeGQfW20+KiIiIiIiIs+LwjrTtf8Lv3OuQvPBTeNe5yGTKS+lTkKIUeVdrBY+wGshOjYNXVGMcn/w4cjJS7GdFRERERETEGaWu+wUe/uHI4kyNacfhXf0C+xkpbQpSlCY3d/i3ugUZu5fAt+XNyDq4Dhl7ltpPioiIiIiIiLPJTolF8opx8Kp5IZIXDYd3zfbwjKxvPyulTUGKUubdoLv1Kc9CduIh+NTrgeRlY5GTGm8/KyIiIiIiIs6Cme8Jv78Ed58guPkGIyclFkGXvmL1nD3sNaS0KUhRyjwCI+HT8FIkzx8Gv3b3mOIrHNskIiIiIiIiziV95wKkrvoW/hcMRNrG3+DX+hZ4hFa3n5WyoCBFaXPzgF/LvnAPiEDSnPfg0+gyJPzyGDKPbLFXEBERERERkTMtO+EQkuYNgV+LfshOPoacpCPwb9nf6tO52WtIWVCQogy4B1RA0CWvIGPHfOt+JDwiG+D4Tw8gK36fvYaIiIiIiIicKTnpSUiY8YZ1zw3etS8yM3r4tb0L7oGRuStImVGQoox412qHwEteQsqSkQhodw9yMlKRMHUQslWfQkRERERE5IzJycpA4ow3kPbXL/BrcaN1fzC8a7aDX/PrrR6zalGUNQUpyor14fZtejU8KzdH4qy3END5cWTsWYzEmW8jOznWXklERERERETKSk5aAhJ/ewEpK8YhsMcLSN86E/DwQnCvt+Dm5WuvJWXJLcdi35dSl4PMmB04/uN9gJcffM/pheR5H8GzcjMEdn06d1objXcSEREREREpZTnITjqKxJlvIW3TNAR0eAAZB9Yh8+AahFz9CTyjGtrrSVlTkKLM5SArbi/iJtwNN+t+QKfHkfjHS2b4R/BVQ+BdvbW9noiIiIiIiJSGjP1rkDD5CWQe3YKgy95E6qrvkLF3GUJvGA3v2u2tnrIGHZwpClKcIZlHtyH+u/8hJysLQaZWxSik75iPwK5Pwuecy+ERXEm/GCIiIiIiIiWG2RMxSNs8HUmz3oKbXwgCOj2BlMUjkHlkM0KuHwnvGufb68qZoiDFGZQZsw2JM15Hxu4l8G8zADnZ2Uhd8z3cvP3h3+JmeNfvDo+gKBVrEREREREROW05yE48grRtc8zF4eykI/BpfBU8AiORvHQMPIKjEdh9ELyqnGuvL2eSghRnWE5qPFLX/GiKaXpE1od/m4HIPPIXkv/82ExX6lOvO/zaDoRnRC37FSIiIiIiIlIUHGqfvGQk0jb9juy4PfBrfRu8arVD6opvrGW/wf+CO+F/4Z25mexQfUBnoCCFM7BOQdr2uUic8SoyD29CwPkD4FWvC9JWjUfGniXIjN0Fr0rnwqfhxSaQ4e4Xbt1C4OblZ2/ARbi7wyPI+uX38LIXiIiIiIiIs8lOiUNOahwTEFxKTnYGclKOm4KYDE6kbfwVGftWwN03BJ7VWsGvaW9kJR5E0uz34OYbhOBLXoZ3va72q8VZKEjhRLJTYpG2YSpSVnxtfqk4Hsqr2vlwszr1WbG7TVGXrIRDyEk+ap05N6vT74mczHTrla5xCt19ghF60zh4hFW3l4iIiIiIiFPJyUby4pFIXvSZdTfLXujc3JgBYS6E5vaL3Dz94BFaDR4V6sAjvLY5pswDa5C+a6F5zve8G+Br6gBGWyurDqCzUZDC2Vi/QIz8cfqb1LUTkbZpqvWL5GP9gtW3ftGqw7PKufCKrG/qVjADIyftOJDtIqfQwxNe1Vq5XgaIiIiIiMhZIwdZx3ZZt52mv+ESeAHXJwBu7p7mQm4mpxLl7egmZMVsQ1biEfjU6wrfZr3hVbUFPIIr575GnJKCFE4uO+GwqVmRtn2Wdf+QybZAdpbV0feFe5D1y+VCRTXdfYIQ1OtNe7yXiIiIiIg4nZxspKz5AakrxyMnxzUyKRyy43aZTHM3d3e4+YXBPTAKXtVaw6/FTfAIqWKvJc5OQQoRERERERERcQoagCMiIiIiIiIiTkFBChERERERERFxCgpSiIiIiIiIiIhTUJBCRERERERERJyCCmeKiJSypKQkHD58GDExMYiLi0NiYiKSk5ORlpaGzMxMey2Rs0tYWBgyMjLM74NIafLw8ICXlxf8/PwQGBiIkJAQhIeHIzIy0vwUERHnoiCFiEgpOHDgAHbt2oW9e/ciNjbWXioiDgpSiDNg4KJKlSqoUaMGatasCXd3JRmLiJxpClKIiJSQ1NRUbNiwAVu2bEF8fLy9VEQKoiCFOBtPT0/Uq1cPDRo0MFkWIiJyZihIISLyH3E4x5o1a7Bu3Tp7iYicioIU4syYWdG0aVNUqlTJXiIiImVFQQoRkf9gxYoVWLlyJbKzs+0lIlIUClKIK6hbty5atWqFoKAge4mIiJQ2BSlERE4Da00sXrwYx44ds5eISHEoSCGugnUq2rRpgyZNmthLRESkNClIISJSTMuXLzcZFCJy+hSkEFfDwprt27c3xTZFRKT0KEghIlJE7FDNnj0bO3futJeIyOlSkEJcEYd9dOrUCdHR0fYSEREpaQpSiIgUwfHjxzFjxgwcPXrUXiIi/4WCFOLKunbtitq1a9uPRESkJGkyaBGRU4iLi8PUqVMVoBAREYNB682bN9uPRESkJClIISJyEgkJCfj9999NJoWIiIjDnDlzsG3bNvuRiIiUFAUpREQKkZWVZa6WKUAhIiIFmTlzJvbv328/EhGRkqAghYhIIVgk88iRI/YjERGRf5s1a5Zqq4iIlCAFKURECrBq1Sps377dfiQiIlKw5ORkzJs3z34kIiL/lYIUIiL5HDx4EEuXLrUfiYiInNzevXuxcuVK+5GIiPwXClKIiOSzePFi+56IiEjRLFu2DDExMfYjERE5XQpSiIjksW7dOhw+fNh+JCIiUnTLly+374mIyOlSkEJExJaZmYkVK1bYj0RERIpn165d5iYiIqdPQQoREduaNWuQlpZmPxIRESk+/lsiIiKnT0EKERFLTk4O1q9fbz8SEXFtQUFBqFSpEurXr29+Stlh8eU9e/bYj0REpLjcrC/mOfZ9EZGz1saNGzWFnEgZCgsLQ0ZGBhITE+0l8l8xMNGiRQsTmChIQkICtmzZoroJZaBWrVro1q2b/UhERIpDmRQiIhZ+cRcRcVXMlrjhhhsKDVCQI4jB9XhfSs+OHTuQlJRkPxIRkeJQkEJEznpxcXEmPVdExBUxMNGrVy/7US5mTezfvx+bN282P/NigOKyyy47aUDD1TFo07JlS3M7U8NdGKgQEZHi03APETnrscjZ4sWL7UciUhY03KNksAOeN0DB4MScOXNw4MABe8nfGJRgJoUji4LrTpkyxfwsb3isHTt2NPcZqGGblLXKlSubYJCIiBSPMilE5Ky3d+9e+544i8jISLRt29Z0Mpo0aYKAgAD7GSkJXl5eOOecc0z7tmvXzoyfF9fk6IgTMya+/fbbAgMUxM46gxKOzAoGKy666CJzX0oe25mBOBERKR5lUojIWW/UqFHIysqyH5U8Xk3r3Lkz/P397SV/459gXknesGEDVq9ebS89e7Hz3KVLF1SrVg1ubm72UiA9Pd3MvrJs2TJ7yd+aNm2Kc889F9nZ2Zg1a9a/UtvLUrNmzUx6+dGjR/HLL7/YS8sW2/DSSy9FVFSUGcr0/fff28/kYns1b94cfn5+9pLczyHXnT9/fqEd3JKmTIr/jgEKx5ANZkMwQJEXsyz49yd/oUwGJ1iXwmHy5Mlldt7LijNkUtAll1xi/p6JiEjRKZNCRM5qx44dK9UARV6ZmZmIjY0178kb77PzHRgYiNatW6NTp072mmcvXtXnF3p2Xnft2mUKmsbExJiONzvXjRs3ttfM7Yx37doVbdq0ga+vr730zGKn0N3dHYcOHbKXlD0GbJiJUpA6dergvPPOM+3FzyDbd/v27UhNTTVBA7Yl21VcQ95aCwV1whmMyDu8w4EBjRUrVtiPcgOpUjoOHz5s3xMRkaJSkEJEzmq8elxWGJBYsGABfvjhB3ObMGECxo4di7Vr15osgOrVq6Nu3br22mcfBieqVq1qAhRLly7FtGnTMHv2bPz444/Ys2cPPD09UaNGDbMuO2dXXnmlGabAdnWGlGoGBtjRT0tLO2NXpdnZrFevngmUFISfLx8fH7N/kyZNMu07Y8YM/Pnnn0hJSTH7X56LKZY3eYMPxf3M5c04io6Otu9JSWMwUEREikdBChE5qzlDwTgW7eTwAHYeK1asaC/NxU44swsctRlCQ0PtZ/6NdRu4Dtdt1apVoVfT83LUfmAWB6/An2z7pY2d+927d5sMir/++stemovtw0COozYFO+PBwcE4cuSI6WA7Q5CiSpUqZkhPfHy8CaqcCY0aNTJt5Giv/Ji1w4we7l/eNtu5cyeSk5NNcMNZslLk5PJmUeQNOHB5/lktmE3hWOaQd5hN/kwLKTllGQgXESkvFKQQkbMaO2bOgB1HYrYAMWPg+uuvN8MZWOCQV7cZTLjmmmvQoUMHs05e7IT07t3brMN1mdJ/+eWXm1oYffv2Nbe8Kd0MRvTs2dNkIzCwwavvHHLC7fM1ZyLln2nRc+fONVf382O7sEYFAxnEn6xR8euvv5qhCs6ANSC4j2dqqAc/J8xESUpKKnRKXWbwfPHFF2ZGm/wcbSuuzTHEgzdHVgx/OpY5AhIM0DqCtFymQEXpUM0VEZHiU5BCRM5qztLBdQQnGKxgAIG1AZgpwKtwHPrAbAGmc/NKNwMKea+Isk4DCyEysMDUYq7PQnnsgLAGQf4r41zvwgsvNEELBmk43ITBgW3btpn6HHwNszecBQM23CdmBuzbt88sW7dunclAcYYMCmIGTHh4+Bkb6hESEoKGDRuazxHrTHAITHHw9cyyYBs7y++EnFxhmRAsEjl8+HBzc9SpYEFNx7K82WN5X+cMWWXlkSMALSIiRacghYic1Zyhk8uhGRUqVDAdXGYTsFPOlH0GKKZPn45Vq1aZ2T9YgZ+BBA8PDzO0gBhw4FVSLtuxY4e5Us71WRTvp59+OhHYyIszUDAN/Pjx4yYTYdGiRdi0aRNmzpxpZs9goIJX5M9kRXqOkb/uuutw2223oXv37ibQws53/lkKnAUDPpwtg0GiMzHUg4EqBkk4/IXnv7gcQ1UYoOA2XB0DffwMlfTNmfzXTAhHlgUxsOFK8g5pKeyWdzhMcdcvaZpIT0SkeBSkEJGzWlnN7EHe3t4mg+Haa689cbvppptMLQgGEliPYevWrWYq0i+//BJTp07913jmvXv3msAK61cQAwnsnLBzydfmxfVYayD/lTx2qPl+3Fb+7bOzwiu03Nei1LQoLdw/7oNjmAcf8zjPZM2MkzmTQz1q1qyJ2rVrm+wJBpuKG3hzBLrY1gxqlZfZCAoKMvyXm+N3zpnkzX7gUI7iYEaWq+LfAsfwlcJueYMwxV1fRETOLAUpRETKCDuBnD2BV7wdN1695qwKHL4wf/58e83cAAOfcxS15I338w/dYIo+syiYhcGCk/k5pjl1YFo/t8sre7x6njdgwtsVV1xhsjgYFDgTdSkcWAjwq6++MunpbBcGThhcYZCnIDweBmrYlhzCcrq3goY6cAjEkiVL8Nxzz+GTTz4xU6Lm5RjqwdeeiaEerEXBLA5mcDBIUVwc2sNMHmbW5C9YeibwXPLzzAAagz4c4pO3MGRJ4/vx3DODpCQzqxhAYOCR2y2oiGlJyDuNKDvZ+bMBHEM/8g/lYOZA3ho1ebcjIiJyprlZ/zgrB01Ezlqc5rKgzn1JYmeAxShp1qxZRepwsTgmr3QyAFEQduC+//5709lgJgY7mHycX/73Jj5mp5ZZJIX9E8BOFQMnztJ54dSZjgAF63Ns377d3CceI2t4sLYGx95zSMjpdgoZwLnlllvsR7nY1u+8886JDAMGcy6++GJzn9j+vBLLYpUcPlOW+N4skspimfwsOzJjTvW5cODnjJ1bZtswEMNhRWWFATsGBfLWVmAAiJ87DmvisTAIx8AagygsIltUzLgpyiwlDE7wc8PsJQaYbr/99pMOcyqsIGl+PB9jxowxQ2+aNm1qtuuYmaak8Vzz80cMRpxqWFTe9Yl1K1xtuAczI06V+cDsF0cghn9zT3Xu2Hal1Q4DBgwwmVYiIlI0ClKIyFmNHff8wyRKWnGDFI6OpyNQsHHjRtPp4XYYuGARSX6hZuezQYMGpvPOztZvv/1mpr/Mi/Ut2BHln3q+N7dzySWXmM74ggULTuvKe2ljpzT/cRBrVLCYKDt+eTthbBdOu8osCrbBL7/88o+OOTs0fD4/ti/bg1e7Wc+D2LEdMmSIue/Add5+++0T561///5o3769uU8MWLCGR/79KgsMmDCL41SYjZA3gMIsGWZQMPjDQMHKlSsLnPGjNOUNUjBgxoKvjiFO/B1gLRKuw2EWjsKyJYXvy6AMa75wulZmbjCwcd9996F69er2WqeHnyvWd5k4caJ5n9IOUvDzfdlll5mfDvysMljBvxMMvjg69Xk77sTnGdgrj3i8jt97Bh8cRUTPhDvuuMO+JyIiRaHhHiJyVivK1dayxvoG7JSxZgQ7vewkEzse+Tvv7GRwOAeDDuwo58f077xj6fl6vobbL6zmBLdTWh2qk+EV3ltvvRVdunT511ATBi44BIUdwIKGZPA57jM77Ozc5r0azg4ah7Hkv1111VVmatann34a999/PyIiIkxb5o/dc7vsZLLAaa9evcxPB3b4eJX/TA31YKYEi3Xmv3E5sZPMxzznDjwethEDFDxeFkst6wBFXgyw/fzzzxg7dqwJWPTp08d8Dhyfw5IOUHD4xejRo01QhOeNAYqSxN9TBinY9mWB53bKlCn/OMeOwB0/r+wg33DDDSZ7In+Agr8bjufzBjmk5JT051dE5GygIIWInNXYuXc2jkKX+b/c8kovsyjyDgFhh4hpzFzGaUiZOeHAGR+YacEOfF58Da9c84px/tR21jdgWv3ll19e5oUzGUBhEIJXz3ksefGqKFP/2aksyuwTDDgUB9uKV6MZHCmoc8m2GjhwoAlu5A1sMQjEx6z9wXYta3/88YeZ0SX/jdlBjkwRPp43b55Zn/t76aWXms4qO6m8urx+/Xrz3JnAmhPjxo0zGTD8vDEYxMyg0kyNZzYOs3IefPBB00Evyb8BzOaZMGGCCXyUZefUEagoyvAsrsv1mEHhCGwwQJE/G0NKBv9uiYhI8ShIISJnNWf8Us5x+QxU8EoyhxI0atTI1FzgMA1mFOS/0s9sC3aSHVfIb7vtNnNjoU12lvJnHrBTysAGO2csyMmghCO9vnXr1qajzg53WU9FyY4194tBFU6TyqvA3L9rrrnmRNCCtSiKMvtEcYt+8j05xIYBkoIyNQrDrBeejzMRoDgdjmMknn8OQ2LWQt5bYcVJSxoDKOwoc6gJP7tXXnml+ayXNmYWMeDHQAjboqRmjOHngEONmAHFoTRlPRsIAw78W8A2ddSZcHwuHYEJR3DCMSyJQ0IcFKgoHSX1+RIROZsoSCEiZzVn/ALJ2gbssLPTwyv4rH/ATjuzJRhgyD+lKMfw80o0OxxM3+d6vIrOzhLH3fN+XswUYD0KdmDYkeL0lQxOcCpLvpZ1KhYuXGivXbZYN4NFE4lX/VmDg1kR3GfOPLF48WLz3KmczpV4dpS7dev2r8yTwjAbgZ1cXj13lSCFA9uHV/oZzMl/K4sMAH6Gf//9d9NZ5uecdVM4HKGobV9S+H6c6va/4jGw+CY/nwysMdhypgolMiDhqMHA7ArO7uEITDiCEw58nDf7QoGKkleUmjEiIvJPKpwpIme9UaNGmeEPzoYBFAYOmD3B7AoWd3TUpygqZmM4iscVVLSTKfacitTxHgxsOGaIOJP+67GPGDHCBGiIwYQXX3zR3Jczj187OK0sh6owW4eBOA694IwzZY21O4YOHWoydPiZO93Cmfyd+fzzz802mMXEICODA6yxUdqFM0tC/hk/GOjIX+fC1ThL4UxmwJ1sxhgREfk3ZVKIyFmPFe+dETs+zKrgl2vO8lFYJ53p+ZzlgdkW+bGoI7MlOOyjoOEbXJb3PZwhQEFFPfaSwNk9ioJtyCvPjqKUJ8OOuCOThR1yHkPeqTbLCveDw2MWLVpkL8ldxowcHguzQE6GdUKYIcDzwCwB1pD4rzikh5k/zPBhJgOv3J+JAEVJ4swp/HxwyAqzUVyNMipKj7P++yIi4sw8XtTlJRE5y7GjxikaXRWLaTJjgmnFrKfA2RyIRTR5hZTp7LxSvGvXLrP8bMAOl+OcsqPFFPyCcBgJpxwt7Hm2Jzvms2fPNhk3HCbDK86Oug75cbgN3/uzzz4zP9kRZyCIWSwc3sCsEJ4nBl0YtOCN+8BAEq/oMxjADi+zDDg9Joe+5J1NhAGSL7/8EtOmTTNXurkOb5whg0VSie/J7TL48uOPP+K7774zQ2VY34QBi2HDhpn3YMeUNw71yVs/ga/nMXMa159++sm8lkOAOBvGjBkzzFVp1uJg1kBxhzRw2yziyQAUMwuYxcO6GHx/ZjOx/XgjBjBKe8gEAws8LtZ0YQHU888/32TvFBUDPmxDngsWVW3YsKHZZ05ryvPPY2FbsRZISQwrKU2cnYb7zmFWxHPCvyH8u+E4J66Ew8SYjUX8vTsTf/+YxcXPhIiIFI+CFCJy1uOXcXbEXBWzDjhsg50rfilnkUl2ijjFJK/qspPMaSaLUxDS1RU1SMGOCzMdevToYS/5GzttDAbwxu2xQ0usEVJQkILBBk6lyeKJDBwNGDDAFDzluWBHZefOnaZzPnfuXBP0cNw4BIdDAljolLUM+JjBCQbPODMAizA6sKPLmUi4fUdhRK7HIFWTJk3MOixEyaAI94WBCnb++TngdlibgMfMfSUGNypWrHhiVhiuy9ePGTPGfKZYvJRtw2PgvjA7hJkQfG++jh3w4uDwgalTp5pOI88Ls38YqOAUqMz2YLYG25rHz3WZCVSamQn/NUixZ88eEzTicbDwrKOehysGKaigQAWDankLbLoKR8CLx8TPG29ljb+T/D0REZHi0XAPETnr8YqwK6fkMkjBK+OOYRG8ussbO3lM1edzzjKMw5mwI8lhB4UNw2AgokuXLma6Sk5beSrMMpg5c6bpVLNzz8+VgyNjgB1hnhsGBVin4O6778bVV19thjuwaCmv/jJYURh2INlx5Bh3ZskUhAEMXtXnNLJ5MSDCegtPPPGEeQ9mKnBbXN+BHTpOoclASJ8+fUx2BtuB78epS9kexMDX2LFjizT0JS8GAxisIbYTO44ff/wxJk+ebAIqDKA4hvkwoPLpp58WOEzJGTDoxywWtmHv3r3Nz/Ig79APR20KV8R9d2QLMah2JtSqVcu+JyIixaEghYiIhbNIuDJeGeeV6G+++QajR482t/Hjx5urxI6r5mcrXvlnxzzv7ZFHHsEzzzxjOsQcglAQBhSYTcCOOqfrPBl2tpkhwUwEBrzyj+VncIHZFI5gB/eJgQtO/cqABQMUDsxYKIrCCjEyE4DBDmZxOLBDzQAAsyJ4lfyWW27BoEGD8Morr5j9ILbDd999Z4IozArI3+lmUIFFAB2ZDQxQMMukODZs2HBidhr+ZACCwY+XX34Zjz76KAYPHow77rjDBHiY5bBx40azT+xwOhO2ETNOuH/9+vU75efD1TgCFQwUyelhgMKZi6WKiDgzBSlERCzsiLJTKuUPsxRY1yHvjXUYWFuiKJ0IBhBO9dng0BIOnSC+X0HTeDJw4ZiOkEGDwlLoGdAoCXn3mdtkxoYj8MAsCo6Xz5vtwRkpWHuC2RbsdDsycvLeGKDIm3XETnpx6hWwNooDh3I88MAD5lw4jpk/mSHCTBDH/jNDyDFTi7NgNsikSZPM7BHldeYGBirk9DlqxIiISHEB/wcKDY/Gb0W48QAAAABJRU5ErkJggg==;" vertex="1" parent="1">
          <mxGeometry x="610" y="300" width="403.73" height="290" as="geometry" />
        </mxCell>
      </root>
    </mxGraphModel>
  </diagram>
</mxfile>
